<?xml version="1.0" standalone="no"?>
<!DOCTYPE svg PUBLIC "-//W3C//DTD SVG 20010904//EN"
 "http://www.w3.org/TR/2001/REC-SVG-20010904/DTD/svg10.dtd">
<svg version="1.0" xmlns="http://www.w3.org/2000/svg"
 width="1024.000000pt" height="1024.000000pt" viewBox="0 0 1024.000000 1024.000000"
 preserveAspectRatio="xMidYMid meet">

<g transform="translate(0.000000,1024.000000) scale(0.100000,-0.100000)"
fill="#000000" stroke="none">
<path d="M7550 8643 c-304 -53 -685 -188 -966 -344 -447 -249 -899 -635 -1267
-1084 -200 -243 -453 -607 -552 -792 0 -1 -32 -7 -70 -13 -107 -16 -713 -130
-733 -137 -45 -16 -105 -72 -165 -153 -135 -181 -402 -557 -487 -685 -96 -146
-114 -196 -86 -240 29 -44 54 -42 325 24 261 62 686 151 727 151 13 0 25 -4
28 -9 4 -5 -30 -80 -74 -166 -87 -171 -99 -209 -78 -248 15 -29 15 -29 406
-326 202 -153 303 -224 326 -228 45 -7 91 18 240 131 l123 94 7 -152 c3 -83 9
-324 12 -535 7 -385 7 -385 30 -408 26 -26 51 -29 97 -10 91 39 771 823 815
940 24 62 24 24 -10 500 l-22 307 90 93 c246 254 506 575 701 867 357 536 597
1115 682 1650 39 244 51 500 32 668 -13 105 -33 122 -131 105z m-1089 -1183
c132 -25 251 -119 312 -247 30 -63 32 -76 32 -173 0 -97 -2 -110 -31 -171
-182 -384 -735 -312 -807 105 -37 217 113 434 333 482 70 16 95 16 161 4z"/>
<path d="M4080 4657 c-243 -100 -589 -508 -759 -894 -21 -48 -73 -184 -116
-302 -246 -682 -504 -1131 -896 -1560 -68 -74 -114 -131 -103 -127 10 5 42 17
69 28 144 57 356 190 535 337 389 320 828 860 1096 1349 60 109 91 133 81 64
-5 -43 -91 -262 -174 -447 -72 -160 -70 -153 -42 -129 392 336 557 529 694
816 147 310 185 561 100 674 -30 39 -183 153 -252 188 -69 34 -154 35 -233 3z"/>
</g>
</svg>
