<svg width="460" height="424" viewBox="0 0 460 424" fill="none" xmlns="http://www.w3.org/2000/svg">
<path d="M459.806 416.058C459.806 420.005 356.934 423.216 230.049 423.216C103.164 423.216 0.280762 420.005 0.280762 416.058C0.280762 412.111 103.131 408.889 230.049 408.889C356.967 408.889 459.806 412.1 459.806 416.058Z" fill="#F5F5F5"/>
<path d="M172.761 132.26C172.761 132.26 139.321 150.16 129.256 194.986C121.919 227.68 124.141 289.379 137.363 294.33C150.585 299.281 152.059 261.075 152.169 247.495C152.279 233.916 164.269 217.335 174.95 216.342C174.95 216.342 177.04 144.649 172.761 132.26Z" fill="#407BFF"/>
<path opacity="0.2" d="M177.766 141.145C169.857 144.344 163.356 150.486 158.087 157.352C152.477 164.908 147.862 173.24 144.37 182.118C140.497 191.602 137.673 201.531 135.955 211.706C134.35 222.426 133.566 233.266 133.612 244.12C133.436 257.397 133.128 271.221 138.012 283.739C138.199 284.241 138.98 284.019 138.782 283.517C134.558 272.611 134.305 260.701 134.382 249.083C134.47 238.119 134.624 227.108 136.087 216.237C138.705 196.924 145.338 177.389 156.129 161.486C161.728 153.242 168.911 145.641 177.997 141.962C178.481 141.764 178.272 140.947 177.788 141.145H177.766Z" fill="black"/>
<path d="M287.326 132.26C287.326 132.26 320.766 150.16 330.831 194.986C338.168 227.68 335.946 289.379 322.724 294.33C309.502 299.281 308.028 261.075 307.918 247.495C307.808 233.916 295.818 217.335 285.137 216.342C285.137 216.342 283.047 144.649 287.326 132.26Z" fill="#407BFF"/>
<path opacity="0.2" d="M282.112 141.951C290.065 145.173 296.566 151.432 301.802 158.426C307.276 165.926 311.775 174.174 315.178 182.947C318.992 192.384 321.764 202.258 323.439 212.372C325.188 223.021 325.54 233.845 325.639 244.634C325.804 257.677 326.068 271.21 321.305 283.505C321.118 284.007 321.888 284.229 322.075 283.727C326.354 272.681 326.574 260.584 326.475 248.814C326.387 237.71 326.2 226.559 324.682 215.548C323.215 205.065 320.571 194.806 316.806 184.99C313.534 176.123 309.205 167.737 303.925 160.038C298.348 152.016 291.231 144.753 282.321 141.145C281.837 140.947 281.628 141.764 282.112 141.962V141.951Z" fill="black"/>
<path d="M275.831 268.492H183.431C183.431 268.492 166.513 199.483 173.146 122.103C174.935 101.598 179.839 81.5353 187.666 62.6929C187.776 62.401 187.897 62.1091 188.018 61.8289C189.954 57.1583 191.989 52.7562 194.079 48.5643C202.287 32.0718 212.522 16.8095 224.516 3.17771C225.202 2.34661 226.048 1.68068 226.997 1.22445C227.945 0.768225 228.974 0.532227 230.016 0.532227C231.057 0.532227 232.086 0.768225 233.035 1.22445C233.983 1.68068 234.829 2.34661 235.516 3.17771C247.892 17.2462 258.396 33.0472 266.734 50.1407C268.824 54.4259 270.859 58.9448 272.784 63.6854L273.125 64.5261C280.507 82.842 285.153 102.268 286.897 122.103C293.519 199.53 275.831 268.492 275.831 268.492Z" fill="#407BFF"/>
<g opacity="0.5">
<path d="M275.831 268.492H183.431C183.431 268.492 166.513 199.483 173.146 122.103C174.935 101.598 179.838 81.5353 187.666 62.6929C187.776 62.401 187.897 62.1091 188.018 61.8289C189.954 57.1583 191.989 52.7562 194.079 48.5643C202.287 32.0718 212.522 16.8095 224.516 3.17771C225.202 2.34661 226.048 1.68068 226.997 1.22445C227.945 0.768225 228.974 0.532227 230.016 0.532227C231.057 0.532227 232.086 0.768225 233.035 1.22445C233.983 1.68068 234.829 2.34661 235.516 3.17771C247.892 17.2462 258.396 33.0472 266.734 50.1407C268.824 54.4259 270.859 58.9448 272.784 63.6854L273.125 64.5261C280.507 82.842 285.153 102.268 286.897 122.103C293.519 199.53 275.831 268.492 275.831 268.492Z" fill="white"/>
</g>
<path d="M265.612 258.659H196.323V259.78H265.612V258.659Z" fill="#407BFF"/>
<path d="M277.932 294.761H184.531C177.876 284.591 184.916 268.489 184.916 268.489H276.04C276.04 268.489 283.047 281.625 277.932 294.761Z" fill="#263238"/>
<path d="M254.337 303.987H207.631C204.331 298.896 207.829 290.851 207.829 290.851H253.391C253.391 290.851 256.889 297.413 254.337 303.987Z" fill="#263238"/>
<path d="M254.359 303.986H207.785C198.358 309.299 174.906 321.98 178.184 343.465H285.159C288.437 321.98 263.786 309.287 254.359 303.986Z" fill="#407BFF"/>
<path d="M288.382 338.923H174.169V348.276H288.382V338.923Z" fill="#263238"/>
<path d="M266.734 50.1396C258.308 56.5383 245.416 63.7077 230.016 63.7077C216.661 63.6267 203.826 58.2068 194.068 48.5282C194.948 46.7612 195.835 45.0408 196.73 43.3672L197.159 42.5849C204.786 28.3446 213.964 15.1059 224.505 3.14158C225.191 2.31047 226.037 1.64454 226.986 1.18832C227.934 0.732092 228.964 0.496094 230.005 0.496094C231.046 0.496094 232.076 0.732092 233.024 1.18832C233.973 1.64454 234.818 2.31047 235.505 3.14158C246.077 15.1325 255.279 28.4073 262.917 42.6899L263.346 43.4956C264.497 45.6519 265.627 47.8665 266.734 50.1396Z" fill="#407BFF"/>
<path opacity="0.2" d="M263.357 43.5309C260.652 45.5912 257.785 47.4 254.788 48.9371C244.224 54.3541 232.338 56.1652 220.765 54.1215C212.09 52.5343 203.87 48.8684 196.73 43.4024L197.159 42.6201C200.059 44.8538 203.153 46.7891 206.399 48.4C216.947 53.6774 228.789 55.3109 240.257 53.0706C248.434 51.4257 256.173 47.8984 262.928 42.7369L263.357 43.5309Z" fill="black"/>
<path d="M274.302 134.456C270.067 89.0578 266.756 70.8891 266.371 68.8924C267.966 67.97 269.462 67.0358 270.771 66.1251C271.574 65.5996 272.344 65.0625 273.081 64.5254L272.74 63.6847C271.959 64.2452 271.156 64.8523 270.32 65.3661C261.52 71.2628 247.385 78.3037 230.357 78.3037C216.937 78.3118 203.839 73.9421 192.836 65.7865C191.021 64.4553 189.404 63.1125 187.963 61.8281C187.842 62.1084 187.721 62.4003 187.611 62.6922C189.008 63.9299 190.581 65.2143 192.319 66.5104C193.419 67.3278 194.662 68.1801 195.971 69.0208C195.498 71.543 192.231 89.8634 188.073 134.409C184.773 169.205 187.787 203.826 190.845 226.747C192.661 240.814 195.165 254.771 198.347 268.561C198.369 268.651 198.419 268.731 198.489 268.789C198.558 268.846 198.644 268.877 198.732 268.876H198.831C198.932 268.846 199.018 268.776 199.071 268.68C199.124 268.584 199.141 268.471 199.117 268.362C195.942 254.599 193.445 240.67 191.637 226.63C188.579 203.768 185.62 169.229 188.865 134.514C192.891 91.3814 196.081 72.8741 196.697 69.4529C206.897 75.8776 218.54 79.2658 230.401 79.2612C242.722 79.0962 254.813 75.7029 265.601 69.3828C266.151 72.3487 269.374 90.7509 273.466 134.596C276.711 169.31 273.752 203.85 270.694 226.712C268.886 240.751 266.39 254.681 263.214 268.444C263.19 268.552 263.207 268.666 263.26 268.762C263.313 268.858 263.399 268.928 263.5 268.958H263.599C263.687 268.958 263.773 268.927 263.843 268.87C263.912 268.813 263.962 268.733 263.984 268.643C267.166 254.852 269.67 240.896 271.486 226.829C274.588 203.873 277.558 169.252 274.302 134.456Z" fill="#407BFF"/>
<path d="M230.401 182.644C224.345 182.646 218.425 180.742 213.389 177.172C208.353 173.602 204.428 168.527 202.109 162.589C199.791 156.651 199.184 150.116 200.365 143.811C201.545 137.507 204.461 131.715 208.743 127.17C213.025 122.625 218.481 119.53 224.42 118.276C230.36 117.023 236.516 117.667 242.11 120.128C247.704 122.589 252.485 126.756 255.848 132.102C259.211 137.447 261.005 143.732 261.003 150.16C260.994 158.772 257.767 167.029 252.03 173.119C246.293 179.209 238.514 182.635 230.401 182.644ZM230.401 118.516C224.505 118.516 218.742 120.372 213.839 123.849C208.937 127.326 205.116 132.268 202.86 138.05C200.604 143.832 200.013 150.195 201.164 156.333C202.314 162.471 205.153 168.11 209.322 172.535C213.491 176.96 218.803 179.974 224.585 181.195C230.368 182.416 236.362 181.789 241.809 179.394C247.256 176.999 251.911 172.944 255.187 167.74C258.463 162.536 260.211 156.418 260.211 150.16C260.202 141.77 257.059 133.727 251.47 127.795C245.882 121.863 238.304 118.526 230.401 118.516Z" fill="#407BFF"/>
<path d="M253.578 150.149C253.578 156.674 251.136 162.932 246.79 167.546C242.443 172.16 236.548 174.752 230.401 174.752H229.862C225.94 174.669 222.103 173.519 218.719 171.412C216.102 169.788 213.808 167.638 211.965 165.084C208.877 160.801 207.211 155.554 207.224 150.161C207.226 149.205 207.277 148.25 207.378 147.3C207.991 141.806 210.329 136.691 214.015 132.779C217.7 128.866 222.519 126.385 227.695 125.734C228.593 125.626 229.497 125.572 230.401 125.57C236.45 125.577 242.257 128.093 246.585 132.579C250.912 137.066 253.418 143.17 253.567 149.589C253.578 149.776 253.578 149.963 253.578 150.149Z" fill="#407BFF"/>
<path opacity="0.1" d="M244.448 130.638L211.965 165.119C208.877 160.836 207.211 155.589 207.224 150.196C207.226 149.24 207.277 148.285 207.378 147.335L227.695 125.769C228.593 125.661 229.497 125.607 230.401 125.605C235.477 125.599 240.414 127.368 244.448 130.638Z" fill="white"/>
<path opacity="0.1" d="M253.567 149.577L229.862 174.74C225.94 174.657 222.103 173.507 218.719 171.401L250.41 137.772C252.399 141.355 253.486 145.42 253.567 149.577Z" fill="white"/>
<path d="M224.857 365.849L220.798 372.493L210.612 389.178L206.278 396.266L194.695 415.229H190.174L201.944 389.178L206.278 379.58L209.006 373.532L212.482 365.849H224.857Z" fill="#407BFF"/>
<path opacity="0.2" d="M224.857 365.849L220.798 372.493L210.612 389.178L206.278 396.266L194.695 415.229H190.174L201.944 389.178L206.278 379.58L209.006 373.532L212.482 365.849H224.857Z" fill="black"/>
<path d="M273.29 365.849L271.981 367.997L259.045 389.178L254.711 396.266L243.128 415.229H238.618L250.377 389.178L254.711 379.58L259.452 369.095L260.915 365.849H273.29Z" fill="#407BFF"/>
<path opacity="0.2" d="M273.29 365.849L271.981 367.997L259.045 389.178L254.711 396.266L243.128 415.229H238.618L250.377 389.178L254.711 379.58L259.452 369.095L260.915 365.849H273.29Z" fill="black"/>
<path d="M277.954 348.275H182.034V365.849H277.954V348.275Z" fill="#407BFF"/>
<path opacity="0.2" d="M277.954 348.275H182.034V365.849H277.954V348.275Z" fill="white"/>
<path d="M222.382 415.229H217.861L206.278 396.266L201.944 389.178L193.243 374.921L187.699 365.849H200.074L203.759 373.987L206.278 379.58L210.612 389.178L222.382 415.229Z" fill="#407BFF"/>
<path d="M270.815 415.229H266.294L254.711 396.266L250.377 389.178L239.201 370.87L236.132 365.849H248.507L250.333 369.889L254.711 379.58L259.045 389.178L270.815 415.229Z" fill="#407BFF"/>
<path d="M382.08 129.306C378.444 137.177 374.302 144.773 369.683 152.041C368.825 153.337 367.967 154.598 367.087 155.789C362.599 161.919 357.891 166.403 354.162 165.34C333.405 159.432 320.293 140.819 320.293 140.819L324.187 136.149C324.187 136.149 349.223 146.506 351.181 146.307C353.139 146.109 365.481 113.321 365.481 113.321L382.08 129.306Z" fill="#407BFF"/>
<path opacity="0.2" d="M371.597 144.008L369.683 152.042C368.825 153.338 367.967 154.599 367.087 155.79C366.986 153.434 366.567 151.107 365.844 148.877C364.293 144.312 358.639 138.555 361.081 132.53C362.928 127.711 364.399 122.74 365.481 117.666L371.597 144.008Z" fill="black"/>
<path opacity="0.2" d="M361.158 162.084C359.348 160.585 357.066 159.879 354.78 160.111C352.495 160.343 350.38 161.497 348.871 163.333C348.519 163.742 347.958 163.135 348.299 162.726C349.933 160.755 352.211 159.514 354.672 159.254C357.134 158.994 359.597 159.734 361.565 161.325C361.972 161.652 361.565 162.388 361.158 162.061V162.084Z" fill="black"/>
<path d="M354.47 150.022L327.641 149.438C326.791 149.4 325.975 149.081 325.304 148.526C324.634 147.972 324.143 147.209 323.901 146.344L315.53 108.979C315.431 108.608 315.42 108.217 315.498 107.841C315.576 107.464 315.74 107.114 315.977 106.822C316.213 106.529 316.514 106.303 316.852 106.164C317.191 106.025 317.557 105.977 317.917 106.025L344.746 106.62C345.594 106.656 346.411 106.972 347.082 107.525C347.752 108.077 348.243 108.839 348.486 109.703L356.857 147.068C356.956 147.438 356.967 147.829 356.889 148.206C356.811 148.582 356.646 148.932 356.41 149.224C356.174 149.517 355.873 149.743 355.534 149.882C355.196 150.021 354.83 150.069 354.47 150.022Z" fill="#263238"/>
<path opacity="0.2" d="M354.47 150.022L327.641 149.438C326.791 149.4 325.975 149.081 325.304 148.526C324.634 147.972 324.143 147.209 323.901 146.344L315.53 108.979C315.431 108.608 315.42 108.217 315.498 107.841C315.576 107.464 315.74 107.114 315.977 106.822C316.213 106.529 316.514 106.303 316.852 106.164C317.191 106.025 317.557 105.977 317.917 106.025L344.746 106.62C345.594 106.656 346.411 106.972 347.082 107.525C347.752 108.077 348.243 108.839 348.486 109.703L356.857 147.068C356.956 147.438 356.967 147.829 356.889 148.206C356.811 148.582 356.646 148.932 356.41 149.224C356.174 149.517 355.873 149.743 355.534 149.882C355.196 150.021 354.83 150.069 354.47 150.022Z" fill="white"/>
<path d="M351.731 149.962L324.891 149.378C324.044 149.336 323.23 149.016 322.562 148.461C321.894 147.907 321.405 147.146 321.162 146.284L312.78 108.919C312.681 108.548 312.67 108.157 312.748 107.781C312.826 107.405 312.99 107.055 313.227 106.762C313.463 106.47 313.764 106.244 314.102 106.105C314.441 105.966 314.807 105.918 315.167 105.965L342.007 106.549C342.854 106.591 343.668 106.911 344.336 107.466C345.004 108.02 345.493 108.781 345.736 109.643L354.107 147.008C354.205 147.378 354.216 147.767 354.139 148.143C354.061 148.518 353.898 148.867 353.663 149.159C353.428 149.451 353.129 149.678 352.792 149.818C352.455 149.958 352.09 150.007 351.731 149.962Z" fill="#263238"/>
<path opacity="0.2" d="M328.466 128.98C328.754 130.07 329.357 131.037 330.19 131.745C331.022 132.453 332.043 132.866 333.108 132.927C333.563 132.976 334.022 132.905 334.445 132.721C334.868 132.537 335.242 132.245 335.533 131.871C335.825 131.497 336.025 131.052 336.116 130.576C336.207 130.101 336.187 129.609 336.056 129.144C335.772 128.052 335.172 127.083 334.341 126.373C333.51 125.662 332.49 125.247 331.425 125.185C330.969 125.139 330.51 125.212 330.087 125.398C329.664 125.584 329.291 125.877 328.999 126.251C328.707 126.625 328.506 127.07 328.413 127.545C328.32 128.021 328.338 128.514 328.466 128.98Z" fill="white"/>
<path d="M319.369 131.374C319.369 131.374 325.243 131.023 326.178 132.308C327.113 133.592 321.217 134.83 321.217 134.83C321.217 134.83 324.693 134.725 325.617 135.601C326.541 136.476 322.185 137.877 322.185 137.877C322.185 137.877 324.506 137.877 324.594 139.255C324.682 140.633 323.802 141.1 322.515 141.427C321.982 141.565 321.427 141.569 320.892 141.44C320.357 141.31 319.859 141.05 319.435 140.68C318.929 140.143 319.358 138.753 319.358 138.753C319.358 138.753 317.158 137.586 317.07 136.698C317.054 136.424 317.092 136.148 317.183 135.891C317.274 135.633 317.416 135.399 317.598 135.204C317.282 135.138 316.986 134.989 316.738 134.771C316.491 134.553 316.298 134.272 316.179 133.954C316.062 133.679 316.01 133.377 316.03 133.075C316.049 132.774 316.138 132.482 316.289 132.226C315.836 131.199 315.446 130.142 315.123 129.062C314.837 127.894 316.784 126.972 317.961 126.236C319.138 125.5 321.261 128.069 323.197 128.571C323.197 128.571 324.187 129.213 323.131 129.996C322.075 130.778 319.831 129.599 319.303 129.645C318.775 129.692 319.369 131.374 319.369 131.374Z" fill="#B55B52"/>
<path d="M369.331 58.6281C369.331 58.6281 362.038 61.699 363.831 67.8759C365.624 74.0527 360.894 73.4806 360.333 79.4706C359.772 85.4607 369.353 87.3056 366.746 92.6651C364.139 98.0246 360.146 99.5776 362.764 104.797C365.382 110.016 368.88 115.995 368.88 119.86C368.88 129.014 385.38 106.455 398.085 110.168C410.79 113.881 414.123 100.652 408.931 97.5926C403.739 94.5333 397.007 90.0379 398.976 82.0395C400.945 74.0411 402.364 70.363 396.589 66.2061C390.814 62.0493 393.982 61.3604 390.649 57.5421C387.646 54.1092 383.268 57.6472 378.549 56.1643C373.83 54.6814 369.331 58.6281 369.331 58.6281Z" fill="#263238"/>
<path d="M371.619 87.9246C371.681 88.4887 371.9 89.0205 372.247 89.4529C372.594 89.8852 373.054 90.1987 373.568 90.3536C374.083 90.5086 374.63 90.4981 375.139 90.3235C375.648 90.1488 376.097 89.8179 376.429 89.3725C376.761 88.9271 376.961 88.3872 377.004 87.8211C377.047 87.255 376.931 86.688 376.67 86.1919C376.41 85.6958 376.017 85.2928 375.541 85.0338C375.064 84.7748 374.526 84.6715 373.995 84.7369C373.642 84.7804 373.3 84.8973 372.989 85.0811C372.679 85.2649 372.405 85.5119 372.184 85.8079C371.964 86.104 371.8 86.4433 371.703 86.8065C371.606 87.1697 371.578 87.5496 371.619 87.9246Z" fill="white"/>
<path d="M366.273 391.888L363.336 404.744H356.956L356.659 391.888H366.273Z" fill="#B55B52"/>
<path d="M338.421 413.84C338.773 409.648 340.5 408.399 342.645 408.259C344.79 408.119 352.82 405.281 352.82 405.281C352.82 405.281 354.481 402.619 355.955 402.082C357.429 401.545 358.826 403.121 358.826 403.121L362.841 402.607C362.841 402.607 364.04 400.692 364.865 402.362C366.141 404.966 365.965 412.159 365.866 413.84H338.421Z" fill="#407BFF"/>
<path d="M338.949 412.742H343.921L365.69 412.625C365.965 412.625 365.91 412.17 365.635 412.182H364.161C364.161 412.182 364.161 412.182 364.161 412.123C363.859 411.627 363.657 411.069 363.568 410.486C363.479 409.903 363.504 409.306 363.642 408.734C363.781 408.161 364.029 407.625 364.372 407.16C364.715 406.694 365.145 406.309 365.635 406.028C365.866 405.9 365.635 405.503 365.382 405.643C364.859 405.947 364.4 406.36 364.032 406.858C363.664 407.356 363.395 407.928 363.242 408.539C363.089 409.151 363.054 409.789 363.14 410.415C363.226 411.041 363.431 411.642 363.743 412.182H360.674L338.905 412.298C338.608 412.298 338.663 412.754 338.949 412.742Z" fill="black"/>
<path d="M354.03 407.091C352.93 405.678 351.247 405.281 350.037 406.344C349.839 406.519 349.586 406.133 349.773 405.958C351.159 404.791 353.073 405.269 354.36 406.869C354.547 407.103 354.217 407.324 354.03 407.091Z" fill="white"/>
<path d="M351.731 407.85C350.631 406.437 348.948 406.028 347.738 407.102C347.551 407.266 347.287 406.881 347.485 406.717C348.86 405.491 350.785 406.017 352.072 407.616C352.259 407.85 351.918 408.072 351.731 407.85Z" fill="white"/>
<path d="M349.454 408.599C348.354 407.186 346.671 406.789 345.461 407.851C345.263 408.026 345.01 407.629 345.197 407.466C346.583 406.24 348.497 406.777 349.784 408.365C349.971 408.61 349.641 408.832 349.454 408.599Z" fill="white"/>
<path d="M392.673 223.397C390.789 240.659 387.961 257.79 384.203 274.704C382.861 280.978 381.335 287.664 379.627 294.764C384.324 335.935 365.943 395.415 365.943 395.415L356.098 395.182C356.098 395.182 354.866 328.707 356.021 293.911C357.913 236.895 364.458 182.587 364.458 182.587L391.276 182.471C391.276 182.471 395.907 191.041 392.673 223.397Z" fill="#263238"/>
<path opacity="0.2" d="M392.673 223.396C390.79 240.658 387.962 257.789 384.203 274.702C378.56 251.898 388.768 203.23 388.768 203.23L392.673 223.396Z" fill="black"/>
<path d="M354.965 397.645L354.657 393.161H367.791L367.043 397.645H354.965Z" fill="#263238"/>
<path d="M407.094 391.888L404.146 404.744H397.766L397.48 391.888H407.094Z" fill="#B55B52"/>
<path d="M395.544 397.645L395.236 393.161H408.37L407.622 397.645H395.544Z" fill="#263238"/>
<path d="M379.231 413.84C379.572 409.648 381.31 408.399 383.455 408.259C385.6 408.119 393.63 405.281 393.63 405.281C393.63 405.281 395.291 402.619 396.754 402.082C398.217 401.545 399.636 403.121 399.636 403.121L403.64 402.607C403.64 402.607 404.839 400.692 405.675 402.362C406.951 404.966 406.775 412.159 406.676 413.84H379.231Z" fill="#407BFF"/>
<path d="M379.759 412.742H384.742L406.511 412.625C406.786 412.625 406.731 412.17 406.445 412.182H404.982V412.123C404.682 411.626 404.482 411.068 404.394 410.484C404.307 409.901 404.334 409.304 404.473 408.732C404.612 408.16 404.861 407.625 405.204 407.16C405.547 406.694 405.977 406.309 406.467 406.028C406.698 405.9 406.467 405.503 406.214 405.643C405.69 405.946 405.23 406.358 404.861 406.856C404.492 407.353 404.222 407.925 404.067 408.537C403.913 409.148 403.878 409.787 403.963 410.413C404.048 411.04 404.253 411.642 404.564 412.182H401.495L379.737 412.298C379.429 412.298 379.484 412.754 379.759 412.742Z" fill="black"/>
<path d="M394.851 407.091C393.751 405.678 392.057 405.281 390.858 406.344C390.66 406.519 390.396 406.133 390.594 405.958C391.98 404.791 393.894 405.269 395.181 406.869C395.368 407.103 395.027 407.324 394.851 407.091Z" fill="white"/>
<path d="M392.596 407.85C391.496 406.437 389.813 406.028 388.603 407.102C388.416 407.266 388.152 406.881 388.339 406.717C389.725 405.491 391.639 406.017 392.926 407.616C393.124 407.85 392.783 408.072 392.596 407.85Z" fill="white"/>
<path d="M390.231 408.599C389.131 407.186 387.437 406.789 386.238 407.851C386.04 408.026 385.776 407.629 385.974 407.466C387.36 406.24 389.274 406.777 390.561 408.365C390.748 408.61 390.407 408.832 390.231 408.599Z" fill="white"/>
<path d="M383.444 184.77C383.444 184.77 388.449 263.481 390.044 294.763C391.925 330.505 396.138 391.421 396.699 395.403H406.874C405.708 396.57 419.942 341.936 414.2 297.413C419.579 254.841 426.124 223.665 417.687 183.567L383.444 184.77Z" fill="#263238"/>
<path d="M420.789 186.685C399.405 194.182 363.468 191.718 363.468 186.522C363.468 171.879 368.352 155.416 367.043 145.876C356.934 138.368 364.843 131.584 363.952 120.456C363.656 116.356 364.814 112.286 367.199 109.046C369.584 105.806 373.024 103.628 376.844 102.941C378.67 102.614 380.562 102.287 382.421 102.031L383.521 101.879C388.483 101.279 393.477 101.03 398.47 101.131C400.296 101.131 402.188 101.131 404.168 101.19C406.148 101.248 408.062 101.318 409.888 101.458C411.496 101.578 413.062 102.055 414.485 102.859C415.908 103.662 417.156 104.775 418.148 106.124C419.139 107.472 419.853 109.028 420.241 110.688C420.63 112.349 420.685 114.077 420.404 115.762C418.765 125.531 417.725 135.403 417.291 145.315C417.203 147.359 417.137 149.332 417.115 151.27C416.988 158.056 417.278 164.842 417.984 171.588C417.984 171.716 417.984 171.844 417.984 171.961C418.292 174.647 418.658 177.122 419.084 179.388C419.216 180.1 419.359 180.777 419.513 181.443C419.931 182.809 420.437 185.272 420.789 186.685Z" fill="#407BFF"/>
<path opacity="0.2" d="M381.948 120.619C381.948 120.765 381.907 120.907 381.831 121.028C381.755 121.149 381.647 121.243 381.52 121.299C381.394 121.355 381.254 121.369 381.12 121.341C380.986 121.313 380.862 121.242 380.765 121.14C380.668 121.037 380.602 120.906 380.575 120.763C380.549 120.62 380.562 120.472 380.615 120.338C380.667 120.203 380.756 120.089 380.87 120.008C380.984 119.927 381.118 119.884 381.255 119.884C381.439 119.884 381.615 119.961 381.745 120.099C381.875 120.237 381.948 120.424 381.948 120.619Z" fill="black"/>
<path opacity="0.2" d="M380.837 127.882C381.213 127.882 381.519 127.558 381.519 127.159C381.519 126.759 381.213 126.435 380.837 126.435C380.46 126.435 380.155 126.759 380.155 127.159C380.155 127.558 380.46 127.882 380.837 127.882Z" fill="black"/>
<path opacity="0.2" d="M380.837 134.539C381.213 134.539 381.519 134.215 381.519 133.815C381.519 133.415 381.213 133.091 380.837 133.091C380.46 133.091 380.155 133.415 380.155 133.815C380.155 134.215 380.46 134.539 380.837 134.539Z" fill="black"/>
<path d="M398.503 101.084C393.443 110.531 381.53 116.182 381.53 116.182C379.913 111.955 380.43 105.171 382.421 101.983L383.521 101.832C388.494 101.231 393.499 100.981 398.503 101.084Z" fill="#B55B52"/>
<path opacity="0.2" d="M419.183 179.341C398.118 176.877 377.812 155.789 377.812 155.789L417.346 169.801C417.52 170.539 417.759 171.259 418.061 171.949C418.369 174.612 418.743 177.075 419.183 179.341Z" fill="black"/>
<path opacity="0.2" d="M416.499 149.962C415.867 153.965 415.65 158.029 415.85 162.082C412.928 163.412 409.648 163.558 406.632 162.491C402.502 160.806 399.035 157.681 396.798 153.629C396.798 153.629 408.799 156.139 411.769 154.971C414.431 153.921 408.062 132.039 407.853 131.42L416.653 144.159C416.631 146.144 416.521 148.071 416.499 149.962Z" fill="black"/>
<path d="M382.289 104.797C382.243 104.949 382.18 105.094 382.102 105.229C380.375 108.113 382.245 110.741 385.215 110.519C385.499 110.494 385.782 110.451 386.062 110.39C387.129 110.165 388.103 109.589 388.845 108.744C391.123 106.148 393.587 103.743 396.215 101.551C391.815 99.0174 390.143 90.0148 389.725 84.3867L382.806 93.7279L381.519 95.7713C382.153 96.9055 382.655 98.117 383.015 99.3794C383.32 100.277 383.414 101.24 383.287 102.184C383.16 103.129 382.818 104.026 382.289 104.797Z" fill="#B55B52"/>
<path d="M395.544 101.085C397.975 100.446 400.516 100.446 402.947 101.085L396.226 113.333C392.695 110.601 388.636 114.151 381.53 116.182C387.416 112.608 392.264 107.385 395.544 101.085Z" fill="#407BFF"/>
<path opacity="0.2" d="M395.544 101.085C397.975 100.446 400.516 100.446 402.947 101.085L396.226 113.333C392.695 110.601 388.636 114.151 381.53 116.182C387.416 112.608 392.264 107.385 395.544 101.085Z" fill="white"/>
<path d="M383.323 101.645C383.323 101.645 379.22 100.839 376.844 102.894C375.982 106.055 375.339 109.279 374.919 112.539C374.919 112.539 378.868 110.449 381.519 116.182C381.53 116.182 380.188 107.039 383.323 101.645Z" fill="#407BFF"/>
<path opacity="0.2" d="M383.323 101.645C383.323 101.645 379.22 100.839 376.844 102.894C375.982 106.055 375.339 109.279 374.919 112.539C374.919 112.539 378.868 110.449 381.519 116.182C381.53 116.182 380.188 107.039 383.323 101.645Z" fill="white"/>
<g opacity="0.2">
<path d="M383.026 99.3799C382.666 98.1176 382.164 96.9061 381.53 95.7719L382.817 93.7285L387.217 93.8336C386.438 96.1243 384.963 98.0753 383.026 99.3799Z" fill="black"/>
</g>
<path d="M391.001 74.3566C391.694 83.6044 392.167 87.4927 388.515 92.8288C383.015 100.862 372.389 99.7063 369.155 90.8672C366.251 82.9038 365.602 69.1255 373.401 64.2447C381.2 59.364 390.308 65.1205 391.001 74.3566Z" fill="#B55B52"/>
<path d="M374.27 62.5053C374.27 62.5053 372.444 70.3869 376.822 72.3602C381.2 74.3336 387.173 71.6246 387.173 77.6264C387.173 81.0126 392.178 79.9617 391.87 76.844C391.562 73.7264 393.641 67.7714 387.47 64.537C383.333 62.5738 378.763 61.8704 374.27 62.5053Z" fill="#263238"/>
<path d="M386.931 81.841C386.458 81.8259 385.995 81.6939 385.578 81.4557C382.63 79.9027 382.223 71.9744 382.212 71.6357H382.773C382.773 71.7175 383.169 79.5524 385.831 80.977C386.09 81.1494 386.384 81.2532 386.688 81.2796C386.992 81.3061 387.298 81.2543 387.58 81.1288C388.559 80.5916 388.823 78.8985 388.823 78.8868L389.373 78.9803C389.304 79.5132 389.132 80.0255 388.869 80.4854C388.606 80.9453 388.257 81.3431 387.844 81.6542C387.558 81.7917 387.245 81.8557 386.931 81.841Z" fill="#263238"/>
<path d="M374.699 65.0846C374.699 65.0846 369.87 73.2581 366.526 71.3315C363.182 69.4049 371.146 60.2271 374.226 62.5041C377.306 64.781 374.699 65.0846 374.699 65.0846Z" fill="#263238"/>
<path d="M372.785 88.6027C372.785 88.6027 377.02 86.571 377.955 84.6094C377.955 84.6094 378.582 88.1123 376.36 89.4084C375.778 89.7755 375.087 89.8964 374.424 89.7471C373.762 89.5978 373.176 89.1893 372.785 88.6027Z" fill="white"/>
<path d="M376.162 78.4549C376.261 79.2022 375.964 79.8561 375.502 79.9262C375.04 79.9962 374.6 79.4474 374.501 78.7585C374.402 78.0696 374.688 77.3573 375.15 77.2873C375.612 77.2172 376.063 77.766 376.162 78.5133" fill="#263238"/>
<path d="M369.1 79.7165C369.199 80.4637 368.902 81.1176 368.451 81.1877C368 81.2577 367.538 80.709 367.439 79.9617C367.34 79.2144 367.626 78.5605 368.088 78.4904C368.55 78.4204 369.001 78.9692 369.1 79.6581" fill="#263238"/>
<path d="M368.297 78.5016L366.548 78.2334C366.548 78.2334 367.593 79.5042 368.297 78.5016Z" fill="#263238"/>
<path d="M372.158 79.5654C372.158 79.5654 371.212 81.7139 370.123 83.6289C370.044 83.7751 369.996 83.9376 369.982 84.1053C369.968 84.2731 369.989 84.442 370.042 84.6006C370.095 84.7593 370.18 84.9037 370.291 85.0242C370.402 85.1447 370.536 85.2383 370.684 85.2986C371.428 85.541 372.196 85.6938 372.972 85.754L372.158 79.5654Z" fill="#A02724"/>
<path d="M394.906 80.2538C394.689 81.0649 394.312 81.8177 393.8 82.462C393.288 83.1063 392.652 83.6273 391.936 83.9903C390.099 84.8427 388.845 82.7526 389.087 80.4056C389.307 78.2922 390.517 75.303 392.497 75.4548C394.477 75.6066 395.533 78.117 394.906 80.2538Z" fill="#B55B52"/>
<path d="M391.595 82.2852H391.232V86.5821H391.595V82.2852Z" fill="white"/>
<path d="M391.474 88.8939C392.288 88.8939 392.948 88.1934 392.948 87.3293C392.948 86.4652 392.288 85.7646 391.474 85.7646C390.66 85.7646 390 86.4652 390 87.3293C390 88.1934 390.66 88.8939 391.474 88.8939Z" fill="white"/>
<path d="M378.197 76.5058C378.14 76.4981 378.084 76.4774 378.035 76.4452C377.986 76.413 377.943 76.3699 377.911 76.319C377.633 75.8485 377.254 75.4549 376.804 75.1707C376.355 74.8865 375.848 74.7197 375.326 74.6843C375.217 74.6843 375.112 74.6392 375.034 74.5585C374.956 74.4778 374.911 74.3679 374.908 74.2523C374.907 74.194 374.916 74.136 374.936 74.0815C374.955 74.0271 374.985 73.9773 375.023 73.935C375.061 73.8928 375.106 73.8588 375.156 73.8351C375.206 73.8114 375.26 73.7984 375.315 73.7969C375.978 73.8295 376.625 74.0311 377.199 74.3847C377.773 74.7384 378.259 75.2336 378.615 75.8286C378.646 75.8759 378.668 75.9293 378.679 75.9857C378.69 76.042 378.691 76.1002 378.681 76.1568C378.67 76.2133 378.65 76.2672 378.619 76.3151C378.589 76.363 378.55 76.404 378.505 76.4358C378.463 76.4696 378.415 76.4933 378.364 76.5054C378.313 76.5175 378.259 76.5176 378.208 76.5058" fill="#263238"/>
<path d="M366.262 76.8322C366.209 76.8393 366.155 76.8347 366.104 76.8186C366.053 76.8025 366.006 76.7753 365.965 76.7388C365.88 76.6655 365.825 76.5595 365.813 76.4437C365.8 76.3279 365.831 76.2116 365.899 76.1199C366.302 75.563 366.825 75.1165 367.424 74.8179C368.023 74.5193 368.681 74.3772 369.342 74.4035C369.402 74.4009 369.461 74.4119 369.516 74.4357C369.571 74.4595 369.621 74.4956 369.662 74.5415C369.703 74.5874 369.734 74.642 369.754 74.7018C369.773 74.7616 369.781 74.8251 369.775 74.888C369.77 74.951 369.751 75.012 369.722 75.0669C369.692 75.1218 369.652 75.1694 369.604 75.2065C369.555 75.2435 369.5 75.2692 369.442 75.2817C369.383 75.2943 369.323 75.2934 369.265 75.2792C368.742 75.2706 368.223 75.3917 367.752 75.6329C367.28 75.8741 366.868 76.2288 366.548 76.6687C366.517 76.7191 366.474 76.7604 366.425 76.7889C366.375 76.8175 366.319 76.8323 366.262 76.8322Z" fill="#263238"/>
<path d="M375.359 77.2408L373.599 76.9727C373.599 76.9727 374.699 78.2435 375.359 77.2408Z" fill="#263238"/>
<path d="M419.854 109.282C419.854 109.282 434.979 152.905 432.559 167.185C428.577 190.69 378.736 159.199 377.779 154.738L382.234 147.954C382.234 147.954 414.486 160.413 416.257 159.222C418.028 158.031 406.082 124.531 406.082 124.531C406.082 124.531 407.831 104.284 419.854 109.282Z" fill="#407BFF"/>
<path opacity="0.2" d="M432.405 163.6C430.166 164.346 428.233 165.881 426.927 167.951C425.621 170.021 425.019 172.503 425.222 174.985C425.222 175.534 424.463 175.651 424.419 175.102C424.195 172.43 424.836 169.757 426.236 167.524C427.636 165.291 429.711 163.631 432.119 162.818C432.603 162.643 432.922 163.437 432.427 163.6H432.405Z" fill="black"/>
<path d="M383.532 149.32C383.532 149.32 378.879 136.301 377.79 135.203C376.701 134.106 364.513 134.152 363.259 133.814C362.005 133.475 362.698 135.881 364.92 136.208C367.142 136.534 371.19 137.644 371.19 137.644C371.19 137.644 367.428 137.363 366.713 138.274C365.998 139.185 362.852 145.724 363.721 148.783C364.59 151.842 368.121 152.029 369.221 152.286C370.321 152.543 369.221 149.332 369.221 149.332C370.156 149.755 371.146 150.023 372.158 150.126C373.896 150.336 376.162 153.874 377.878 154.68C381.134 156.326 385.028 150.231 383.532 149.32Z" fill="#B55B52"/>
<path d="M374.226 138.111C373.267 137.907 372.287 137.836 371.311 137.901C370.948 137.901 370.882 137.329 371.245 137.305C372.276 137.229 373.312 137.299 374.325 137.515C374.394 137.535 374.453 137.582 374.491 137.646C374.53 137.71 374.544 137.786 374.532 137.861C374.519 137.936 374.481 138.003 374.424 138.049C374.368 138.095 374.297 138.117 374.226 138.111Z" fill="#994731"/>
<path d="M371.256 140.808C369.584 140.212 367.736 139.64 366.064 140.539C365.745 140.714 365.415 140.224 365.734 140.049C367.615 138.986 369.595 139.582 371.498 140.259C371.839 140.376 371.597 140.925 371.256 140.808Z" fill="#994731"/>
<path d="M369.683 143.482C368.934 143.094 368.107 142.908 367.274 142.941C366.441 142.973 365.629 143.223 364.909 143.668C364.601 143.867 364.271 143.377 364.59 143.178C365.389 142.672 366.293 142.384 367.223 142.342C368.152 142.299 369.077 142.502 369.914 142.933C369.972 142.972 370.015 143.032 370.035 143.102C370.055 143.172 370.051 143.247 370.023 143.314C369.995 143.38 369.945 143.434 369.882 143.465C369.82 143.496 369.749 143.502 369.683 143.482Z" fill="#994731"/>
<path d="M369.133 149.752C368.587 149.425 368.11 148.983 367.731 148.453C367.353 147.923 367.081 147.315 366.933 146.669C366.856 146.295 367.384 146.085 367.472 146.459C367.588 147.027 367.813 147.564 368.133 148.036C368.452 148.508 368.86 148.905 369.331 149.203C369.65 149.39 369.408 149.939 369.1 149.752H369.133Z" fill="#994731"/>
<path d="M367.538 148.315C367.249 148.207 366.936 148.194 366.64 148.277C366.344 148.361 366.078 148.536 365.877 148.782C365.635 149.074 365.206 148.689 365.448 148.397C365.73 148.052 366.104 147.807 366.521 147.694C366.938 147.582 367.377 147.607 367.78 147.766C368.121 147.906 367.879 148.455 367.538 148.315Z" fill="#994731"/>
<path d="M368.231 85.7071C367.857 85.6727 367.495 85.55 367.171 85.3479C366.848 85.1459 366.571 84.8697 366.361 84.5395C365.673 83.6111 365.226 82.5083 365.063 81.3401C364.656 78.7129 365.536 76.3542 367.021 76.0973C368.506 75.8404 370.068 77.7554 370.475 80.3826C370.685 81.5526 370.602 82.7607 370.233 83.8856C370.12 84.3157 369.901 84.7064 369.6 85.0181C369.299 85.3298 368.925 85.5513 368.517 85.6604L368.231 85.7071ZM367.307 76.3659H367.076C365.734 76.5994 364.953 78.7946 365.338 81.2584C365.488 82.3788 365.913 83.4377 366.57 84.3293C366.779 84.6538 367.065 84.9142 367.399 85.0843C367.733 85.2544 368.104 85.3282 368.473 85.2984C368.832 85.2011 369.16 85.0036 369.423 84.7264C369.686 84.4493 369.875 84.1025 369.969 83.7221C370.317 82.6571 370.397 81.5138 370.2 80.406C369.815 78.1641 368.55 76.4243 367.285 76.4243L367.307 76.3659Z" fill="white"/>
<path d="M375.799 84.3528C374.391 84.3528 373.005 82.5079 372.62 80.0442C372.235 77.5804 373.093 75.0583 374.578 74.8014C376.063 74.5445 377.625 76.4595 378.032 79.0867C378.243 80.2567 378.159 81.4648 377.79 82.5897C377.675 83.0187 377.456 83.4082 377.155 83.7196C376.854 84.0309 376.481 84.2533 376.074 84.3645L375.799 84.3528ZM374.864 75.0116H374.633C373.291 75.2451 372.51 77.4403 372.895 79.9041C373.28 82.3678 374.71 84.1777 376.03 83.9441C376.389 83.8468 376.717 83.6493 376.98 83.3722C377.243 83.095 377.432 82.7483 377.526 82.3678C377.88 81.3039 377.959 80.1592 377.757 79.0517C377.394 76.8098 376.129 75.07 374.831 75.07L374.864 75.0116Z" fill="white"/>
<path d="M365.272 81.4786L365.085 81.2568C365.668 80.7593 366.384 80.4693 367.131 80.4277V80.7313C366.455 80.7768 365.807 81.0372 365.272 81.4786Z" fill="white"/>
<path d="M370.244 79.9268L370.024 79.7517C370.334 79.3169 370.785 79.0208 371.29 78.9214C371.795 78.822 372.316 78.9266 372.752 79.2146L372.609 79.4714C372.233 79.2177 371.781 79.1236 371.343 79.208C370.904 79.2924 370.512 79.5491 370.244 79.9268Z" fill="white"/>
<path d="M377.867 78.7117L377.735 78.4432C377.79 78.4432 383.774 75.0453 390.022 76.1896V76.4932C383.829 75.3606 377.922 78.6767 377.867 78.7117Z" fill="white"/>
<path d="M163.631 392.868L150.288 393.931L125.406 333.516L113.262 301.394L144.524 286.227L148.308 308.762L148.418 309.136L163.631 392.868Z" fill="#263238"/>
<path d="M151.344 390.989L156.14 404.371H162.773L161.332 390.989H151.344Z" fill="#B55B52"/>
<path d="M165.699 397.329L165.138 390.498H147.373L149.034 397.329H165.699Z" fill="#263238"/>
<path d="M183.244 413.839C182.32 409.483 180.34 408.176 178.107 408.001C175.874 407.825 167.107 404.906 167.107 404.906C167.107 404.906 165.017 402.139 163.422 401.578C162.899 401.46 162.355 401.499 161.852 401.69C161.348 401.882 160.905 402.22 160.573 402.664L156.349 402.116C156.349 402.116 154.853 400.142 154.149 401.87C153.412 403.867 153.654 412.461 153.698 413.815L183.244 413.839Z" fill="#407BFF"/>
<path d="M182.551 412.707H177.381L154.765 412.59C154.707 412.59 154.651 412.565 154.609 412.522C154.568 412.478 154.545 412.418 154.545 412.356C154.545 412.295 154.568 412.235 154.609 412.191C154.651 412.148 154.707 412.123 154.765 412.123H156.305C156.298 412.104 156.298 412.083 156.305 412.065C157.405 409.542 156.118 406.997 153.94 405.724C153.687 405.584 153.94 405.175 154.16 405.327C155.323 405.9 156.238 406.921 156.718 408.183C157.198 409.445 157.208 410.854 156.745 412.123H159.935L182.551 412.251C182.6 412.263 182.643 412.292 182.674 412.333C182.705 412.375 182.722 412.426 182.722 412.479C182.722 412.532 182.705 412.583 182.674 412.625C182.643 412.666 182.6 412.695 182.551 412.707Z" fill="black"/>
<path d="M166.128 406.822C166.329 406.469 166.597 406.166 166.917 405.932C167.236 405.698 167.599 405.539 167.98 405.465C168.362 405.391 168.754 405.404 169.131 405.503C169.507 405.602 169.86 405.785 170.165 406.039C170.396 406.214 170.616 405.817 170.385 405.642C170.03 405.356 169.622 405.153 169.188 405.045C168.754 404.938 168.303 404.928 167.865 405.018C167.428 405.107 167.013 405.293 166.647 405.563C166.281 405.834 165.973 406.183 165.743 406.588C165.578 406.822 165.963 407.055 166.128 406.822Z" fill="white"/>
<path d="M168.559 407.604C168.761 407.251 169.031 406.947 169.351 406.713C169.671 406.479 170.035 406.32 170.417 406.246C170.8 406.172 171.193 406.185 171.57 406.284C171.948 406.384 172.301 406.566 172.607 406.821C172.827 406.996 173.047 406.599 172.827 406.424C172.473 406.138 172.065 405.934 171.632 405.825C171.198 405.717 170.748 405.706 170.31 405.794C169.873 405.882 169.457 406.067 169.091 406.337C168.725 406.606 168.416 406.954 168.185 407.358C168.02 407.604 168.405 407.837 168.559 407.604Z" fill="white"/>
<path d="M171.078 408.374C171.282 408.023 171.553 407.722 171.874 407.491C172.195 407.259 172.558 407.101 172.94 407.029C173.322 406.956 173.714 406.97 174.091 407.069C174.467 407.167 174.82 407.35 175.126 407.603C175.346 407.778 175.566 407.381 175.346 407.194C174.99 406.91 174.582 406.709 174.148 406.602C173.715 406.495 173.265 406.486 172.828 406.575C172.39 406.664 171.975 406.85 171.61 407.119C171.244 407.389 170.935 407.736 170.704 408.14C170.539 408.385 170.913 408.619 171.078 408.374Z" fill="white"/>
<path d="M121.743 342.437L123.998 358.503L124.79 364.295L131.5 412.869H127.474L117.827 364.295L116.683 358.503L113.493 342.437H121.743Z" fill="#407BFF"/>
<path d="M106.002 342.437L108.246 358.503L109.049 364.295L115.759 412.869H111.722L102.075 364.295L100.931 358.503L97.7408 342.437H106.002Z" fill="#407BFF"/>
<g opacity="0.2">
<path d="M106.002 342.437L108.246 358.503L109.049 364.295L115.759 412.869H111.722L102.075 364.295L100.931 358.503L97.7407 342.437H106.002Z" fill="black"/>
</g>
<path d="M31.0701 330.235L25.4601 358.504L24.3161 364.296L14.6691 412.87H10.6321L17.3531 364.296L18.1451 358.504L22.1051 330.235H31.0701Z" fill="#407BFF"/>
<path d="M46.8221 330.235L41.2122 358.504L40.0572 364.296L30.4212 412.87H26.3842L33.0942 364.296L33.8971 358.504L37.8572 330.235H46.8221Z" fill="#407BFF"/>
<g opacity="0.2">
<path d="M46.8223 330.235L41.2123 358.504L40.0573 364.296L30.4213 412.87H26.3843L33.0943 364.296L33.8973 358.504L37.8573 330.235H46.8223Z" fill="black"/>
</g>
<path d="M22.0389 342.659H121.974L119.983 334.334C116.683 320.38 107.245 310.98 96.6629 310.98H14.4379L22.0389 342.659Z" fill="#407BFF"/>
<path d="M8.93812 288.993L18.4091 326.358L113.68 326.475L107.806 303.273C103.89 287.79 90.9541 276.417 75.9061 276.137H75.8181C74.7181 271.665 63.9381 229.431 39.7711 230.202C14.2511 231.008 19.7841 276.137 19.7841 276.137H15.4721C10.7311 276.172 7.35412 282.734 8.93812 288.993Z" fill="#407BFF"/>
<g opacity="0.2">
<path d="M8.93812 288.993L18.4091 326.358L113.68 326.475L107.806 303.273C103.89 287.79 90.9541 276.417 75.9061 276.137H75.8181C74.7181 271.665 63.9381 229.431 39.7711 230.202C14.2511 231.008 19.7841 276.137 19.7841 276.137H15.4721C10.7311 276.172 7.35412 282.734 8.93812 288.993Z" fill="black"/>
</g>
<path d="M55.5339 227.132C55.5339 227.132 58.2399 263.201 62.5519 274.738C72.4519 301.208 89.7109 268.736 89.7109 268.736L78.2819 251.35L74.9819 224.61L55.5339 227.132Z" fill="#FF8B7B"/>
<path d="M77.6439 251.139L73.5739 252.049C73.4644 252.076 73.3694 252.147 73.3096 252.248C73.2497 252.349 73.2301 252.47 73.2548 252.587C73.2796 252.703 73.3469 252.804 73.4418 252.867C73.5367 252.931 73.6515 252.952 73.7609 252.925L77.8309 252.073C77.9403 252.048 78.0359 251.978 78.0968 251.878C78.1576 251.779 78.1787 251.658 78.1554 251.542C78.132 251.425 78.0662 251.324 77.9723 251.259C77.8784 251.195 77.7643 251.172 77.6548 251.197L77.6439 251.139Z" fill="#742823"/>
<path d="M103.34 219.541C103.34 219.541 114.494 254.104 118.454 262.744C122.414 271.385 106.695 276.511 97.1358 273.685C87.5768 270.859 89.0838 228.147 89.0838 228.147L103.34 219.541Z" fill="#FF8B7B"/>
<path d="M81.538 182.342C81.538 182.342 68.811 214.767 75.543 235.423L107.443 226.175C107.443 226.175 107.597 210.996 103.67 198.911C97.532 179.936 81.538 182.342 81.538 182.342Z" fill="#407BFF"/>
<path d="M31.8399 295.474C25.2399 290.803 25.0749 270.638 26.3399 252.271C26.4059 247.6 26.5929 242.287 26.9669 236.613C27.3409 230.938 27.9239 224.936 28.7819 218.771C29.9871 209.673 31.8778 200.692 34.4359 191.915C36.1409 186.194 44.9959 180.238 53.0259 177.354C58.6183 175.571 64.4928 175.007 70.2959 175.696C74.5852 176.828 78.8151 178.2 82.9679 179.806C93.4729 183.765 100.128 189.229 99.4679 192.312C99.0939 193.993 99.4679 203.043 97.4989 214.054C96.4539 219.997 95.7829 226.419 94.8479 232.876C94.8479 232.876 94.8479 232.935 94.8479 232.993C94.8479 233.051 94.8479 233.507 94.7929 233.985C94.5179 239.298 93.8909 262.173 101.976 277.936C114.131 301.581 41.2779 302.281 31.8399 295.474Z" fill="#407BFF"/>
<g opacity="0.2">
<path d="M31.8399 295.474C25.2399 290.803 25.0749 270.638 26.3399 252.271C26.4059 247.6 26.5929 242.287 26.9669 236.613C27.3409 230.938 27.9239 224.936 28.7819 218.771C29.9871 209.673 31.8778 200.692 34.4359 191.915C36.1409 186.194 44.9959 180.238 53.0259 177.354C58.6183 175.571 64.4928 175.007 70.2959 175.696C74.5852 176.828 78.8151 178.2 82.9679 179.806C93.4729 183.765 100.128 189.229 99.4679 192.312C99.0939 193.993 99.4679 203.043 97.4989 214.054C96.4539 219.997 95.7829 226.419 94.8479 232.876C94.8479 232.876 94.8479 232.935 94.8479 232.993C94.8479 233.051 94.8479 233.507 94.7929 233.985C94.5179 239.298 93.8909 262.173 101.976 277.936C114.131 301.581 41.2779 302.281 31.8399 295.474Z" fill="white"/>
</g>
<path d="M81.516 196.727C81.1811 196.721 80.8468 196.694 80.515 196.645C70.681 195.186 62.431 175.627 62.354 175.441C62.3467 175.424 62.3425 175.406 62.3419 175.387C62.3412 175.368 62.3441 175.35 62.3502 175.333C62.3563 175.315 62.3657 175.299 62.3777 175.286C62.3896 175.272 62.404 175.261 62.42 175.254C62.4537 175.238 62.4919 175.236 62.5268 175.249C62.5617 175.262 62.5904 175.289 62.607 175.324C62.684 175.522 70.868 194.929 80.559 196.342C82.231 196.587 83.386 196.225 83.991 195.267C86.455 191.309 79.327 178.57 79.25 178.442C79.2276 178.414 79.2152 178.379 79.2152 178.342C79.2152 178.306 79.2276 178.271 79.25 178.243C79.2623 178.23 79.2768 178.22 79.2929 178.213C79.3089 178.205 79.3261 178.202 79.3435 178.202C79.3609 178.202 79.3781 178.205 79.3941 178.213C79.4102 178.22 79.4247 178.23 79.437 178.243C79.734 178.78 86.73 191.274 84.167 195.384C83.869 195.829 83.4692 196.185 83.0053 196.42C82.5415 196.655 82.029 196.761 81.516 196.727Z" fill="white"/>
<path d="M100.381 394.117L87.4447 393.358L106.585 320.344C106.585 320.344 104 320.881 99.8527 321.594C85.8167 323.929 53.8397 328.238 43.1147 319.784C27.7147 307.594 28.8147 291.375 28.8147 291.375C28.8147 291.375 151.058 253.415 154.215 289.997C155.634 306.414 100.381 394.117 100.381 394.117Z" fill="#263238"/>
<path d="M89.051 391.455L87.731 404.369H94.353L99.028 391.455H89.051Z" fill="#B55B52"/>
<path d="M85.2231 397.329L85.7951 390.498H103.549L101.888 397.329H85.2231Z" fill="#263238"/>
<path d="M116.133 413.839C115.209 409.483 113.24 408.176 110.996 408.001C108.752 407.825 99.9961 404.906 99.9961 404.906C99.9961 404.906 97.9171 402.139 96.3221 401.578C95.7991 401.46 95.2553 401.499 94.7519 401.69C94.2485 401.882 93.8056 402.22 93.4732 402.664L89.2382 402.116C89.2382 402.116 87.7532 400.142 87.1042 401.87C86.3562 403.867 86.6091 412.461 86.6531 413.815L116.133 413.839Z" fill="#407BFF"/>
<path d="M115.451 412.707H110.281L87.6542 412.59C87.5958 412.59 87.5399 412.565 87.4986 412.522C87.4574 412.478 87.4342 412.418 87.4342 412.356C87.4342 412.295 87.4574 412.235 87.4986 412.191C87.5399 412.148 87.5958 412.123 87.6542 412.123H89.1832C89.1773 412.104 89.1773 412.084 89.1832 412.065C90.2832 409.542 88.9852 406.997 86.8072 405.724C86.5542 405.584 86.8072 405.175 87.0272 405.327C88.1906 405.9 89.1058 406.92 89.5877 408.182C90.0696 409.443 90.0823 410.852 89.6232 412.123H92.8132L115.429 412.251C115.479 412.26 115.524 412.287 115.557 412.326C115.59 412.366 115.61 412.417 115.612 412.47C115.615 412.523 115.6 412.575 115.571 412.618C115.542 412.661 115.499 412.693 115.451 412.707Z" fill="black"/>
<path d="M99.0167 406.822C99.2184 406.469 99.4884 406.166 99.8087 405.932C100.129 405.698 100.492 405.539 100.875 405.465C101.258 405.391 101.65 405.404 102.028 405.503C102.405 405.602 102.759 405.785 103.065 406.04C103.285 406.215 103.505 405.818 103.285 405.643C102.93 405.355 102.522 405.15 102.088 405.042C101.654 404.933 101.202 404.923 100.764 405.012C100.326 405.102 99.9104 405.288 99.5448 405.56C99.1792 405.832 98.8718 406.182 98.6427 406.589C98.4777 406.822 98.8517 407.056 99.0167 406.822Z" fill="white"/>
<path d="M101.459 407.604C101.66 407.251 101.929 406.948 102.248 406.714C102.567 406.48 102.93 406.321 103.312 406.247C103.693 406.173 104.085 406.186 104.462 406.285C104.839 406.384 105.191 406.567 105.496 406.821C105.727 406.996 105.947 406.599 105.716 406.424C105.362 406.138 104.954 405.934 104.521 405.825C104.087 405.717 103.637 405.706 103.199 405.794C102.761 405.882 102.346 406.067 101.98 406.337C101.614 406.606 101.305 406.954 101.074 407.358C100.909 407.604 101.294 407.837 101.459 407.604Z" fill="white"/>
<path d="M103.978 408.374C104.18 408.022 104.449 407.72 104.769 407.487C105.089 407.254 105.452 407.096 105.833 407.024C106.215 406.951 106.607 406.965 106.983 407.065C107.359 407.165 107.711 407.348 108.015 407.603C108.246 407.778 108.455 407.381 108.235 407.194C107.879 406.91 107.471 406.709 107.038 406.602C106.604 406.495 106.154 406.486 105.717 406.575C105.279 406.664 104.865 406.85 104.499 407.119C104.133 407.389 103.825 407.736 103.593 408.14C103.428 408.385 103.813 408.619 103.978 408.374Z" fill="white"/>
<path opacity="0.2" d="M115.352 298.312L106.552 320.369C106.552 320.369 103.967 320.907 99.8199 321.619C105.012 313.574 114.923 298.908 115.352 298.312Z" fill="black"/>
<path d="M53.4988 216.132C53.4988 216.132 49.3628 253.497 51.6618 258.658C53.9608 263.819 99.8308 267.053 99.8308 267.053L102.031 269.774C102.031 269.774 54.0378 284.066 36.8998 269.867C26.7908 261.507 28.8808 212.057 28.8808 212.057L53.4988 216.132Z" fill="#FF8B7B"/>
<path d="M34.9968 190.619C29.2218 199.505 26.8128 214.707 25.7458 228.918L56.9308 227.084C56.9308 227.084 60.3628 212.372 59.1308 199.633C58.3828 191.588 54.6319 187.781 50.4189 186.1C43.7309 183.391 39.0998 184.348 34.9968 190.619Z" fill="#407BFF"/>
<path d="M71.946 277.854H150.365L152.598 269.879H74.179L71.946 277.854Z" fill="#407BFF"/>
<g opacity="0.5">
<path d="M71.946 277.854H150.365L152.598 269.879H74.179L71.946 277.854Z" fill="white"/>
</g>
<path d="M101.569 273.734H145.404C146.155 273.739 146.888 273.48 147.485 272.996C148.082 272.512 148.511 271.831 148.704 271.06L157.504 235.902C157.637 235.366 157.653 234.806 157.549 234.263C157.446 233.72 157.226 233.21 156.907 232.772C156.588 232.334 156.178 231.98 155.709 231.737C155.241 231.494 154.726 231.369 154.204 231.371H109.731C108.752 231.367 107.8 231.709 107.025 232.343C106.25 232.978 105.697 233.868 105.452 234.874L97.2459 267.837C97.0665 268.536 97.043 269.271 97.1772 269.981C97.3114 270.692 97.5996 271.36 98.019 271.932C98.4384 272.504 98.9776 272.965 99.5937 273.278C100.21 273.59 100.886 273.746 101.569 273.734Z" fill="#407BFF"/>
<g opacity="0.5">
<path d="M101.569 273.734H145.404C146.156 273.739 146.888 273.48 147.485 272.996C148.082 272.512 148.511 271.831 148.704 271.06L157.504 235.902C157.637 235.366 157.653 234.806 157.549 234.263C157.446 233.72 157.226 233.21 156.907 232.772C156.588 232.334 156.178 231.98 155.709 231.737C155.241 231.494 154.726 231.369 154.204 231.371H109.731C108.752 231.367 107.8 231.709 107.025 232.343C106.25 232.978 105.697 233.868 105.452 234.874L97.246 267.837C97.0667 268.536 97.0431 269.271 97.1773 269.981C97.3115 270.692 97.5997 271.36 98.0191 271.932C98.4386 272.504 98.9777 272.965 99.5938 273.278C100.21 273.59 100.886 273.746 101.569 273.734Z" fill="white"/>
</g>
<path d="M105.177 273.734H149.012C149.763 273.739 150.496 273.48 151.093 272.996C151.69 272.512 152.119 271.831 152.312 271.06L161.112 235.902C161.245 235.366 161.261 234.806 161.157 234.263C161.054 233.72 160.834 233.21 160.515 232.772C160.196 232.334 159.786 231.98 159.317 231.737C158.849 231.494 158.334 231.369 157.812 231.371H113.383C112.404 231.367 111.452 231.709 110.677 232.343C109.902 232.978 109.349 233.868 109.104 234.874L100.931 267.837C100.753 268.53 100.729 269.257 100.859 269.961C100.989 270.666 101.27 271.329 101.681 271.899C102.092 272.47 102.621 272.932 103.227 273.25C103.833 273.568 104.501 273.734 105.177 273.734Z" fill="#407BFF"/>
<g opacity="0.8">
<path d="M105.177 273.734H149.012C149.763 273.739 150.496 273.48 151.093 272.996C151.69 272.512 152.119 271.831 152.312 271.06L161.112 235.902C161.245 235.366 161.261 234.806 161.157 234.263C161.054 233.72 160.834 233.21 160.515 232.772C160.196 232.334 159.786 231.98 159.317 231.737C158.849 231.494 158.334 231.369 157.812 231.371H113.383C112.404 231.367 111.452 231.709 110.677 232.343C109.902 232.978 109.349 233.868 109.104 234.874L100.931 267.837C100.753 268.53 100.729 269.257 100.859 269.961C100.989 270.666 101.27 271.329 101.681 271.899C102.092 272.47 102.621 272.932 103.227 273.25C103.833 273.568 104.501 273.734 105.177 273.734Z" fill="white"/>
</g>
<path d="M127.221 252.936C127.076 253.554 127.067 254.199 127.194 254.821C127.32 255.443 127.579 256.026 127.951 256.525C128.322 257.024 128.797 257.427 129.338 257.701C129.878 257.976 130.471 258.115 131.071 258.109C132.401 258.027 133.667 257.472 134.665 256.534C135.662 255.596 136.334 254.329 136.571 252.936C136.715 252.318 136.724 251.673 136.598 251.051C136.471 250.428 136.212 249.844 135.841 249.344C135.469 248.844 134.995 248.441 134.454 248.165C133.914 247.889 133.321 247.748 132.721 247.752C131.389 247.837 130.123 248.394 129.126 249.334C128.128 250.274 127.458 251.543 127.221 252.936Z" fill="#407BFF"/>
<g opacity="0.5">
<path d="M127.221 252.936C127.076 253.554 127.067 254.199 127.194 254.821C127.32 255.443 127.579 256.026 127.951 256.525C128.323 257.024 128.797 257.427 129.338 257.701C129.879 257.976 130.471 258.115 131.071 258.109C132.401 258.027 133.667 257.472 134.665 256.534C135.662 255.596 136.334 254.329 136.571 252.936C136.715 252.318 136.724 251.673 136.598 251.051C136.471 250.428 136.212 249.844 135.841 249.344C135.469 248.844 134.995 248.441 134.455 248.165C133.914 247.889 133.321 247.748 132.721 247.752C131.389 247.837 130.123 248.394 129.126 249.334C128.129 250.274 127.458 251.543 127.221 252.936Z" fill="white"/>
</g>
<path d="M100.557 145.36C100.128 146.645 98.3566 146.937 98.3566 146.937C98.3566 146.937 100.029 149.167 99.1926 149.914C98.3566 150.662 96.5416 149.914 96.5416 149.914C96.7456 150.258 96.8794 150.644 96.9343 151.046C96.9893 151.448 96.9642 151.858 96.8606 152.25C96.4756 153.546 95.9806 153.055 95.9806 153.055L69.1846 148.49C69.6584 146.276 69.6584 143.978 69.1846 141.764C68.3376 138.693 67.1826 134.49 68.5796 133.742C69.9766 132.995 70.6476 133.742 70.6476 133.742C70.6476 133.742 70.5376 130.59 71.9786 130.333C72.3574 130.25 72.7481 130.252 73.1265 130.336C73.5049 130.42 73.863 130.586 74.1786 130.823C74.1786 130.823 74.3546 128.605 75.6636 128.406C76.0406 128.368 76.4182 128.471 76.7314 128.697C77.0446 128.923 77.2738 129.258 77.3796 129.644C77.3796 129.644 78.8866 127.46 80.3716 127.425C81.8566 127.39 82.0546 129.188 82.0546 129.188C82.0546 129.188 84.4306 127.133 85.5306 127.939C86.2236 128.541 86.7548 129.327 87.0706 130.216C87.0706 130.216 89.3806 127.694 90.3706 129.048C90.9932 129.969 91.3384 131.068 91.3606 132.201C91.3606 132.201 94.3416 129.866 95.1336 131.325C95.6021 132.334 95.7525 133.476 95.5626 134.583C95.5626 134.583 98.1146 133.1 98.8626 134.98C99.0633 135.565 99.1181 136.195 99.0217 136.808C98.9253 137.422 98.681 137.999 98.3126 138.483C98.3126 138.483 100.689 138.787 100.601 140.269C100.513 141.752 98.4006 143.06 98.4006 143.06C98.4006 143.06 100.931 144.064 100.557 145.36Z" fill="#263238"/>
<path d="M80.658 173.49V173.584L78.788 177.881C78.5395 178.768 78.3737 179.679 78.293 180.601C78.2201 181.346 78.2017 182.095 78.238 182.843C78.953 184.384 78.876 187.514 75.554 186.942C71.363 186.183 64.752 178.231 64.807 176.211C67.755 170.501 70.571 163.694 71.22 157.832L75.092 164.219L80.658 173.49Z" fill="#FF8B7B"/>
<g opacity="0.2">
<path d="M80.6031 173.594L78.7331 177.891C76.3131 176.128 74.0361 172.87 73.8931 169.788C73.8161 167.569 75.0591 165.748 75.8841 165.783L80.6031 173.594Z" fill="black"/>
</g>
<path d="M72.0998 146.844C72.5903 144.691 73.5884 142.705 75.0004 141.074C76.4123 139.443 78.1918 138.22 80.1716 137.519C82.1514 136.819 84.2665 136.664 86.3181 137.07C88.3697 137.475 90.2904 138.428 91.8998 139.838C99.2478 146.26 96.4428 159.151 91.4378 168.948C87.0378 177.577 75.6418 175.522 71.1868 166.297C68.2278 160.179 69.8888 156.209 72.0448 146.902" fill="#FF8B7B"/>
<path d="M87.7307 165.912C87.7307 165.912 83.6717 164.744 81.7907 161.86C81.7907 161.86 81.6147 165.27 83.4297 167.185C85.2447 169.1 87.7307 165.912 87.7307 165.912Z" fill="white"/>
<path d="M71.858 147.708C71.858 147.708 74.509 148.338 74.223 150.79C73.937 153.242 73.64 153.523 73.64 153.523L76.687 154.819C76.687 154.819 77.336 145.372 79.624 145.909C81.912 146.447 80.097 141.823 81.582 141.472C85.08 140.655 94.001 142.22 96.498 148.548C96.498 148.548 96.498 142.71 92.791 138.962C89.084 135.214 80.691 132.937 76.5 136.732C72.309 140.527 71.858 147.708 71.858 147.708Z" fill="#263238"/>
<path d="M66.6109 151.713C66.5773 154.122 67.4433 156.448 69.0199 158.181C71.1209 160.517 73.6729 158.847 74.3439 155.846C74.9379 153.207 74.5749 148.84 71.8579 147.673C69.1409 146.505 66.6879 148.724 66.6109 151.678" fill="#FF8B7B"/>
<path d="M83.705 155.671C83.485 156.418 83.7051 157.142 84.1341 157.294C84.5631 157.446 85.135 156.967 85.355 156.231C85.575 155.496 85.355 154.76 84.926 154.608C84.497 154.456 83.914 154.935 83.705 155.671Z" fill="#263238"/>
<path d="M91.4049 158.123C91.1849 158.87 91.4049 159.594 91.8339 159.746C92.2629 159.898 92.8459 159.419 93.0659 158.672C93.2859 157.924 93.0659 157.2 92.6259 157.049C92.1859 156.897 91.6249 157.376 91.4049 158.123Z" fill="black"/>
<path d="M95.057 155.706C94.998 155.681 94.9454 155.642 94.9033 155.591C94.8613 155.54 94.8311 155.48 94.815 155.415C94.7775 155.149 94.69 154.894 94.5577 154.666C94.4254 154.437 94.2511 154.239 94.045 154.083C93.6005 153.831 93.0879 153.749 92.593 153.85C92.4998 153.872 92.4024 153.855 92.3206 153.803C92.2388 153.75 92.1789 153.667 92.153 153.57C92.1416 153.521 92.1394 153.471 92.1466 153.422C92.1537 153.373 92.1701 153.325 92.1947 153.283C92.2193 153.241 92.2516 153.204 92.2898 153.175C92.328 153.146 92.3712 153.125 92.417 153.114C93.1032 152.962 93.8182 153.078 94.43 153.441C94.7219 153.648 94.9703 153.916 95.1596 154.23C95.3489 154.543 95.4751 154.895 95.53 155.263C95.5413 155.311 95.543 155.362 95.535 155.411C95.5271 155.46 95.5096 155.507 95.4838 155.548C95.458 155.59 95.4244 155.626 95.385 155.653C95.3456 155.68 95.3014 155.698 95.255 155.706C95.1903 155.726 95.1218 155.726 95.057 155.706Z" fill="#263238"/>
<path d="M83.0558 151.993C82.9976 151.975 82.9447 151.941 82.9024 151.895C82.8601 151.849 82.8297 151.792 82.8142 151.729C82.7987 151.667 82.7986 151.602 82.814 151.539C82.8293 151.477 82.8596 151.42 82.9018 151.374C83.3956 150.849 84.0526 150.534 84.7498 150.486C85.0988 150.492 85.4429 150.573 85.7609 150.726C86.0788 150.879 86.3637 151.099 86.5978 151.374C86.641 151.406 86.6769 151.448 86.7032 151.497C86.7295 151.546 86.7454 151.6 86.7498 151.656C86.7543 151.712 86.7472 151.768 86.7291 151.821C86.711 151.873 86.6822 151.921 86.6448 151.961C86.6075 152 86.5624 152.031 86.5127 152.05C86.4631 152.069 86.4101 152.077 86.3574 152.072C86.3048 152.067 86.2537 152.051 86.2078 152.023C86.162 151.995 86.1224 151.957 86.0918 151.911C85.9248 151.712 85.7219 151.551 85.4952 151.436C85.2685 151.322 85.0226 151.257 84.7718 151.245C84.2616 151.284 83.7814 151.516 83.4188 151.899C83.3727 151.949 83.3142 151.985 83.25 152.001C83.1858 152.018 83.1185 152.015 83.0558 151.993Z" fill="#263238"/>
<path d="M88.9628 156.057C88.8901 157.694 89.2726 159.319 90.0628 160.727C91.3498 162.887 87.4778 163.121 87.4778 163.121L88.9628 156.057Z" fill="#BA4D3C"/>
</svg>
