<svg width="112" height="117" viewBox="0 0 112 117" fill="none" xmlns="http://www.w3.org/2000/svg">
<path d="M71.4104 50.8269L66.5053 49.0152L47.7364 48.46L43.3781 49.6455L43.9501 60.2615L53.8021 66.5442L63.3535 66.3522L69.3607 60.8793L70.6966 55.4565L71.4104 50.8269Z" fill="#FFBE9D"/>
<path d="M15.7383 67.0851C16.8994 64.666 18.2114 62.3223 19.6665 60.0677C21.9653 56.4518 25.6019 53.8929 29.7815 52.95L45.528 48.6836C45.528 48.6836 46.6009 59.3037 57.4297 59.3037C68.2586 59.3037 68.4799 49.4851 68.4799 49.4851L88.3091 56.7322C88.9353 56.9743 93.1641 58.4396 98.0818 68.9846C102.766 79.0119 104.815 84.1341 104.815 84.1341L86.1091 89.1436L84.8567 106.422L85.2742 116.065L28.2912 115.94L28.6085 104.915L28.3538 86.7224L27.1599 88.9725L9.36786 81.8339C9.36786 81.8339 11.1254 76.5823 15.7383 67.0851Z" fill="#2B4590"/>
<path d="M28.07 77.2939C27.9865 77.2939 28.0408 83.4014 28.1869 90.9281C28.333 98.4549 28.5167 104.562 28.6043 104.558C28.692 104.554 28.6377 98.4549 28.4916 90.924C28.3455 83.393 28.1535 77.2898 28.07 77.2939Z" fill="#121212"/>
<g opacity="0.3">
<path d="M83.5835 79.0732C82.6984 78.1005 81.325 77.7749 80.0351 77.5119C65.374 74.5021 50.2536 75.7753 35.4005 77.633C33.5553 77.8626 31.5223 78.2508 30.4119 79.7203C29.6062 80.7973 30.1238 82.225 30.0445 83.5651C29.6563 90.4489 30.5538 97.7837 31.9189 104.542L82.5148 103.758C84.2472 98.5142 84.6688 89.6182 84.6981 83.5776C84.7106 81.9871 84.6521 80.2421 83.5835 79.0732Z" fill="black"/>
</g>
<path d="M96.7 66.7129L96.5372 66.8591L96.0362 67.2765C95.7724 67.5064 95.4935 67.7184 95.2013 67.9111L94.6377 68.2826L94.3288 68.4871L93.9782 68.675C93.4561 68.9769 92.9151 69.2446 92.3584 69.4765C91.7009 69.7608 91.0277 70.0075 90.3421 70.2154C88.6576 70.6905 86.9158 70.9321 85.1656 70.9334C83.0401 70.9316 80.9312 70.5601 78.933 69.8355C78.7952 69.7854 78.6575 69.7437 78.5155 69.6894L78.1189 69.5141L77.3174 69.1509C77.0502 69.0298 76.7956 68.867 76.5326 68.7334C76.2696 68.5998 75.9983 68.4537 75.7478 68.2742C75.2552 67.9194 74.725 67.5938 74.2449 67.1888C73.7649 66.7839 73.2806 66.379 72.7964 65.9615C71.8407 65.0758 70.7709 64.3218 69.6153 63.7198C69.0086 63.4383 68.3691 63.2335 67.7117 63.1103C67.0381 63.005 66.3546 62.977 65.6745 63.0268C64.2731 63.1591 62.9033 63.5231 61.621 64.1038C60.2931 64.6864 59.0191 65.3849 57.8138 66.1911C55.3592 67.8109 53.0047 69.56 50.3497 70.5202C48.4227 71.26 46.3209 71.4182 44.3049 70.9752C43.666 70.8397 43.0381 70.6569 42.4263 70.4283C40.1661 69.5211 38.0442 68.3013 36.1227 66.8048C34.2817 65.4564 32.6035 64.1623 30.9462 63.1687C29.4787 62.2373 27.8702 61.5494 26.1831 61.1315C24.9094 60.8127 23.5893 60.7223 22.284 60.8644C21.4589 60.9526 20.6529 61.171 19.8961 61.5114C19.6979 61.5943 19.5042 61.6877 19.3159 61.7911L19.1155 61.8913C19.176 61.849 19.2387 61.81 19.3033 61.7744C19.4876 61.6588 19.6802 61.557 19.8794 61.4697C20.6358 61.1124 21.445 60.8797 22.2756 60.7809C23.5897 60.6241 24.9212 60.7019 26.2081 61.0105C27.9127 61.4229 29.5395 62.108 31.0256 63.0393C32.6954 64.0329 34.3652 65.3228 36.2271 66.6628C38.1382 68.1413 40.2457 69.3468 42.4889 70.2446C43.0927 70.4685 43.7122 70.6471 44.3425 70.779C44.9845 70.9202 45.6389 70.9985 46.2962 71.0128C47.654 71.0386 49.0044 70.8049 50.2745 70.324C52.8878 69.3763 55.2297 67.6397 57.6927 66.0158C58.907 65.1943 60.1923 64.4832 61.5334 63.8909C62.8369 63.3019 64.2293 62.9337 65.6537 62.8014C66.3506 62.7505 67.0511 62.7813 67.741 62.8932C68.4163 63.0176 69.0729 63.228 69.6946 63.5194C70.866 64.1316 71.9499 64.8982 72.9174 65.7987C73.4017 66.2162 73.8776 66.6336 74.3576 67.026C74.8377 67.4184 75.3554 67.7482 75.8438 68.0989C76.0901 68.2784 76.3614 68.4036 76.6161 68.5581C76.8707 68.7126 77.1254 68.8587 77.3926 68.9756L78.1857 69.3304L78.5781 69.5099C78.7076 69.5642 78.8453 69.6059 78.9956 69.6518C80.9686 70.3814 83.0537 70.7615 85.1573 70.7748C86.8946 70.7822 88.6248 70.5533 90.3004 70.0944C90.9844 69.8942 91.6563 69.6545 92.3125 69.3763C92.8667 69.1515 93.4063 68.8922 93.9281 68.5999L94.2787 68.4162L94.5918 68.2158L95.147 67.8526C95.4379 67.6658 95.7168 67.4608 95.982 67.2389L96.4954 66.8423L96.7 66.7129Z" fill="#FFFEFE"/>
<path d="M87.733 78.6487C87.6735 78.6803 87.6122 78.7082 87.5493 78.7322L86.9941 78.9618C86.2649 79.2083 85.5075 79.3612 84.7398 79.4168C83.5226 79.4798 82.3029 79.3616 81.1204 79.0662C79.5582 78.6681 78.0416 78.1085 76.5952 77.3963C74.9796 76.6324 73.2764 75.6681 71.3686 74.8039C69.4609 73.9398 67.3318 73.1341 64.9815 73.109C63.7833 73.092 62.5908 73.2768 61.454 73.6559C60.2665 74.0558 59.1168 74.5601 58.0183 75.1629C56.8829 75.7599 55.7557 76.4153 54.5701 77.0248C53.3768 77.6666 52.117 78.1762 50.813 78.5443C49.5002 78.8913 48.1387 79.0168 46.7846 78.9159C45.473 78.8127 44.1783 78.5549 42.9273 78.1478C40.5863 77.3507 38.3548 76.2623 36.2855 74.9083C34.2859 73.6559 32.4449 72.3701 30.654 71.2806C29.0162 70.2436 27.2777 69.375 25.465 68.6882C22.1253 67.4692 19.1196 67.4608 17.1952 67.92C16.4508 68.0911 15.7261 68.3387 15.0327 68.6589L14.5026 68.9345L14.3189 69.0221C14.3189 69.0221 14.3773 68.9804 14.4942 68.9136L15.016 68.6172C15.7062 68.2789 16.4313 68.0171 17.1785 67.8366C19.1113 67.3481 22.1337 67.3314 25.5276 68.5462C27.3563 69.23 29.1103 70.0986 30.7625 71.1386C32.5618 72.224 34.4069 73.5015 36.4024 74.7497C38.4641 76.0956 40.6853 77.1796 43.0149 77.9766C44.2459 78.3658 45.5179 78.611 46.8054 78.7072C48.1375 78.8041 49.4763 78.6785 50.7671 78.3356C52.0535 77.972 53.2965 77.4695 54.4741 76.8369C55.6472 76.2316 56.7785 75.5846 57.9182 74.9793C59.0298 74.3734 60.1919 73.865 61.3914 73.4597C62.5506 73.0781 63.7655 72.8933 64.9857 72.9128C67.3819 72.9629 69.5443 73.777 71.4438 74.6411C73.3432 75.5053 75.0548 76.4905 76.662 77.2628C78.0969 77.9713 79.6006 78.5309 81.1497 78.9326C82.3198 79.2349 83.528 79.3643 84.7356 79.3166C85.4981 79.2663 86.2519 79.1262 86.9815 78.8992L87.5409 78.6905C87.6662 78.6654 87.733 78.6487 87.733 78.6487Z" fill="#FFFEFE"/>
<path d="M101.083 75.4668C100.959 75.6197 100.819 75.7596 100.666 75.8843C100.524 76.0178 100.349 76.1765 100.127 76.3518C99.9061 76.5271 99.6723 76.7317 99.3843 76.9321C98.718 77.4168 98.0207 77.8575 97.297 78.2512C95.5297 79.2177 93.6205 79.8982 91.6404 80.2676C90.8354 80.4205 90.0208 80.5181 89.2025 80.5598C88.8518 80.5848 88.5345 80.5598 88.259 80.5807C87.9835 80.6015 87.7414 80.5806 87.5452 80.5598C87.3421 80.5567 87.1397 80.5371 86.9398 80.5013C87.1402 80.4718 87.3431 80.4634 87.5452 80.4763C87.7414 80.4763 87.9626 80.4763 88.2548 80.4763C88.5471 80.4763 88.8435 80.4763 89.1899 80.422C90.0001 80.3586 90.8059 80.247 91.6029 80.088C92.5783 79.8883 93.5392 79.6233 94.4791 79.2949C95.413 78.954 96.3236 78.5523 97.2051 78.0926C97.9241 77.715 98.6209 77.2969 99.2924 76.8402C99.5805 76.6482 99.8268 76.452 100.048 76.2892C100.269 76.1264 100.465 75.9761 100.607 75.8717C100.756 75.7251 100.915 75.5897 101.083 75.4668Z" fill="#FFFEFE"/>
<path d="M38.5481 28.2873C38.5481 28.2873 37.3584 29.9154 37.3792 32.8501C37.3792 34.4239 38.4605 37.6133 41.2532 37.7719C40.5143 42.2721 43.3906 45.5951 48.183 45.6035C52.9755 45.6118 58.465 37.3837 62.9068 35.5845L75.7979 32.178C76.9333 31.915 77.3967 30.5332 77.3758 29.3727C77.355 28.2122 77.0586 27.0015 77.4677 25.912C78.0313 24.4216 79.7595 23.6243 80.3481 22.1548C81.0203 20.485 79.9808 18.6023 78.7827 17.2414C77.5846 15.8804 76.1277 14.5863 75.7478 12.8163C75.3971 11.1841 76.0233 9.34723 75.2092 7.89448C74.2073 6.10358 71.5857 5.88234 70.3667 4.23338C69.7781 3.43186 69.5944 2.39238 69.01 1.58669C68.0165 0.217427 66.0878 -0.141581 64.418 0.0462749C62.7481 0.234131 61.12 0.835265 59.4335 0.960502C57.1166 1.12749 54.7246 0.380239 52.5037 1.04817C50.0533 1.79125 48.5588 3.97038 46.9682 6.05767L44.8809 8.4998C44.4584 8.92111 43.9956 9.30002 43.4992 9.63111C42.6225 10.1988 41.6248 10.5913 40.8734 11.3009C40.4943 11.7025 40.2002 12.1764 40.0087 12.6942C39.8171 13.2121 39.732 13.7633 39.7585 14.3149C39.785 14.8664 39.9226 15.4069 40.1629 15.904C40.4032 16.4011 40.7414 16.8446 41.1572 17.208C40.274 17.5187 39.5137 18.1044 38.9877 18.879C38.4618 19.6536 38.198 20.5764 38.235 21.512C38.235 21.512 38.0054 23.6493 39.358 24.6011C39.358 24.6095 37.4168 26.0706 38.5481 28.2873Z" fill="#121212"/>
<path d="M47.1854 32.6545C46.1208 29.3816 45.073 26.0879 44.5888 22.6814C44.1045 19.275 44.2047 15.7307 45.4237 12.508C45.6074 12.0154 47.1561 8.75084 47.6738 8.78841C48.0453 8.82598 47.0893 11.8859 47.2772 12.2074C49.0681 15.2799 49.5523 18.9744 49.2685 22.5186C48.9578 25.9631 48.2662 29.3625 47.2062 32.6545" fill="#121212"/>
<path d="M56.3903 58.3271C51.0594 58.2143 47.2062 49.4728 47.2062 49.4728L46.8597 19.5369C46.5759 10.9164 51.3599 3.56909 59.9846 3.52734L60.7819 3.56909C64.6512 3.77542 68.3008 5.43116 71.0044 8.20673C73.7081 10.9823 75.2674 14.6742 75.3721 18.5475C75.5725 26.02 75.7019 34.2815 75.4389 38.2682C74.892 46.5297 66.5596 47.3688 66.5596 47.3688C66.5596 47.3688 66.5095 49.2849 66.4844 51.7145C66.4301 57.1707 58.5527 58.5149 56.4028 58.3271H56.3903Z" fill="#FFBE9D"/>
<path d="M66.547 47.3655C66.547 47.3655 61.3204 47.3947 55.9561 43.6084C55.9561 43.6084 58.2563 49.7576 66.5428 49.4528L66.547 47.3655Z" fill="#EB996E"/>
<path d="M71.1599 25.6229C71.148 25.9315 71.0152 26.223 70.7903 26.4346C70.5654 26.6462 70.2664 26.761 69.9577 26.7542C69.8069 26.7581 69.6568 26.7317 69.5164 26.6766C69.376 26.6214 69.248 26.5386 69.1402 26.4331C69.0324 26.3276 68.9468 26.2016 68.8886 26.0624C68.8304 25.9232 68.8007 25.7738 68.8013 25.6229C68.8133 25.3151 68.9454 25.0242 69.1694 24.8127C69.3934 24.6012 69.6914 24.4859 69.9994 24.4916C70.1504 24.4877 70.3007 24.5141 70.4413 24.5692C70.582 24.6243 70.7102 24.707 70.8183 24.8124C70.9265 24.9179 71.0124 25.0439 71.0711 25.1831C71.1298 25.3223 71.16 25.4718 71.1599 25.6229Z" fill="#121212"/>
<path d="M73.41 21.8785C73.2556 22.0246 72.3956 21.3149 71.1265 21.2523C69.8575 21.1897 68.8931 21.7699 68.7637 21.6071C68.6969 21.5362 68.8639 21.2648 69.2856 20.9935C69.855 20.6403 70.5205 20.4739 71.1892 20.5176C71.8483 20.5495 72.48 20.7908 72.9926 21.2064C73.3683 21.5153 73.4852 21.8159 73.41 21.8785Z" fill="#121212"/>
<path d="M59.805 25.3249C59.791 25.6324 59.6574 25.9222 59.4329 26.1328C59.2083 26.3433 58.9105 26.4578 58.6028 26.4521C58.4521 26.456 58.3022 26.4297 58.1618 26.3749C58.0215 26.32 57.8935 26.2377 57.7853 26.1327C57.6772 26.0277 57.5912 25.9022 57.5323 25.7634C57.4733 25.6247 57.4427 25.4756 57.4422 25.3249C57.4563 25.0171 57.5897 24.7268 57.8141 24.5157C58.0385 24.3045 58.3364 24.189 58.6445 24.1936C58.7954 24.1903 58.9454 24.2171 59.0858 24.2724C59.2262 24.3277 59.3541 24.4104 59.4622 24.5158C59.5702 24.6211 59.6562 24.7469 59.7151 24.8858C59.7739 25.0248 59.8045 25.174 59.805 25.3249Z" fill="#121212"/>
<path d="M60.9448 21.7233C60.7903 21.8694 59.9304 21.1597 58.6613 21.0971C57.3922 21.0345 56.4237 21.6189 56.2943 21.4561C56.2317 21.381 56.3945 21.1138 56.8161 20.8383C57.3868 20.4882 58.0514 20.322 58.7197 20.3624C59.3808 20.3943 60.0143 20.6372 60.5273 21.0554C60.9156 21.3726 61.0199 21.6607 60.9448 21.7233Z" fill="#121212"/>
<path d="M64.9774 31.7294C64.9774 31.6584 65.7705 31.5666 67.0647 31.4706C67.3944 31.4706 67.7034 31.4038 67.7702 31.1867C67.8138 30.8531 67.7556 30.514 67.6032 30.214L66.7683 27.7093C65.6244 24.1233 64.8187 21.1803 64.9607 21.1343C65.1026 21.0884 66.1504 23.9605 67.2943 27.5507C67.5698 28.4357 67.8328 29.2748 68.0791 30.0846C68.2632 30.4865 68.2987 30.9406 68.1793 31.3662C68.1268 31.4783 68.0489 31.5767 67.9518 31.6535C67.8547 31.7303 67.7411 31.7835 67.6199 31.8087C67.4376 31.8482 67.2511 31.8651 67.0647 31.8588C65.7747 31.8421 64.9774 31.8046 64.9774 31.7294Z" fill="#121212"/>
<path d="M61.191 32.4105C61.3998 32.4105 61.3288 33.7881 62.4434 34.8276C63.558 35.8671 65.0442 35.7961 65.0442 35.9923C65.0442 36.08 64.7019 36.2428 64.084 36.2261C63.2752 36.194 62.5035 35.8776 61.9049 35.3327C61.3319 34.8083 60.9835 34.083 60.9322 33.308C60.9155 32.7319 61.0992 32.398 61.191 32.4105Z" fill="#121212"/>
<path d="M61.1492 16.5689C61.0073 16.907 59.7466 16.6774 58.2479 16.7776C56.7492 16.8778 55.5219 17.1951 55.3257 16.8987C55.2464 16.7442 55.476 16.4311 55.977 16.1222C56.6474 15.748 57.3941 15.531 58.1606 15.4876C58.9272 15.4442 59.6936 15.5756 60.402 15.8717C60.953 16.1222 61.2119 16.4102 61.1492 16.5689Z" fill="#121212"/>
<path d="M73.1136 17.629C72.8715 17.9046 72.0157 17.5581 70.9637 17.4913C69.9117 17.4245 69.01 17.5789 68.8221 17.2658C68.7386 17.1156 68.8931 16.8484 69.298 16.5812C69.8382 16.2816 70.4553 16.1495 71.0708 16.2015C71.6863 16.2535 72.2724 16.4874 72.7546 16.8734C73.1136 17.1907 73.218 17.4954 73.1136 17.629Z" fill="#121212"/>
<path d="M47.1937 25.6884C47.056 25.6216 41.604 23.7054 41.4829 29.3662C41.3619 35.0269 47.0643 33.9791 47.081 33.8163C47.0977 33.6535 47.1937 25.6884 47.1937 25.6884Z" fill="#FFBE9D"/>
<path d="M45.3986 31.6347C45.3736 31.6138 45.2984 31.7015 45.1273 31.7725C44.8917 31.8681 44.6281 31.8681 44.3925 31.7725C43.7998 31.5387 43.3155 30.5785 43.3113 29.5599C43.3061 29.0741 43.4103 28.5932 43.6161 28.1531C43.6731 27.9774 43.7721 27.8183 43.9045 27.6896C44.0369 27.5608 44.1987 27.4663 44.3759 27.4142C44.4899 27.3865 44.6101 27.3998 44.7154 27.4517C44.8207 27.5035 44.9044 27.5907 44.9519 27.6981C45.0229 27.8567 44.9853 27.9694 45.0146 27.9778C45.0438 27.9861 45.1398 27.8859 45.0981 27.6521C45.0705 27.5105 44.9935 27.3833 44.881 27.2931C44.7289 27.1723 44.5358 27.1154 44.3425 27.1345C44.1111 27.1742 43.8935 27.2715 43.7097 27.4174C43.5258 27.5633 43.3817 27.7531 43.2905 27.9694C43.0388 28.454 42.9098 28.993 42.9148 29.539C42.9148 30.6829 43.4867 31.7599 44.3007 32.0146C44.4518 32.062 44.6116 32.075 44.7683 32.0526C44.9251 32.0302 45.0748 31.973 45.2066 31.8852C45.3861 31.7683 45.4153 31.643 45.3986 31.6347Z" fill="#EB996E"/>
<path d="M71.8195 9.12249C72.7421 8.62989 70.0286 5.62419 67.7911 4.57637C64.4097 2.99003 59.2248 1.97143 56.0772 2.82305C52.2867 3.84165 49.1265 5.68264 47.1854 9.08492C45.2442 12.4872 44.4802 16.4906 44.5387 20.4189C44.5387 21.617 44.6681 22.8652 45.2943 23.888C46.0666 25.1403 47.5736 25.9544 47.4859 27.6827C47.4599 27.9947 47.4968 28.3088 47.5943 28.6064C47.6918 28.904 47.848 29.179 48.0537 29.4151C49.0723 30.5297 50.3539 29.5111 50.9508 28.4842C52.2241 26.28 52.3952 23.6375 52.5372 21.0994C52.6374 19.2918 52.7334 17.4508 52.2491 15.71C51.982 14.7623 51.5478 13.8648 51.3391 12.9047C51.1303 11.9445 51.1679 10.8591 51.7565 10.0868C51.8977 9.91947 52.0542 9.76573 52.2241 9.62761C53.0215 8.94797 53.9859 8.49334 55.0176 8.31062C56.0493 8.1279 57.1112 8.2237 58.0935 8.58814C61.2662 9.75285 66.689 11.5103 68.1125 10.4458C70.1748 8.91376 70.6799 7.90768 70.6799 7.90768L71.8195 9.12249Z" fill="#121212"/>
<path d="M56.3819 2.05487C59.5087 1.05714 63.0613 1.15733 65.9375 2.70192C67.4738 3.53684 68.8597 4.82261 69.3022 6.50497C69.7447 8.18732 69.01 10.2621 67.3903 10.8758L67.2776 10.9467C64.8521 11.7274 63.2867 11.3642 60.8905 10.5293C58.8742 9.79871 57.0874 8.52546 55.0669 7.81161C52.9025 7.04705 50.5587 6.94818 48.3375 7.52774C50.5334 5.08561 53.2594 3.05677 56.3819 2.05487Z" fill="#121212"/>
<path d="M45.6199 7.65359C45.67 7.69534 46.125 7.15682 47.0434 6.51811C47.5758 6.14321 48.152 5.83478 48.7592 5.5997C49.4886 5.29942 50.276 5.16674 51.0635 5.21147C52.5054 5.37262 53.8727 5.93689 55.0085 6.83955C55.8852 7.53253 56.2901 8.11697 56.3444 8.09192C56.3987 8.06688 56.2818 7.92077 56.0981 7.67447C55.8307 7.30569 55.5226 6.9682 55.1797 6.66839C54.0387 5.65655 52.6095 5.02737 51.0928 4.86915C50.2486 4.81798 49.4044 4.96823 48.6298 5.30748C48.0049 5.5705 47.4181 5.91588 46.8848 6.33443C45.9747 7.01906 45.5865 7.63272 45.6199 7.65359Z" fill="#121212"/>
<path d="M62.8651 1.54199C63.3547 1.7553 63.8549 1.94341 64.3637 2.10556C66.7552 3.05668 68.7868 4.73627 70.1706 6.90633C70.4258 7.37504 70.7045 7.83065 71.0055 8.27142C70.8929 7.73766 70.685 7.22856 70.3918 6.76857C69.0859 4.45577 66.9673 2.71062 64.4472 1.87179C63.9452 1.6637 63.4084 1.55183 62.8651 1.54199Z" fill="#121212"/>
<path d="M38.2893 21.5926C38.2893 21.5926 38.498 21.6845 38.8863 21.793C39.4309 21.9349 39.9976 21.9717 40.5561 21.9016C41.3946 21.7928 42.2057 21.5296 42.9481 21.1251C43.8039 20.7076 44.6806 20.1065 45.6533 19.5554C46.5585 19.0024 47.5621 18.6296 48.6089 18.4575C49.4798 18.3225 50.3708 18.4842 51.1386 18.9167C51.6601 19.2029 52.0833 19.6392 52.3535 20.1691C52.4245 20.3099 52.4792 20.4584 52.5163 20.6116C52.5371 20.7202 52.5455 20.7744 52.5371 20.7786C52.5288 20.7828 52.4745 20.5573 52.2783 20.2067C51.9898 19.7181 51.5685 19.3215 51.0635 19.0628C50.3201 18.6691 49.4677 18.5312 48.6381 18.6704C47.6186 18.8494 46.6417 19.2176 45.7576 19.7558C44.7975 20.3027 43.9125 20.8913 43.04 21.3171C42.2727 21.7218 41.4354 21.9768 40.5728 22.0685C39.9902 22.13 39.4012 22.0674 38.8445 21.8849C38.7001 21.8347 38.5604 21.7719 38.4271 21.697C38.3352 21.6302 38.2851 21.601 38.2893 21.5926Z" fill="#121212"/>
<path d="M38.6734 24.2702C39.3448 24.4159 40.0347 24.4581 40.7189 24.3954C41.4577 24.3085 42.1844 24.1391 42.8855 23.8903C43.6828 23.6231 44.5553 23.26 45.4696 22.9343C46.3392 22.6032 47.2542 22.4061 48.183 22.3499C48.9492 22.3229 49.7118 22.4655 50.4164 22.7674C50.8968 22.9712 51.3249 23.2808 51.6688 23.6732C51.7594 23.7791 51.8391 23.8938 51.9068 24.0156C51.9569 24.0949 51.9777 24.1408 51.9694 24.145C51.961 24.1491 51.8483 23.9863 51.6062 23.7275C51.2515 23.3649 50.8249 23.0805 50.3538 22.8926C49.6671 22.6193 48.9296 22.4969 48.1914 22.5336C47.2838 22.5997 46.3908 22.798 45.5405 23.1222C44.6221 23.4436 43.7622 23.8027 42.9481 24.0657C42.2304 24.3088 41.4862 24.4658 40.7314 24.5332C40.2217 24.5756 39.7086 24.5447 39.2077 24.4414C39.0656 24.4137 38.926 24.3747 38.7902 24.3245C38.7151 24.2994 38.6692 24.2786 38.6734 24.2702Z" fill="#121212"/>
<path d="M78.4905 18.1768C78.4711 18.3654 78.402 18.5455 78.2901 18.6986C78.0525 19.0906 77.7301 19.4244 77.3466 19.6754C76.9624 19.9259 76.5276 20.0884 76.0734 20.1513C75.8877 20.1925 75.6943 20.1824 75.514 20.1221C76.1167 20.0125 76.6958 19.7992 77.2256 19.4917C77.7184 19.1279 78.1461 18.6833 78.4905 18.1768Z" fill="#121212"/>
<path d="M80.081 20.9877C80.0422 21.265 79.9424 21.5302 79.7888 21.7642C79.4484 22.3527 78.9716 22.851 78.3986 23.2169C77.8267 23.5859 77.1731 23.8095 76.495 23.8682C76.2158 23.9107 75.9306 23.8907 75.6601 23.8097C75.6601 23.7721 75.9774 23.8097 76.47 23.7179C77.1113 23.6142 77.7249 23.3813 78.2734 23.0332C78.8194 22.6835 79.2871 22.2244 79.6468 21.6848C79.9307 21.2716 80.0434 20.9752 80.081 20.9877Z" fill="#121212"/>
<path d="M103.191 84.6201L110.827 99.9492C111.679 101.661 112.078 103.562 111.987 105.472C111.847 108.337 110.61 111.039 108.533 113.017C106.456 114.996 103.697 116.1 100.829 116.101L78.933 114.848L77.977 104.858L94.6378 100.834L88.1797 88.6319L103.191 84.6201Z" fill="#FFBE9D"/>
<path d="M94.6377 100.833C94.6377 100.9 95.3933 100.774 96.6039 100.783C98.1757 100.815 99.7331 101.089 101.221 101.597C102.713 102.093 104.111 102.836 105.358 103.793C106.306 104.54 106.748 105.158 106.802 105.116C106.857 105.074 106.727 104.936 106.527 104.653C106.229 104.267 105.895 103.91 105.529 103.588C104.302 102.544 102.885 101.747 101.355 101.242C99.8309 100.714 98.224 100.468 96.6123 100.515C96.1255 100.532 95.641 100.59 95.1637 100.687C94.9809 100.703 94.8026 100.752 94.6377 100.833Z" fill="#EB996E"/>
<path d="M9.65588 81.9854C9.65588 81.9854 5.53975 93.478 0.38415 106.261C0.281358 106.519 0.199006 106.786 0.13785 107.058C-0.642795 110.514 1.99136 116.334 5.5314 116.334L35.1709 116.042V106.348L18.076 102.591L24.6718 87.98L9.65588 81.9854Z" fill="#FFBE9D"/>
<path d="M4.7842 105.255C4.82595 105.305 5.41039 104.837 6.45403 104.248C9.15558 102.698 12.2609 101.995 15.3668 102.232C16.5523 102.324 17.2787 102.487 17.2954 102.424C17.1417 102.335 16.9736 102.272 16.7986 102.24C16.3372 102.114 15.867 102.022 15.3918 101.965C12.2197 101.571 9.00962 102.297 6.31627 104.019C5.91129 104.275 5.52614 104.561 5.16409 104.875C4.90109 105.1 4.7675 105.234 4.7842 105.255Z" fill="#EB996E"/>
<path d="M82.2601 104.262H77.977C77.977 104.262 68.3003 100.768 66.3132 101.102C64.5223 101.402 57.9641 105.76 56.6783 106.62C56.5359 106.716 56.4277 106.855 56.3694 107.017C56.2435 107.358 56.2544 107.734 56.4 108.068C56.5455 108.401 56.8143 108.664 57.15 108.804L57.2878 108.862L57.2293 109.058C57.1512 109.311 57.1173 109.575 57.1291 109.839C57.1441 110.04 57.2225 110.23 57.353 110.383C57.4835 110.537 57.6594 110.644 57.8552 110.691C58.0509 110.737 58.2564 110.72 58.4419 110.642C58.6273 110.564 58.7831 110.429 58.8866 110.256L58.6403 110.695C58.5374 110.873 58.4894 111.078 58.5026 111.283L58.5235 111.68C58.5356 111.897 58.6131 112.105 58.7457 112.277C58.8783 112.449 59.0599 112.577 59.2665 112.644C59.4624 112.708 59.6725 112.715 59.8718 112.662C60.071 112.609 60.2508 112.5 60.3895 112.348C61.2244 111.434 63.0195 109.601 64.2343 109.401C65.5512 109.24 66.8779 109.173 68.2043 109.2C68.4754 109.201 68.7401 109.283 68.9636 109.436C69.1871 109.59 69.359 109.807 69.4567 110.06C68.7345 110.11 63.7083 112.732 61.9424 113.671C61.6675 113.809 61.4301 114.011 61.2505 114.26C61.0709 114.51 60.9545 114.799 60.9113 115.103C60.8445 115.658 61.1242 116.243 62.2263 115.984C64.5891 115.433 68.843 113.479 68.843 113.479C68.843 113.479 71.0347 112.849 72.4582 113.855C74.4578 115.262 75.3804 115.779 77.0878 115.212C78.132 114.864 79.1334 114.399 80.0726 113.826L83.454 113.488C83.454 113.488 86.635 105.489 82.2601 104.262Z" fill="#FFBE9D"/>
<path d="M69.4901 105.892C69.4901 105.93 68.8013 105.712 67.67 105.641C66.1963 105.542 64.7201 105.793 63.3619 106.374C62.0037 106.954 60.8021 107.848 59.8552 108.981C59.1246 109.849 58.8115 110.488 58.7781 110.467C58.8351 110.311 58.9078 110.162 58.9952 110.021C59.2162 109.627 59.4703 109.252 59.755 108.902C60.693 107.724 61.909 106.799 63.2934 106.208C64.6779 105.617 66.1876 105.379 67.6867 105.516C68.1375 105.556 68.5844 105.633 69.0225 105.746C69.1829 105.779 69.3396 105.828 69.4901 105.892Z" fill="#EB996E"/>
<path d="M68.4632 103.546C67.8489 103.358 67.2137 103.248 66.5721 103.217C65.0168 103.212 63.4919 103.646 62.1721 104.469C60.8635 105.309 59.6717 106.318 58.6279 107.471L57.6552 108.502C57.5424 108.634 57.4196 108.756 57.2878 108.869C57.3782 108.719 57.4846 108.579 57.6051 108.452C57.818 108.193 58.1311 107.821 58.536 107.379C59.5608 106.188 60.755 105.154 62.0802 104.31C63.4269 103.468 64.9929 103.044 66.5804 103.091C67.057 103.115 67.5285 103.201 67.9831 103.346C68.1065 103.387 68.2278 103.434 68.3463 103.488C68.4298 103.517 68.4673 103.538 68.4632 103.546Z" fill="#EB996E"/>
<path d="M28.8965 104.563H33.1796C33.1796 104.563 42.8521 101.069 44.8434 101.399C46.6343 101.704 53.1925 106.058 54.4783 106.922C54.6243 107.023 54.7329 107.17 54.7872 107.339C54.9131 107.68 54.9022 108.057 54.7566 108.39C54.6111 108.723 54.3423 108.987 54.0066 109.126L53.8688 109.18L53.9273 109.377C54.0051 109.629 54.039 109.893 54.0274 110.157C54.0125 110.358 53.9341 110.549 53.8036 110.702C53.6731 110.855 53.4972 110.962 53.3014 111.009C53.1057 111.055 52.9002 111.038 52.7147 110.96C52.5293 110.882 52.3735 110.747 52.27 110.575L52.5163 111.013C52.6174 111.192 52.6652 111.396 52.654 111.602L52.6331 112.019C52.621 112.236 52.5435 112.444 52.4109 112.616C52.2783 112.788 52.0967 112.916 51.8901 112.983C51.6942 113.047 51.484 113.054 51.2848 113.001C51.0856 112.948 50.9058 112.839 50.7671 112.687C49.9322 111.773 48.1371 109.94 46.9223 109.736C45.6052 109.577 44.2787 109.51 42.9523 109.535C42.6813 109.536 42.4169 109.619 42.1935 109.772C41.9701 109.925 41.7981 110.143 41.6999 110.395C42.4221 110.449 47.4483 113.067 49.2142 114.006C49.4886 114.144 49.7257 114.346 49.9052 114.596C50.0847 114.845 50.2014 115.134 50.2453 115.438C50.3121 115.993 50.0324 116.578 48.9303 116.323C46.5675 115.768 42.3136 113.818 42.3136 113.818C42.3136 113.818 40.1219 113.192 38.6984 114.194C36.6988 115.605 35.7762 116.123 34.0688 115.551C33.0246 115.203 32.0232 114.738 31.084 114.165L27.7026 113.831C27.7026 113.831 24.5215 105.786 28.8965 104.563Z" fill="#FFBE9D"/>
<path d="M41.6665 106.198C41.6665 106.236 42.3553 106.019 43.4825 105.948C44.9568 105.848 46.4339 106.099 47.7929 106.679C49.1519 107.259 50.3541 108.153 51.3015 109.288C52.032 110.152 52.3451 110.79 52.3785 110.774C52.3215 110.618 52.2488 110.468 52.1614 110.327C51.9407 109.932 51.6865 109.556 51.4016 109.204C50.4624 108.028 49.2462 107.104 47.8619 106.514C46.4776 105.924 44.9686 105.686 43.47 105.823C43.019 105.859 42.572 105.934 42.1341 106.048C41.9729 106.08 41.816 106.13 41.6665 106.198Z" fill="#EB996E"/>
<path d="M42.6935 103.847C43.3083 103.662 43.9433 103.551 44.5846 103.517C46.14 103.512 47.6653 103.946 48.9846 104.77C50.292 105.61 51.4836 106.617 52.5288 107.767L53.4973 108.798C53.6105 108.931 53.7348 109.054 53.8689 109.166C53.7772 109.016 53.6709 108.877 53.5516 108.748C53.3387 108.489 53.0256 108.122 52.6207 107.675C51.5926 106.488 50.3989 105.454 49.0764 104.607C47.729 103.767 46.1636 103.343 44.5763 103.388C44.0992 103.411 43.6274 103.498 43.1736 103.647C43.0108 103.693 42.8939 103.755 42.8104 103.785C42.7269 103.814 42.6893 103.843 42.6935 103.847Z" fill="#EB996E"/>
<path d="M34.6908 116.376H79.7011C80.3163 116.377 80.9079 116.14 81.3522 115.714C81.7964 115.288 82.0589 114.708 82.0848 114.093L83.4374 83.1258C83.4532 82.8026 83.4032 82.4795 83.2903 82.1761C83.1774 81.8728 83.004 81.5956 82.7807 81.3613C82.5573 81.127 82.2887 80.9406 81.9911 80.8134C81.6935 80.6861 81.3732 80.6207 81.0495 80.6211H33.4593C33.1375 80.6208 32.819 80.6856 32.5228 80.8116C32.2267 80.9376 31.959 81.1221 31.736 81.3541C31.513 81.5861 31.3391 81.8608 31.2249 82.1617C31.1107 82.4626 31.0585 82.7834 31.0715 83.105L32.3239 114.072C32.3443 114.687 32.6022 115.271 33.0434 115.701C33.4847 116.13 34.075 116.372 34.6908 116.376Z" fill="#121212"/>
<path d="M34.6908 116.376H34.5823C34.4716 116.374 34.3613 116.363 34.2525 116.342C33.8255 116.269 33.4269 116.08 33.1003 115.795C32.8347 115.562 32.6226 115.274 32.4785 114.952C32.3344 114.629 32.2617 114.279 32.2654 113.925C32.2278 113.09 32.1861 112.147 32.1402 111.078C31.9565 106.787 31.6935 100.583 31.3679 92.9229C31.2844 91.0054 31.1995 89.0002 31.1132 86.9074C31.0715 85.8596 31.0256 84.795 30.9796 83.7055C30.9796 83.4341 30.9504 83.167 30.9588 82.8706C30.9757 82.583 31.0421 82.3006 31.155 82.0356C31.3294 81.6337 31.6063 81.2845 31.9579 81.0229C32.3095 80.7614 32.7236 80.5967 33.1588 80.5453C33.4593 80.5203 33.739 80.5453 34.0271 80.5453H46.722H79.722H80.8199C81.1978 80.5278 81.5753 80.586 81.9303 80.7165C82.2848 80.8543 82.6032 81.071 82.8614 81.3502C83.1196 81.6294 83.3109 81.9638 83.4207 82.3279C83.5217 82.6874 83.5529 83.0629 83.5125 83.4341L83.4666 84.5112C83.4332 85.2292 83.404 85.943 83.3706 86.6569C83.2453 89.504 83.1229 92.3079 83.0032 95.0687C82.7611 100.583 82.5273 105.902 82.3019 110.97C82.2768 111.604 82.2476 112.222 82.2184 112.857C82.2184 113.17 82.1933 113.483 82.1766 113.792C82.1815 114.11 82.1407 114.428 82.0556 114.735C81.8635 115.352 81.4402 115.871 80.8742 116.184C80.5966 116.337 80.2917 116.435 79.9766 116.472C79.6594 116.505 79.3672 116.472 79.0624 116.472H72.0742H59.5254L41.3535 116.438L36.4149 116.417H41.3535L59.5254 116.38H72.0742H79.0624C79.363 116.38 79.6719 116.38 79.9558 116.359C80.249 116.326 80.5327 116.235 80.7907 116.092C81.3123 115.804 81.7016 115.325 81.8761 114.756C81.9566 114.465 81.9946 114.164 81.9888 113.863C81.9888 113.554 82.018 113.241 82.0305 112.928C82.0556 112.301 82.0848 111.675 82.1099 111.041C82.3311 105.973 82.5607 100.65 82.7987 95.1355C82.9183 92.3802 83.0394 89.5763 83.1618 86.7237C83.1952 86.014 83.2245 85.3002 83.2579 84.5821L83.3038 83.5051C83.3437 83.1565 83.3154 82.8034 83.2203 82.4656C83.1195 82.1337 82.9446 81.8289 82.7088 81.5744C82.4731 81.3198 82.1826 81.1221 81.8594 80.9962C81.5298 80.875 81.1789 80.8225 80.8283 80.8417H79.7303H46.7303H34.0271C33.7432 80.8417 33.4468 80.8417 33.1922 80.8417C32.7873 80.8865 32.4015 81.0381 32.0744 81.2809C31.7473 81.5236 31.4905 81.8489 31.3303 82.2235C31.2257 82.4672 31.1636 82.727 31.1466 82.9916C31.1466 83.2546 31.1466 83.5343 31.1466 83.8057C31.1884 84.891 31.2301 85.9597 31.2719 87.0034C31.3554 89.0935 31.4347 91.0986 31.5098 93.019C31.8104 100.683 32.0483 106.887 32.2153 111.178C32.2571 112.251 32.2905 113.203 32.3239 114.025C32.3094 114.588 32.4947 115.138 32.847 115.578C33.1993 116.017 33.6957 116.318 34.2483 116.426C34.5406 116.376 34.6908 116.363 34.6908 116.376Z" fill="#121212"/>
<path d="M54.7705 99.0502C54.7713 99.5371 54.9165 100.013 55.1876 100.417C55.4588 100.822 55.8437 101.137 56.2939 101.323C56.744 101.509 57.2391 101.557 57.7166 101.461C58.1941 101.366 58.6325 101.131 58.9766 100.786C59.3206 100.442 59.5548 100.003 59.6495 99.525C59.7442 99.0473 59.6952 98.5523 59.5086 98.1025C59.3221 97.6527 59.0064 97.2683 58.6014 96.9978C58.1965 96.7273 57.7205 96.583 57.2335 96.583C56.9097 96.583 56.5891 96.6469 56.29 96.7709C55.9909 96.8949 55.7192 97.0767 55.4904 97.3059C55.2617 97.535 55.0803 97.807 54.9568 98.1063C54.8333 98.4057 54.77 98.7264 54.7705 99.0502Z" fill="#FFFEFE"/>
<path d="M86.8772 71.1289C86.8872 71.2149 86.8872 71.3017 86.8772 71.3877V72.1308C86.8772 72.7737 86.8772 73.7046 86.8313 74.8568C86.7728 77.157 86.6518 80.338 86.4556 83.8447C86.2594 87.3513 86.0381 90.524 85.8503 92.8242C85.7542 93.9513 85.6749 94.8697 85.6207 95.5419C85.5873 95.8424 85.5622 96.0845 85.5413 96.2766C85.5398 96.3644 85.5257 96.4515 85.4996 96.5354C85.4914 96.4493 85.4914 96.3627 85.4996 96.2766C85.4996 96.0845 85.4996 95.8382 85.533 95.5335C85.5747 94.8656 85.629 93.943 85.7 92.8117C85.8377 90.4906 86.0298 87.3263 86.2385 83.8322C86.4472 80.338 86.5808 77.1528 86.6768 74.8526C86.7228 73.7213 86.7645 72.7987 86.7937 72.1266L86.8313 71.3877C86.8366 71.3 86.852 71.2131 86.8772 71.1289Z" fill="#121212"/>
</svg>
