<svg width="178" height="152" viewBox="0 0 178 152" fill="none" xmlns="http://www.w3.org/2000/svg">
<path d="M55.6569 35.1016C52.5413 35.7302 52.0825 36.3864 51.6236 40.6628C51.6236 40.6799 51.6169 40.6962 51.6048 40.7082C51.5928 40.7203 51.5764 40.7271 51.5594 40.7271C51.5424 40.7271 51.526 40.7203 51.514 40.7082C51.5019 40.6962 51.4952 40.6799 51.4952 40.6628C51.0363 36.3726 50.5545 35.7302 47.4573 35.1016C47.4403 35.1016 47.4239 35.0948 47.4119 35.0828C47.3998 35.0707 47.3931 35.0544 47.3931 35.0374C47.3931 35.0203 47.3998 35.004 47.4119 34.9919C47.4239 34.9799 47.4403 34.9731 47.4573 34.9731C50.5545 34.3445 51.0501 33.7021 51.4952 29.4119C51.4952 29.3949 51.5019 29.3785 51.514 29.3665C51.526 29.3544 51.5424 29.3477 51.5594 29.3477C51.5764 29.3477 51.5928 29.3544 51.6048 29.3665C51.6169 29.3785 51.6236 29.3949 51.6236 29.4119C52.0825 33.7021 52.5413 34.3445 55.6615 34.9731C55.6785 34.9737 55.6946 34.9811 55.7062 34.9936C55.7179 35.006 55.724 35.0226 55.7234 35.0396C55.7228 35.0567 55.7155 35.0728 55.703 35.0844C55.6905 35.096 55.6739 35.1022 55.6569 35.1016Z" fill="#4A0E95"/>
<path opacity="0.4" d="M55.6569 35.1016C52.5413 35.7302 52.0825 36.3864 51.6236 40.6628C51.6236 40.6799 51.6169 40.6962 51.6048 40.7082C51.5928 40.7203 51.5764 40.7271 51.5594 40.7271C51.5424 40.7271 51.526 40.7203 51.514 40.7082C51.5019 40.6962 51.4952 40.6799 51.4952 40.6628C51.0363 36.3726 50.5545 35.7302 47.4573 35.1016C47.4403 35.1016 47.4239 35.0948 47.4119 35.0828C47.3998 35.0707 47.3931 35.0544 47.3931 35.0374C47.3931 35.0203 47.3998 35.004 47.4119 34.9919C47.4239 34.9799 47.4403 34.9731 47.4573 34.9731C50.5545 34.3445 51.0501 33.7021 51.4952 29.4119C51.4952 29.3949 51.5019 29.3785 51.514 29.3665C51.526 29.3544 51.5424 29.3477 51.5594 29.3477C51.5764 29.3477 51.5928 29.3544 51.6048 29.3665C51.6169 29.3785 51.6236 29.3949 51.6236 29.4119C52.0825 33.7021 52.5413 34.3445 55.6615 34.9731C55.6785 34.9737 55.6946 34.9811 55.7062 34.9936C55.7179 35.006 55.724 35.0226 55.7234 35.0396C55.7228 35.0567 55.7155 35.0728 55.703 35.0844C55.6905 35.096 55.6739 35.1022 55.6569 35.1016Z" fill="white"/>
<path d="M143.898 80.6382C140.796 81.2668 140.305 81.9092 139.86 86.1948C139.856 86.2095 139.847 86.2225 139.835 86.2317C139.823 86.241 139.808 86.246 139.793 86.246C139.778 86.246 139.763 86.241 139.751 86.2317C139.739 86.2225 139.731 86.2095 139.727 86.1948C139.268 81.9092 138.809 81.2668 135.689 80.6382C135.674 80.6343 135.661 80.6256 135.652 80.6136C135.643 80.6016 135.638 80.5868 135.638 80.5716C135.638 80.5564 135.643 80.5417 135.652 80.5297C135.661 80.5176 135.674 80.509 135.689 80.5051C138.804 79.8765 139.263 79.2341 139.722 74.9301C139.726 74.9154 139.735 74.9025 139.747 74.8932C139.759 74.8839 139.773 74.8789 139.789 74.8789C139.804 74.8789 139.819 74.8839 139.831 74.8932C139.843 74.9025 139.851 74.9154 139.855 74.9301C140.314 79.2157 140.773 79.8581 143.893 80.4867C143.913 80.4861 143.933 80.4935 143.947 80.5073C143.962 80.5211 143.97 80.5401 143.971 80.5602C143.972 80.5802 143.964 80.5997 143.951 80.6144C143.937 80.629 143.918 80.6376 143.898 80.6382Z" fill="#4A0E95"/>
<path opacity="0.4" d="M143.898 80.6382C140.796 81.2668 140.305 81.9092 139.86 86.1948C139.856 86.2095 139.847 86.2225 139.835 86.2317C139.823 86.241 139.808 86.246 139.793 86.246C139.778 86.246 139.763 86.241 139.751 86.2317C139.739 86.2225 139.731 86.2095 139.727 86.1948C139.268 81.9092 138.809 81.2668 135.689 80.6382C135.674 80.6343 135.661 80.6256 135.652 80.6136C135.643 80.6016 135.638 80.5868 135.638 80.5716C135.638 80.5564 135.643 80.5417 135.652 80.5297C135.661 80.5176 135.674 80.509 135.689 80.5051C138.804 79.8765 139.263 79.2341 139.722 74.9301C139.726 74.9154 139.735 74.9025 139.747 74.8932C139.759 74.8839 139.773 74.8789 139.789 74.8789C139.804 74.8789 139.819 74.8839 139.831 74.8932C139.843 74.9025 139.851 74.9154 139.855 74.9301C140.314 79.2157 140.773 79.8581 143.893 80.4867C143.913 80.4861 143.933 80.4935 143.947 80.5073C143.962 80.5211 143.97 80.5401 143.971 80.5602C143.972 80.5802 143.964 80.5997 143.951 80.6144C143.937 80.629 143.918 80.6376 143.898 80.6382Z" fill="white"/>
<path d="M33.5084 69.8387C33.3042 70.3507 33.026 70.83 32.6824 71.2611C31.582 72.3742 30.3492 73.3481 29.0117 74.161C28.5714 74.44 28.0435 74.5463 27.5296 74.4593C25.6942 74.1886 23.7533 71.8622 22.2574 70.7885C19.3529 68.687 17.3615 68.3979 17.4579 66.1129C17.5176 64.7042 19.1923 64.6032 19.1923 64.6032C19.1923 64.6032 18.3343 63.3644 19.2382 62.7403C20.1422 62.1163 21.4728 62.4742 21.4728 62.4742C20.5395 61.0781 19.5316 59.7332 18.4536 58.4455C17.8342 57.693 16.8018 56.7937 16.5586 55.853C16.3888 55.2015 16.6779 54.7518 17.1229 54.7151C18.628 54.605 23.7028 60.6067 24.0056 60.9784C23.8129 60.6801 21.3627 56.8809 20.6744 54.816C19.954 52.6686 21.5921 52.9807 21.5921 52.9807C23.0467 53.3064 28.016 61.8961 29.0254 62.2585C29.0254 62.2585 30.4524 60.9921 31.5216 61.5611C32.5907 62.1301 33.6506 66.2964 33.6506 66.2964C34.0193 67.4574 33.969 68.711 33.5084 69.8387Z" fill="#FF8B7B"/>
<g opacity="0.2">
<path d="M32.2053 63.9782C32.182 63.9607 32.1554 63.9481 32.1271 63.9411C32.0989 63.9342 32.0695 63.933 32.0408 63.9377C32.012 63.9425 31.9846 63.9529 31.96 63.9686C31.9354 63.9842 31.9143 64.0046 31.8978 64.0286C30.8884 65.4052 29.4659 66.5615 28.2821 66.9239C28.1399 66.9607 28.0022 66.9928 27.8829 67.0111C27.6306 67.0699 27.3652 67.0271 27.1442 66.8918C27.076 66.8356 27.0204 66.7657 26.9809 66.6867C26.9414 66.6076 26.9189 66.5212 26.9148 66.433C26.8877 66.1209 26.9332 65.8068 27.0478 65.5153C27.0991 65.3734 27.1605 65.2354 27.2314 65.1023C27.6952 64.2856 28.2976 63.5559 29.0117 62.9457C29.0383 62.929 29.061 62.9068 29.0783 62.8806C29.0956 62.8543 29.1071 62.8247 29.112 62.7937C29.1169 62.7626 29.1151 62.7309 29.1067 62.7006C29.0983 62.6703 29.0836 62.6422 29.0634 62.6181C29.0433 62.594 29.0182 62.5745 28.9899 62.5608C28.9616 62.5472 28.9307 62.5398 28.8993 62.5391C28.8679 62.5384 28.8367 62.5445 28.8078 62.5568C28.7789 62.5692 28.753 62.5876 28.7318 62.6108C28.0008 63.2386 27.3804 63.9847 26.8964 64.8178C26.2779 64.0147 25.5433 63.308 24.7169 62.7209C24.6924 62.7002 24.6637 62.685 24.6328 62.6763C24.6019 62.6676 24.5695 62.6656 24.5378 62.6705C24.506 62.6754 24.4757 62.687 24.4489 62.7045C24.422 62.7221 24.3992 62.7452 24.382 62.7723C24.3648 62.7994 24.3536 62.8299 24.3492 62.8617C24.3448 62.8935 24.3472 62.9259 24.3563 62.9566C24.3654 62.9874 24.381 63.0159 24.4021 63.0401C24.4231 63.0643 24.4491 63.0838 24.4783 63.0972C25.3208 63.6992 26.0679 64.4247 26.6945 65.2492C26.6945 65.2904 26.6578 65.3317 26.644 65.373C26.5054 65.7258 26.452 66.1062 26.488 66.4834C26.4994 66.6295 26.5408 66.7717 26.6094 66.9012C26.6781 67.0306 26.7727 67.1446 26.8872 67.236C27.0418 67.3399 27.2158 67.4113 27.3988 67.4461C27.5818 67.4808 27.7699 67.478 27.9518 67.4379H28.016C28.6312 68.7532 28.982 70.1766 29.0484 71.6271C29.0519 71.6843 29.0771 71.738 29.1189 71.7773C29.1607 71.8165 29.2159 71.8383 29.2732 71.8382H29.3237C29.3701 71.8249 29.4107 71.7964 29.4389 71.7573C29.4672 71.7182 29.4816 71.6707 29.4797 71.6225C29.4074 70.1473 29.0555 68.6992 28.4427 67.3553C29.7275 66.9515 31.1958 65.786 32.2649 64.3039C32.2844 64.2793 32.2984 64.2509 32.306 64.2205C32.3135 64.1901 32.3145 64.1584 32.3089 64.1275C32.3033 64.0967 32.2911 64.0674 32.2732 64.0416C32.2553 64.0159 32.2322 63.9942 32.2053 63.9782Z" fill="black"/>
<path d="M22.0555 62.5426C22.0094 62.5082 21.9517 62.4928 21.8945 62.4996C21.8373 62.5065 21.7849 62.535 21.7481 62.5793C21.7299 62.6018 21.7164 62.6276 21.7084 62.6553C21.7004 62.6831 21.698 62.7121 21.7014 62.7408C21.7048 62.7695 21.714 62.7972 21.7283 62.8223C21.7426 62.8473 21.7619 62.8693 21.7848 62.8868C22.5006 63.4511 24.3681 65.1213 24.4094 66.062C24.4138 66.1291 24.4033 66.1964 24.3787 66.2591C24.3541 66.3217 24.316 66.3782 24.2672 66.4245C23.6477 67.0026 22.0831 66.2272 21.5141 65.883C21.4686 65.8579 21.4156 65.8497 21.3646 65.8598C21.3136 65.87 21.2678 65.8979 21.2354 65.9385C21.203 65.9792 21.186 66.03 21.1875 66.082C21.1889 66.134 21.2087 66.1838 21.2434 66.2226C21.817 66.7916 23.3128 68.5673 22.6796 69.228C22.2207 69.6869 21.0231 69.2601 20.5964 69.0537C20.5439 69.0295 20.4841 69.0265 20.4294 69.0453C20.3747 69.0641 20.3293 69.1032 20.3028 69.1546C20.2896 69.1804 20.2817 69.2086 20.2797 69.2375C20.2776 69.2664 20.2814 69.2955 20.2908 69.3229C20.3003 69.3503 20.3151 69.3755 20.3345 69.3971C20.3539 69.4186 20.3774 69.436 20.4037 69.4483C20.5551 69.5217 21.6885 70.0448 22.5052 69.8154C22.6915 69.7665 22.8611 69.6682 22.9962 69.5309C23.6799 68.8196 22.9595 67.5991 22.3079 66.7778C23.0375 67.0669 23.9827 67.2779 24.5471 66.7503C24.6439 66.6631 24.7194 66.5549 24.7679 66.434C24.8164 66.3131 24.8366 66.1827 24.827 66.0528C24.7903 64.7221 22.3354 62.7491 22.0555 62.5426Z" fill="black"/>
<path d="M23.4504 62.2763C23.4996 62.2924 23.5527 62.2924 23.6018 62.2763C23.632 62.2673 23.6598 62.2521 23.6836 62.2315C23.7073 62.2109 23.7264 62.1855 23.7395 62.157C24.1268 61.4657 24.7436 60.9317 25.4831 60.6474C25.5094 60.6363 25.5333 60.6202 25.5533 60.5999C25.5734 60.5796 25.5892 60.5555 25.5999 60.5291C25.6105 60.5026 25.6158 60.4743 25.6155 60.4458C25.6151 60.4172 25.6091 60.3891 25.5978 60.3629C25.5872 60.3362 25.5714 60.3118 25.5513 60.2913C25.5312 60.2708 25.5072 60.2545 25.4807 60.2433C25.4542 60.2322 25.4257 60.2265 25.397 60.2266C25.3683 60.2266 25.3398 60.2324 25.3133 60.2436C24.4693 60.567 23.7692 61.1824 23.3403 61.978C23.3273 62.0047 23.3199 62.0338 23.3184 62.0634C23.3169 62.0931 23.3215 62.1228 23.3318 62.1506C23.342 62.1785 23.3579 62.204 23.3782 62.2256C23.3986 62.2472 23.4232 62.2644 23.4504 62.2763Z" fill="black"/>
</g>
<path d="M65.0174 94.5517C63.8672 96.2219 62.6926 97.8875 61.4934 99.5485C60.4931 100.925 59.4837 102.302 58.41 103.678C57.8685 104.376 57.3271 105.055 56.7168 105.798L56.258 106.349L55.7533 106.918L55.6248 107.064L55.4642 107.23L55.1476 107.565L54.987 107.73L54.9044 107.812L54.7897 107.927L54.2987 108.386L54.0464 108.606C53.6265 108.967 53.1643 109.275 52.6698 109.524C51.6644 110.036 50.5492 110.294 49.4212 110.276C49.1688 110.276 48.9623 110.276 48.7467 110.23L48.4209 110.189L48.1456 110.134C47.9666 110.097 47.7693 110.052 47.6133 110.01L47.1545 109.868L46.7645 109.721L46.4157 109.565C46.2276 109.473 46.0165 109.363 45.8559 109.271C45.3482 108.977 44.8703 108.635 44.4289 108.248C44.1282 107.99 43.8417 107.716 43.5709 107.427C43.1529 106.981 42.7578 106.514 42.3871 106.027C42.0521 105.592 41.7584 105.174 41.4694 104.766C40.4536 103.245 39.5178 101.672 38.6658 100.053C37.014 96.956 35.564 93.923 34.1875 90.8442C31.7694 85.4298 29.5577 80.0062 27.5526 74.4588C28.0573 74.5368 28.1261 72.839 28.6079 72.5408C29.9354 71.7364 31.0213 70.5887 31.751 69.2188C31.751 69.2188 33.1275 70.7238 33.513 69.8382C36.7937 75.225 40.0424 80.6762 43.3415 85.9758C44.1949 87.3524 45.0713 88.7289 45.9385 90.0596C46.8058 91.3902 47.6776 92.7301 48.5677 94.0056L48.843 94.3957C49.3294 93.6248 49.8112 92.8356 50.293 92.0464C51.9815 89.2933 53.6609 86.5127 55.3403 83.7229L55.5514 83.3696C56.7994 86.2741 59.8186 92.0326 64.9118 94.3819L65.0174 94.5517Z" fill="#FF8B7B"/>
<path d="M33.5084 69.8382C33.3043 70.3502 33.026 70.8295 32.6825 71.2606C31.582 72.3737 30.3493 73.3476 29.0117 74.1605C28.5714 74.4395 28.0435 74.5458 27.5296 74.4588C27.2574 73.7063 26.9897 72.9507 26.7266 72.1921L29.7917 72.0498L30.3286 71.7011L33.1138 69.2188L33.5084 69.8382Z" fill="#FF8B7B"/>
<path d="M77.81 74.3943C76.7317 76.3077 75.6213 78.1431 74.4926 79.9784C73.8808 80.9634 73.269 81.9469 72.6572 82.9288L69.9775 87.1273L69.6609 87.6091L67.6053 90.7246L67.229 91.2936L66.7105 92.0599C66.6187 92.1929 66.5316 92.3306 66.4352 92.4637C65.9764 93.129 65.5175 93.7989 65.0587 94.4642C65.0587 94.4918 65.0174 94.5193 64.999 94.5514L64.8981 94.3908C59.8049 92.0323 56.7857 86.2738 55.5376 83.3785C55.9567 82.6872 56.3758 81.9943 56.7948 81.2999C56.8912 81.1393 56.9876 80.9787 57.0885 80.8181C59.5938 76.6885 62.1358 72.513 64.7375 68.4293C65.0311 67.9704 65.3294 67.5116 65.6276 67.0527L66.8298 67.7823L71.7119 70.7419L73.373 71.7467L77.81 74.3943Z" fill="#FF8B7B"/>
<path d="M67.1464 123.01C67.1464 123.01 60.2637 137.193 59.0615 151.683H118.358C118.358 151.683 123.273 132.999 114.426 121.027L67.1464 123.01Z" fill="black"/>
<path d="M126.324 79.5197C125.067 82.1535 122.777 80.6623 122.548 83.4107C122.318 86.1592 123.465 86.3841 121.52 88.2149C119.574 90.0457 119.005 90.968 120.033 93.1337C121.061 95.2995 118.198 100.682 111.453 94.5102C104.708 88.3388 94.98 91.9958 81.311 86.9622C67.642 81.9287 76.2224 59.9637 74.3182 58.477C72.414 56.9903 76.5665 53.4297 74.075 52.1908C73.4188 51.8604 72.6526 52.3331 71.9872 52.4386C71.1076 52.5733 70.2083 52.4845 69.372 52.1805C68.5357 51.8764 67.7893 51.3669 67.2016 50.6987C66.6139 50.0306 66.2037 49.2253 66.0088 48.3571C65.814 47.4888 65.8407 46.5855 66.0865 45.7302L66.1278 45.5926C67.5364 41.0317 64.0813 41.8117 63.7509 38.9577C63.393 35.7962 66.9629 34.7501 65.1688 32.8917C63.4389 31.1114 61.7091 28.9089 63.5903 25.931C65.4716 22.9531 62.1771 21.0076 63.3426 18.6399C64.6182 16.0566 66.3526 17.0707 67.1326 14.882C67.9127 12.6933 66.7472 10.8028 68.4541 9.09134C70.2895 7.25596 73.35 9.38042 74.2585 7.81575C75.167 6.25108 74.3778 4.05321 77.5163 3.11716C80.6548 2.18111 82.4122 5.77847 83.8025 4.83783C85.1928 3.8972 85.3443 1.39648 88.7948 1.39648C92.2453 1.39648 92.3967 5.77847 94.59 5.30586C96.7833 4.83325 96.7512 4.08074 99.1785 4.59924C103.143 5.43892 101.473 8.9078 103.68 9.69243C105.887 10.4771 107.906 10.3165 108.846 13.1384C109.787 15.9603 107.438 17.5204 108.846 19.1034C110.255 20.6864 111.98 21.4435 111.691 24.1828C111.402 26.9221 109.53 27.4819 110.668 29.5559C111.806 31.6299 112.646 34.0664 110.668 36.7598C108.69 39.4532 112.008 38.7237 112.123 41.6282C112.103 42.5312 111.816 43.4081 111.297 44.1472C111.072 44.3693 110.911 44.6472 110.83 44.9522C110.748 45.2573 110.75 45.5786 110.834 45.8829C110.918 46.1872 111.082 46.4636 111.308 46.6836C111.535 46.9035 111.816 47.0591 112.123 47.1343C115.555 48.3181 111.934 51.7641 114.688 52.8332C116.908 53.6958 118.211 52.5349 118.652 55.9671C119.184 60.1334 120.575 57.5823 122.291 59.7526C124.007 61.9229 121.965 64.13 124.7 65.5662C127.329 66.9427 127.838 69.0075 126.273 72.2975C124.709 75.5874 127.581 76.8722 126.324 79.5197Z" fill="black"/>
<path d="M70.8952 35.5938C70.9305 35.6253 70.9539 35.6681 70.9614 35.7149C70.9689 35.7617 70.9601 35.8096 70.9365 35.8507C70.1714 36.0901 69.4913 36.5446 68.9776 37.1601C68.4639 37.7755 68.1382 38.5259 68.0395 39.3214C67.9407 40.117 68.0731 40.9242 68.4208 41.6466C68.7684 42.3689 69.3167 42.9759 70.0001 43.3951C70.6834 43.8142 71.473 44.0278 72.2745 44.0103C73.076 43.9927 73.8555 43.7448 74.5199 43.2962C75.1843 42.8475 75.7055 42.2171 76.0212 41.4802C76.3369 40.7433 76.4339 39.9311 76.3004 39.1406C76.135 38.4227 75.7982 37.7555 75.3188 37.1962C74.8393 36.6368 74.2315 36.2019 73.5473 35.9287C73.6162 35.8599 73.6758 35.7819 73.7676 35.6855C74.4821 35.976 75.1119 36.4419 75.5987 37.0402C76.0855 37.6385 76.4136 38.3498 76.5528 39.1085C76.6997 39.9515 76.6002 40.8189 76.2663 41.6067C75.9324 42.3946 75.3782 43.0693 74.6704 43.55C73.9625 44.0307 73.131 44.2969 72.2755 44.3167C71.4201 44.3366 70.5771 44.1091 69.8478 43.6617C69.1184 43.2143 68.5336 42.566 68.1636 41.7945C67.7935 41.023 67.654 40.1611 67.7617 39.3122C67.8693 38.4633 68.2197 37.6636 68.7706 37.0089C69.3215 36.3542 70.0497 35.8724 70.8677 35.6213L70.8952 35.5938Z" fill="white"/>
<path d="M111.655 24.1972L111.196 24.087C112.439 18.8424 107.713 16.874 107.525 16.7914L107.699 16.3555C107.741 16.3738 112.99 18.5488 111.655 24.1972Z" fill="black"/>
<path d="M71.8955 54.1233C69.8812 54.1233 67.5548 53.6186 66.0223 51.6685C62.5488 47.2452 66.3251 41.4913 66.3664 41.4316L66.7564 41.6932C66.7197 41.7482 63.1315 47.2223 66.3939 51.3748C69.3214 55.1007 75.6856 53.0955 75.7498 53.0772L75.892 53.536C74.594 53.9184 73.2486 54.1161 71.8955 54.1233Z" fill="black"/>
<path d="M67.7888 17.7858C67.7613 17.7583 64.8476 14.941 66.3297 11.5088C66.6929 10.5954 67.3122 9.80636 68.1132 9.23656C68.9142 8.66676 69.8627 8.34045 70.8447 8.29688V8.75572C69.9549 8.79667 69.0963 9.09571 68.3736 9.61636C67.6509 10.137 67.0954 10.8567 66.7748 11.6878C65.4212 14.8125 68.0962 17.4096 68.1238 17.4371L67.7888 17.7858Z" fill="black"/>
<path d="M73.1894 73.3208L69.6471 87.6093L67.7429 95.2812C66.8176 95.122 65.9159 94.8476 65.0587 94.4645L64.8981 94.3911C59.8049 92.0326 56.7857 86.2741 55.5376 83.3788C55.0788 82.3188 54.8631 81.6397 54.8631 81.6397L56.0699 79.5933L56.1066 79.5428L66.3572 62.203L66.6325 61.7441L71.7119 70.7284L73.1894 73.3208Z" fill="#4A0E95"/>
<path opacity="0.3" d="M67.7613 95.2812C66.836 95.122 65.9342 94.8476 65.077 94.4645L64.9164 94.3911C59.8232 92.0326 56.804 86.2741 55.556 83.3788C55.0971 82.3188 54.8815 81.6397 54.8815 81.6397L56.0882 79.5933L56.1249 79.5428L66.3756 62.203L66.6509 61.7441L66.8482 67.7688L67.6099 90.7432L67.7613 95.2812Z" fill="black"/>
<g opacity="0.2">
<path d="M66.683 92.5235C60.5849 91.2571 56.258 80.0245 56.0745 79.5473L56.5012 79.3867C56.5471 79.5014 60.9245 90.8579 66.7748 92.0738L66.683 92.5235Z" fill="black"/>
</g>
<path d="M115.66 89.7837C115.523 92.3486 115.463 94.7759 115.458 97.0793C115.458 107.573 116.573 115.433 116.564 120.783C116.563 121.471 116.311 122.134 115.856 122.65C115.401 123.165 114.773 123.496 114.091 123.582C94.9387 125.932 73.0242 126.505 66.7701 123.826C66.4181 123.683 66.0839 123.5 65.7744 123.279C62.5625 119.017 65.9075 95.9139 65.2376 94.8906L65.0173 94.5511L64.9164 94.3905C64.12 93.1394 63.4484 91.813 62.9112 90.4306C62.7889 90.1003 62.6742 89.7745 62.5671 89.4533C60.0802 81.6024 64.5539 76.6056 64.5539 73.0174C64.5539 71.3702 64.6136 69.833 64.7558 68.4289C64.9096 66.2717 65.4586 64.1611 66.3755 62.2024C67.7521 59.4723 70.0968 57.5726 73.9373 56.5311C74.834 56.2921 75.7442 56.1067 76.6629 55.9759C78.4616 55.7097 80.3336 55.4849 82.169 55.3013L83.1693 55.205L84.3761 55.104H84.5596L85.9362 55.0123L86.395 54.9893L87.7027 54.9297L89.015 54.8884C91.2267 54.8379 93.4521 54.8563 95.7601 54.9205L97.1733 54.9664C97.8249 54.9664 98.4856 55.0123 99.1509 55.0398L100.821 55.1132L102.055 55.1683L103.111 55.2187C105.015 55.3105 106.869 55.4574 108.617 55.6363C110.262 55.7983 111.849 56.3284 113.26 57.1872C115.226 58.3794 116.774 60.152 117.691 62.2608C118.607 64.3695 118.847 66.7105 118.377 68.9612C117.546 72.9256 116.931 76.6882 116.491 80.2488C116.459 80.4599 116.436 80.671 116.413 80.8775C116.165 82.9208 115.969 84.8939 115.825 86.7966C115.828 86.8087 115.828 86.8212 115.825 86.8333C115.752 87.8427 115.689 88.8323 115.637 89.802C115.637 89.802 115.656 89.7837 115.66 89.7837Z" fill="#4A0E95"/>
<g opacity="0.2">
<path d="M110.003 123.913L109.544 123.816C112.682 108.826 108.287 80.6848 108.245 80.3957L108.704 80.3223C108.755 80.6068 113.16 108.835 110.003 123.913Z" fill="black"/>
</g>
<path d="M114.33 129.107C112.866 128.992 111.417 128.737 110.003 128.345C107.947 127.735 104.038 130.025 103.065 131.475C102.092 132.925 107.029 130.713 108.176 131.475C109.324 132.236 112.765 140.321 113.972 141.312C115.178 142.303 119.556 135.347 119.556 135.347L114.33 129.107Z" fill="#FF8B7B"/>
<path d="M102.097 55.1406C100.449 56.4437 97.7193 59.9585 92.5023 63.9321C86.5877 68.4196 77.8834 70.8011 77.319 64.9508C76.9152 60.867 79.9482 57.3706 82.1828 55.2874L83.1831 55.1911C89.3637 54.6267 95.1452 54.8148 102.097 55.1406Z" fill="white"/>
<path d="M99.1693 55.0133C99.1693 55.0133 96.9852 56.5733 94.1587 58.7987C88.5929 63.6671 82.8252 65.53 81.1046 63.9929C79.104 62.1942 82.6417 57.9086 83.096 57.358L83.151 57.2983C84.6606 55.4996 84.812 53.6872 84.4541 51.549C84.1998 50.1542 83.7777 48.7953 83.1969 47.5019L84.913 45.4922L93.9247 36.3887C93.6999 42.45 94.4341 51.7279 99.1693 55.0133Z" fill="#FF8B7B"/>
<g opacity="0.2">
<path d="M84.477 51.5294C84.2227 50.1346 83.8006 48.7758 83.2198 47.4824L84.9405 45.4727L89.8593 46.1563C89.8593 46.1563 88.1065 49.9785 84.477 51.5294Z" fill="black"/>
</g>
<path d="M96.5906 25.8673C96.2327 35.8197 96.2924 40.0365 91.4974 45.2582C84.2798 53.1136 72.3681 50.4798 69.8031 40.6192C67.5089 31.7405 68.4587 16.9565 77.8972 12.7672C87.2026 8.63761 96.9439 15.9149 96.5906 25.8673Z" fill="#FF8B7B"/>
<path d="M73.4693 30.129C73.4346 30.1372 73.3985 30.1372 73.3638 30.129C73.2997 30.1284 73.2373 30.1083 73.1848 30.0714C73.1324 30.0345 73.0924 29.9826 73.0701 29.9225C72.9621 29.6534 72.7918 29.4137 72.5733 29.2231C72.3547 29.0325 72.0941 28.8963 71.8128 28.8259C71.5566 28.7662 71.2903 28.7632 71.0327 28.8171C70.7752 28.871 70.5325 28.9805 70.3216 29.1379C69.5232 30.0097 68.5092 28.7249 68.5092 28.7249L69.6655 28.9498C69.9453 28.6309 70.3068 28.3944 70.7111 28.2659C71.1154 28.1373 71.5471 28.1215 71.9597 28.2202C72.3433 28.3145 72.6986 28.4996 72.9956 28.7599C73.2927 29.0202 73.5228 29.3481 73.6666 29.716C73.6847 29.7557 73.694 29.7989 73.6936 29.8426C73.6932 29.8862 73.6833 29.9292 73.6645 29.9686C73.6456 30.008 73.6184 30.0428 73.5847 30.0705C73.551 30.0982 73.5116 30.1182 73.4693 30.129Z" fill="black"/>
<path d="M84.3394 28.1879C84.3394 28.1879 83.252 29.5645 82.4031 28.6468C82.179 28.4783 81.9207 28.361 81.6464 28.3031C81.3722 28.2453 81.0885 28.2482 80.8155 28.3118C80.5138 28.3871 80.2343 28.5329 79.9998 28.737C79.7654 28.9412 79.5826 29.198 79.4665 29.4865C79.4437 29.551 79.4014 29.6068 79.3455 29.6462C79.2896 29.6857 79.2229 29.7068 79.1545 29.7067C79.118 29.7126 79.0808 29.7126 79.0443 29.7067C78.9631 29.6757 78.8971 29.6143 78.8602 29.5356C78.8234 29.4568 78.8187 29.3668 78.847 29.2846C79.0024 28.8907 79.2502 28.5399 79.5697 28.262C79.8891 27.9841 80.2708 27.7871 80.6824 27.6878C81.121 27.5844 81.5794 27.6015 82.0091 27.7372C82.4387 27.8729 82.8238 28.1221 83.1235 28.4586L84.3394 28.1879Z" fill="black"/>
<path d="M76.2224 40.1325C76.1778 40.1308 76.134 40.1202 76.0935 40.1015C76.053 40.0828 76.0165 40.0562 75.9863 40.0234C75.956 39.9906 75.9325 39.9521 75.9172 39.9102C75.9018 39.8683 75.8948 39.8238 75.8967 39.7792C75.9002 39.6887 75.9393 39.6033 76.0055 39.5415C76.0716 39.4797 76.1595 39.4464 76.25 39.4488C76.3922 39.4488 79.7969 39.5406 80.4301 35.9662C80.4531 35.8839 80.5059 35.8132 80.5783 35.7677C80.6506 35.7222 80.7373 35.7052 80.8214 35.7201C80.9055 35.735 80.9811 35.7806 81.0335 35.8482C81.0858 35.9157 81.1112 36.0003 81.1046 36.0855C80.3612 40.2518 76.2683 40.1325 76.2224 40.1325Z" fill="black"/>
<path d="M97.1137 28.6424C98.4902 27.4999 98.8756 23.0995 97.7882 19.9564C96.7007 16.8133 95.6132 10.9171 88.6342 9.77461C81.6551 8.63209 73.1619 7.16837 69.2066 17.1162C69.2066 17.1162 68.8258 19.6857 70.2666 20.5116C72.0652 21.5394 72.4828 18.6395 74.0107 17.9926C75.0294 17.5612 74.956 19.2498 76.9841 19.1993C78.3239 19.1626 78.0853 17.4419 79.6775 17.4419C81.2697 17.4419 80.9623 19.0158 82.6784 19.5939C84.1513 20.0895 84.8487 18.5661 85.8673 19.0984C86.886 19.6306 86.0417 20.8145 87.2439 21.8515C88.4461 22.8885 89.1802 21.8239 90.208 22.5673C91.2358 23.3106 88.7627 25.7792 89.6115 26.9676C90.3686 28.0367 92.438 27.4677 91.9838 29.1747C91.2083 32.0791 88.0836 33.9099 89.3638 37.4339C90.6439 40.9578 95.1728 39.3289 95.1728 39.3289C91.0844 38.737 88.079 36.2225 97.1137 28.6424Z" fill="black"/>
<path d="M74.8 29.1699C74.8 29.1699 73.4601 31.3449 71.9918 33.2445C71.8808 33.3872 71.8032 33.553 71.7646 33.7296C71.726 33.9062 71.7275 34.0893 71.7688 34.2653C71.8102 34.4413 71.8904 34.6058 72.0036 34.7467C72.1169 34.8877 72.2602 35.0015 72.4232 35.0799C73.2354 35.4376 74.0849 35.7039 74.956 35.8737L74.8 29.1699Z" fill="#AF3C2C"/>
<path d="M100.303 32.6621C99.9543 33.4987 99.4328 34.2522 98.7724 34.873C98.1121 35.4938 97.3279 35.9679 96.4713 36.264C94.278 36.9339 93.1217 34.5387 93.6815 32.0656C94.1862 29.8401 95.9344 26.8072 98.1598 27.2339C100.385 27.6606 101.262 30.4458 100.303 32.6621Z" fill="#FF8B7B"/>
<path d="M96.2832 34.3691C96.32 34.3996 96.3448 34.4421 96.3532 34.4892C96.3616 34.5363 96.3531 34.5848 96.3291 34.6261C95.5656 34.8692 94.8881 35.3269 94.3777 35.9446C93.8672 36.5622 93.5452 37.3137 93.4501 38.1093C93.355 38.9049 93.4909 39.7111 93.8415 40.4316C94.1921 41.1521 94.7426 41.7566 95.4273 42.1728C96.112 42.589 96.902 42.7994 97.703 42.7788C98.5041 42.7583 99.2823 42.5078 99.9448 42.057C100.607 41.6063 101.126 40.9745 101.439 40.237C101.753 39.4995 101.847 38.6874 101.711 37.8977C101.546 37.1796 101.21 36.5122 100.73 35.9528C100.251 35.3934 99.6426 34.9586 98.9582 34.6857C99.0271 34.6169 99.0867 34.5389 99.1785 34.4426C99.8909 34.7362 100.519 35.2031 101.005 35.8009C101.492 36.3986 101.821 37.1083 101.964 37.8655C102.111 38.7094 102.013 39.5781 101.679 40.3671C101.345 41.1562 100.791 41.8321 100.082 42.3139C99.3738 42.7956 98.5414 43.0626 97.6849 43.0829C96.8284 43.1032 95.9842 42.8758 95.2538 42.4281C94.5233 41.9804 93.9376 41.3314 93.5669 40.559C93.1963 39.7866 93.0564 38.9236 93.1641 38.0737C93.2718 37.2238 93.6226 36.423 94.1742 35.7675C94.7258 35.112 95.455 34.6296 96.274 34.3783L96.2832 34.3691Z" fill="white"/>
<path d="M84.991 25.5276C84.9264 25.5228 84.8636 25.5044 84.8066 25.4735C84.7497 25.4427 84.6999 25.4002 84.6606 25.3487C84.3055 24.8698 83.8425 24.4815 83.3091 24.2152C82.7757 23.9489 82.187 23.8122 81.5909 23.8162C81.5288 23.8216 81.4663 23.8147 81.4069 23.796C81.3475 23.7772 81.2923 23.747 81.2446 23.7069C81.1969 23.6669 81.1575 23.6178 81.1288 23.5626C81.1 23.5073 81.0824 23.4469 81.077 23.3848C81.0716 23.3228 81.0784 23.2602 81.0972 23.2008C81.1159 23.1414 81.1462 23.0863 81.1862 23.0386C81.2263 22.9908 81.2753 22.9515 81.3306 22.9227C81.3859 22.8939 81.4462 22.8763 81.5083 22.8709C82.2624 22.8502 83.0103 23.0111 83.6892 23.3401C84.368 23.6691 84.9577 24.1566 85.4085 24.7614C85.4498 24.8094 85.4807 24.8655 85.4992 24.9261C85.5177 24.9867 85.5235 25.0505 85.5162 25.1134C85.5089 25.1764 85.4886 25.2371 85.4566 25.2918C85.4247 25.3465 85.3817 25.394 85.3305 25.4313C85.2831 25.469 85.2286 25.4969 85.1704 25.5134C85.1121 25.53 85.0511 25.5348 84.991 25.5276Z" fill="black"/>
<path d="M68.8396 25.0683C68.7427 25.0746 68.6464 25.05 68.5644 24.998C68.4824 24.9461 68.419 24.8695 68.3833 24.7792C68.3476 24.6889 68.3414 24.5897 68.3657 24.4957C68.39 24.4017 68.4434 24.3179 68.5184 24.2562C69.0465 23.7132 69.6971 23.3048 70.4156 23.0653C71.1342 22.8257 71.8997 22.7621 72.648 22.8796C72.7697 22.9064 72.8758 22.9804 72.9429 23.0854C73.01 23.1904 73.0327 23.3177 73.0059 23.4394C72.9791 23.5611 72.9051 23.6672 72.8001 23.7343C72.6951 23.8014 72.5678 23.8241 72.4461 23.7973C71.8546 23.7149 71.252 23.7742 70.6879 23.9705C70.1239 24.1667 69.6146 24.4943 69.2021 24.9261C69.1569 24.9723 69.1025 25.0084 69.0424 25.0322C68.9823 25.0559 68.9179 25.0667 68.8533 25.0638L68.8396 25.0683Z" fill="black"/>
<path d="M118.482 66.0703C121.717 71.3287 124.695 76.6697 127.577 82.1299C129.031 84.8509 130.408 87.6132 131.789 90.3892C132.482 91.7657 133.133 93.2065 133.798 94.6473C134.464 96.0881 135.102 97.5472 135.749 99.144C135.909 99.5478 136.061 99.9607 136.207 100.41C136.354 100.86 136.524 101.328 136.703 101.915L136.767 102.14L136.836 102.406L136.909 102.677L136.983 103.026L137.02 103.205L137.065 103.448C137.102 103.677 137.13 103.907 137.148 104.145C137.168 104.334 137.176 104.524 137.171 104.714C137.171 104.889 137.171 105.059 137.171 105.228C137.109 106.046 136.955 106.854 136.712 107.637C136.538 108.238 136.359 108.743 136.175 109.206C135.992 109.67 135.808 110.124 135.62 110.523C135.244 111.358 134.868 112.125 134.473 112.868C133.684 114.346 132.872 115.731 132.046 117.099C131.22 118.466 130.38 119.792 129.517 121.1C126.071 126.331 122.451 131.305 118.505 136.145L112.54 132.383C115.087 126.877 117.743 121.371 120.226 115.965C121.437 113.249 122.681 110.537 123.64 107.931C123.874 107.289 124.098 106.655 124.291 106.068C124.383 105.779 124.47 105.49 124.53 105.242C124.584 105.038 124.625 104.831 124.654 104.623C124.654 104.49 124.654 104.384 124.589 104.779C124.589 104.852 124.589 104.93 124.589 105.003C124.589 105.077 124.589 105.123 124.589 105.293C124.597 105.431 124.614 105.569 124.64 105.705C124.646 105.739 124.646 105.773 124.64 105.806V105.843V105.917L124.617 105.866L124.314 105.233L123.892 104.393C123.291 103.205 122.589 101.92 121.873 100.649L119.666 96.7901C118.189 94.193 116.633 91.6097 115.128 88.9897C112.086 83.7772 109.021 78.5234 106.125 73.2329L118.482 66.0703Z" fill="#FF8B7B"/>
<path d="M127.531 78.2302C125.4 80.2332 123.122 82.0738 120.717 83.7364L120.597 83.8235C117.3 86.0303 113.854 88.005 110.283 89.7335C110.283 89.7335 100.381 80.3088 99.2703 69.3423C98.2562 59.4037 106.153 56.8434 106.153 56.8434C119.354 52.0622 127.531 78.2302 127.531 78.2302Z" fill="#4A0E95"/>
<path opacity="0.2" d="M127.531 78.2302C125.4 80.2332 123.122 82.0738 120.717 83.7364L120.597 83.8235C117.325 86.0699 113.875 88.0464 110.283 89.7335C110.283 89.7335 100.381 80.3088 99.2703 69.3423C98.2562 59.4037 106.153 56.8434 106.153 56.8434C119.354 52.0622 127.531 78.2302 127.531 78.2302Z" fill="black"/>
<g opacity="0.2">
<path d="M107.259 86.3337L107.052 85.907C112.136 83.4063 120.276 78.0837 125.342 73.1465L125.672 73.4906C120.57 78.4645 112.38 83.8193 107.259 86.3337Z" fill="black"/>
</g>
</svg>
