<svg width="140" height="130" viewBox="0 0 140 130" fill="none" xmlns="http://www.w3.org/2000/svg">
<path d="M140 129.004C140 129.053 108.658 129.09 70.0033 129.09C31.3483 129.09 0 129.053 0 129.004C0 128.954 31.3351 128.918 70 128.918C108.665 128.918 140 128.958 140 129.004Z" fill="#231C15"/>
<path d="M42.7958 41.6889C43.6782 40.9288 44.9306 40.7173 45.8295 39.9771C46.7284 39.2368 47.1514 38.0438 47.2175 36.8806C47.2224 35.715 47.0519 34.5553 46.7119 33.4404L56.3252 45.5058C55.5618 46.8277 54.739 48.176 53.5427 49.141C52.3464 50.1059 50.6874 50.6182 49.2466 50.096C47.8057 49.5739 46.8275 47.7827 47.4918 46.4113C46.1996 47.6109 43.9558 47.634 42.6967 46.4113C41.4376 45.1886 41.4574 42.8389 42.7958 41.6889Z" fill="#231C15"/>
<path d="M70.5751 6.43848C72.9049 8.14369 73.2915 9.83899 73.3841 10.7346C73.4105 11.0022 73.3642 11.3393 73.1098 11.4219C72.9827 11.4506 72.8499 11.4391 72.7297 11.3889L64.9307 9.01943" fill="#231C15"/>
<path d="M49.0251 36.8608C47.2736 33.7147 45.5255 30.5389 44.3391 27.1384C43.1527 23.7379 42.5413 20.0697 43.1196 16.5139C43.2056 15.9719 44.1342 12.2905 44.6795 12.2376C45.0661 12.2012 44.7059 15.5423 44.9637 15.8298C47.4257 18.6255 48.6715 22.3268 49.0945 26.028C49.4763 29.6302 49.453 33.2638 49.0251 36.8608Z" fill="#231C15"/>
<path d="M52.7297 55.9816L46.0212 23.4437C43.9888 14.64 47.4191 6.11721 56.2657 4.32938L57.0952 4.21372C61.1139 3.64205 65.2004 4.60494 68.5411 6.91065C71.8818 9.21635 74.2315 12.6957 75.1223 16.6558C76.8407 24.2963 78.6451 32.7596 79.1805 36.9135C80.2908 45.5057 71.9101 48.0635 71.9101 48.0635C71.9101 48.0635 73.4799 56.7416 73.9458 59.2433L60.9749 60.8956L57.852 61.1765L52.7297 55.9816Z" fill="#FFBF9D"/>
<path d="M71.9069 48.0651C71.9069 48.0651 66.5401 49.1524 60.2612 46.3467C60.2612 46.3467 63.8633 52.4207 72.32 50.4313L71.9069 48.0651Z" fill="#FF9A6C"/>
<path d="M73.5526 25.0161C73.6019 25.333 73.5261 25.6568 73.3411 25.9189C73.1561 26.181 72.8764 26.3609 72.5612 26.4205C72.407 26.4553 72.2474 26.4588 72.0918 26.4309C71.9362 26.403 71.7878 26.3441 71.6553 26.2579C71.5229 26.1716 71.409 26.0597 71.3206 25.9287C71.2321 25.7977 71.1707 25.6503 71.1402 25.4952C71.0916 25.178 71.1677 24.8542 71.3525 24.5918C71.5373 24.3294 71.8165 24.1486 72.1316 24.0874C72.286 24.0527 72.4458 24.0493 72.6016 24.0774C72.7574 24.1056 72.9059 24.1647 73.0384 24.2513C73.1709 24.3379 73.2847 24.4502 73.373 24.5816C73.4613 24.7129 73.5224 24.8607 73.5526 25.0161Z" fill="#263621"/>
<path d="M73.8434 20.7207C73.7145 20.9025 72.6901 20.3473 71.3715 20.539C70.0529 20.7306 69.1805 21.5304 69.012 21.385C68.9326 21.3222 69.045 21.0115 69.425 20.6447C69.9402 20.1686 70.5902 19.8638 71.2856 19.7723C71.9648 19.6705 72.6589 19.7862 73.2684 20.1027C73.7311 20.3539 73.9095 20.6216 73.8434 20.7207Z" fill="#231C15"/>
<path d="M62.1844 26.6302C62.2329 26.947 62.1567 27.2704 61.9718 27.5323C61.787 27.7942 61.5078 27.9742 61.193 28.0346C61.0386 28.0689 60.8789 28.072 60.7233 28.0436C60.5677 28.0153 60.4193 27.9561 60.2869 27.8696C60.1545 27.7831 60.0408 27.6709 59.9523 27.5398C59.8639 27.4087 59.8026 27.2612 59.772 27.106C59.7248 26.7869 59.8036 26.4619 59.9917 26.1998C60.1798 25.9377 60.4624 25.759 60.7799 25.7015C60.9331 25.6697 61.0912 25.6685 61.2449 25.698C61.3986 25.7276 61.5449 25.7872 61.6754 25.8735C61.806 25.9598 61.9182 26.0711 62.0055 26.201C62.0929 26.3308 62.1537 26.4767 62.1844 26.6302Z" fill="#263621"/>
<path d="M60.9584 22.8466C60.8296 23.0283 59.8018 22.4732 58.4832 22.6615C57.1647 22.8499 56.2922 23.6529 56.127 23.5075C56.0444 23.448 56.1567 23.1374 56.5368 22.7706C57.0519 22.294 57.7017 21.9882 58.3973 21.8948C59.0766 21.7921 59.7709 21.9079 60.3801 22.2253C60.8428 22.493 61.0212 22.764 60.9584 22.8466Z" fill="#231C15"/>
<path d="M67.1283 32.3103C67.1117 32.2343 67.9115 31.9798 69.2135 31.6196C69.544 31.537 69.8546 31.4247 69.8745 31.1867C69.8943 30.9488 69.7257 30.5886 69.5076 30.2218L68.1461 27.7961C66.2459 24.3394 64.8183 21.4809 64.9571 21.4049C65.0959 21.3289 66.7515 24.0684 68.655 27.5251L69.9769 29.9706C70.1587 30.3341 70.4396 30.7373 70.3404 31.266C70.3079 31.3919 70.2474 31.5087 70.1632 31.6077C70.0791 31.7067 69.9736 31.7854 69.8546 31.8377C69.6761 31.9153 69.4884 31.9697 69.2961 31.9997C67.971 32.2607 67.1415 32.383 67.1283 32.3103Z" fill="#231C15"/>
<path d="M60.7998 18.6585C60.6676 19.022 59.3391 18.8469 57.776 19.0353C56.2128 19.2236 54.9471 19.6499 54.739 19.3228C54.6464 19.1674 54.8678 18.8271 55.3768 18.4768C56.0583 18.0451 56.8295 17.7752 57.6314 17.6875C58.4333 17.5999 59.2447 17.6969 60.0033 17.9711C60.5684 18.2025 60.8559 18.4867 60.7998 18.6585Z" fill="#231C15"/>
<path d="M73.7112 18.5444C73.4865 18.8749 72.3662 18.746 71.0675 18.9344C69.7687 19.1227 68.7178 19.5094 68.4237 19.2351C68.2882 19.0996 68.4237 18.7724 68.8467 18.4155C69.4516 17.9711 70.1592 17.6872 70.9035 17.5901C71.6478 17.493 72.4045 17.586 73.1032 17.8604C73.6121 18.095 73.8104 18.3792 73.7112 18.5444Z" fill="#231C15"/>
<path d="M47.6239 29.6989C47.4686 29.6559 41.4805 28.7901 42.4984 34.6328C43.5162 40.4755 49.1804 38.2349 49.154 38.0763C49.1276 37.9177 47.6239 29.6989 47.6239 29.6989Z" fill="#FFBF9D"/>
<path d="M46.9829 36.176C46.9564 36.1594 46.8936 36.2652 46.735 36.3742C46.5114 36.5197 46.2398 36.5719 45.9782 36.5196C45.3173 36.404 44.6299 35.5117 44.4184 34.4641C44.3183 33.9657 44.3285 33.4513 44.4482 32.9572C44.4722 32.7656 44.5421 32.5826 44.652 32.4238C44.7619 32.265 44.9085 32.1351 45.0794 32.0451C45.1918 31.9896 45.3205 31.9764 45.4418 32.008C45.5632 32.0395 45.6691 32.1137 45.7403 32.2169C45.8494 32.369 45.8295 32.4912 45.8626 32.4945C45.8956 32.4978 45.9716 32.3756 45.8824 32.1409C45.8252 32.0003 45.7214 31.8836 45.5883 31.8105C45.4065 31.7168 45.195 31.699 45.0001 31.7609C44.5539 31.87 44.2235 32.3557 44.0946 32.8514C43.9356 33.4006 43.9129 33.9802 44.0285 34.5401C44.2697 35.71 45.0661 36.708 45.9518 36.8038C46.1174 36.8206 46.2846 36.7995 46.4409 36.7423C46.5971 36.685 46.7384 36.5931 46.854 36.4734C46.9994 36.3181 47.006 36.1826 46.9829 36.176Z" fill="#FF9A6C"/>
<path d="M69.5837 7.68825C70.433 6.99426 67.0391 4.45627 64.5242 3.83168C60.7271 2.87663 55.195 2.87663 52.1283 4.39678C48.4403 6.21766 45.5619 8.74574 44.2598 12.6585C42.9578 16.5712 42.9809 20.8211 43.8368 24.8429C44.0979 26.0722 44.4614 27.3346 45.3107 28.2566C46.3616 29.3967 47.6438 29.8197 48.3345 31.7133C48.5592 32.3346 48.7344 32.9889 49.2664 33.3821C50.542 34.3207 51.6524 33.0153 52.0556 31.8356C52.9181 29.3141 52.5612 26.5481 52.1911 23.9241C51.93 22.0471 51.6557 20.1337 50.8031 18.445C50.3405 17.5263 49.7126 16.6902 49.3028 15.7451C48.893 14.7999 48.7145 13.6763 49.1805 12.7708C49.2907 12.5711 49.419 12.382 49.5639 12.2057C50.2471 11.3461 51.1469 10.6838 52.1709 10.2871C53.1948 9.89045 54.3059 9.77362 55.39 9.94865C58.8864 10.5071 64.815 11.211 66.0741 9.82968C67.8884 7.84687 68.199 6.70015 68.199 6.70015L69.5837 7.68825Z" fill="#231C15"/>
<path d="M63.1659 33.8773C63.3642 33.8277 63.6187 35.1661 64.9438 35.8998C66.269 36.6334 67.6636 36.2302 67.7099 36.4021C67.7429 36.4814 67.4422 36.7326 66.8407 36.8515C66.0612 37.0153 65.2489 36.8982 64.5473 36.5211C63.8749 36.1557 63.3711 35.5429 63.1428 34.8125C62.9842 34.2474 63.0602 33.8872 63.1659 33.8773Z" fill="#231C15"/>
<path d="M43.5294 30.1986C43.4005 30.1192 43.232 30.1292 43.1097 30.0465C35.0165 24.7591 39.3325 17.4392 39.0648 15.4795C38.6913 12.7631 36.0906 16.7617 35.0397 13.2885C33.6253 8.68839 38.2717 5.76044 44.0681 2.60778C46.497 1.2859 52.7892 -0.13511 58.5625 0.0102962C63.7145 0.142483 67.6669 3.05721 70.0397 5.42336C70.0397 5.42336 71.2988 5.77366 71.6722 6.23632C72.8387 7.69368 72.5645 8.43062 72.5645 8.43062C72.5645 8.43062 60.5618 4.7459 52.7363 13.9131C44.9108 23.0803 47.7793 29.227 45.3569 29.7524L43.5294 30.1986Z" fill="#383A2F"/>
<path d="M46.8275 6.23633C46.6859 6.34367 46.5368 6.44085 46.3814 6.52714C46.2327 6.61637 46.0509 6.72542 45.856 6.85761C45.661 6.9898 45.4197 7.14181 45.195 7.33018C44.615 7.75208 44.063 8.2113 43.5427 8.70493C42.9136 9.31409 42.3293 9.96791 41.7945 10.6613C41.2688 11.3605 40.795 12.0972 40.3768 12.8655C40.039 13.4957 39.742 14.147 39.4878 14.8153C39.3688 15.0995 39.2928 15.3639 39.2135 15.5919C39.1342 15.8199 39.0747 16.0215 39.0285 16.1867C38.9886 16.3609 38.9333 16.5313 38.8632 16.6956C38.8839 16.5184 38.917 16.3428 38.9624 16.1702C38.9987 16.0017 39.0483 15.7968 39.121 15.5654C39.1937 15.3341 39.2631 15.0598 39.3754 14.7723C39.6146 14.0914 39.9029 13.4287 40.238 12.7895C41.0581 11.2189 42.1386 9.79866 43.4336 8.58926C43.9617 8.09652 44.5238 7.64155 45.1157 7.22773C45.3635 7.04598 45.6048 6.89727 45.8097 6.77499C46.0146 6.65272 46.1996 6.54036 46.355 6.44452C46.5061 6.36139 46.6642 6.29172 46.8275 6.23633Z" fill="#231C15"/>
<path d="M70.3636 5.51849C70.3266 5.51621 70.29 5.50955 70.2545 5.49866L69.924 5.43256C69.6465 5.36647 69.2367 5.28716 68.7079 5.18471C68.1792 5.08227 67.5281 4.98643 66.7648 4.91703C65.9042 4.82835 65.0387 4.79633 64.1739 4.8212C61.9211 4.87965 59.6939 5.31414 57.5843 6.10672C56.3461 6.57036 55.1535 7.14785 54.0219 7.83176C52.8038 8.57328 51.6644 9.43696 50.6213 10.4094C49.5811 11.3852 48.6472 12.4686 47.8355 13.6414C47.0922 14.743 46.4527 15.9113 45.9254 17.1311C45.0538 19.2096 44.4261 21.382 44.0549 23.605C43.7244 25.5019 43.579 27.0551 43.4865 28.1258C43.4435 28.6546 43.4105 29.0709 43.3874 29.3651C43.3874 29.4973 43.3642 29.603 43.3576 29.6955C43.3612 29.7318 43.3612 29.7683 43.3576 29.8046C43.3516 29.7685 43.3516 29.7316 43.3576 29.6955C43.3576 29.6129 43.3576 29.5072 43.3576 29.3651C43.3576 29.0809 43.3874 28.6645 43.4237 28.1258C43.4997 27.0485 43.6253 25.4821 43.9425 23.5852C44.2975 21.3537 44.9142 19.1719 45.78 17.0849C46.3055 15.8534 46.9473 14.6749 47.6967 13.5654C48.5122 12.3796 49.4528 11.285 50.5024 10.3004C52.5358 8.39899 54.9307 6.92568 57.5447 5.96792C59.673 5.17637 61.92 4.75067 64.1904 4.70884C65.0591 4.6918 65.9279 4.73265 66.7912 4.83111C67.5546 4.91042 68.2056 5.02939 68.7377 5.12853C69.2697 5.22767 69.6729 5.33342 69.9472 5.40943L70.2578 5.49205C70.2941 5.49591 70.3297 5.50481 70.3636 5.51849Z" fill="#231C15"/>
<path d="M46.7515 26.6241C46.2368 26.8218 45.6734 26.8553 45.1389 26.72C44.5944 26.6424 44.0863 26.4016 43.6815 26.0293C44.1617 26.2475 44.6605 26.4223 45.1719 26.5514C45.6952 26.6233 46.2239 26.6476 46.7515 26.6241Z" fill="#231C15"/>
<path d="M48.8731 20.8912C48.6654 20.9249 48.4531 20.9171 48.2485 20.8681C47.7489 20.7867 47.2664 20.6225 46.8209 20.3823C46.3743 20.144 45.9701 19.8336 45.6246 19.4636C45.4718 19.3202 45.3483 19.1485 45.2611 18.958C46.2125 19.9914 47.4855 20.6728 48.8731 20.8912Z" fill="#231C15"/>
<path d="M52.9875 13.5539C52.5619 13.0507 52.1014 12.578 51.6095 12.1395C51.0837 11.7444 50.5316 11.3855 49.9571 11.0654C50.613 11.2342 51.2191 11.5571 51.7251 12.0073C52.2642 12.4138 52.6973 12.9443 52.9875 13.5539Z" fill="#231C15"/>
<path d="M57.7892 9.9353C57.5386 9.38781 57.2572 8.85491 56.9465 8.33914C56.5882 7.85633 56.2043 7.39301 55.7965 6.95117C56.8244 7.64165 57.5373 8.71094 57.7793 9.92539L57.7892 9.9353Z" fill="#231C15"/>
<path d="M65.6477 7.96126C65.6241 7.36087 65.492 6.76973 65.2578 6.21639C64.9754 5.6871 64.5966 5.21524 64.1408 4.82512C64.1408 4.80529 64.3457 4.88791 64.6101 5.10271C64.9473 5.38863 65.2205 5.74241 65.4118 6.141C65.6031 6.53959 65.7083 6.97403 65.7205 7.41599C65.7406 7.60095 65.7156 7.78803 65.6477 7.96126Z" fill="#231C15"/>
<path d="M70.661 8.22854C70.655 7.76094 70.6208 7.29414 70.5586 6.83066C70.4369 6.38176 70.289 5.94038 70.1157 5.50879C70.4208 5.8837 70.6298 6.32731 70.7248 6.80121C70.8198 7.2751 70.7979 7.76502 70.661 8.22854Z" fill="#231C15"/>
<path d="M63.1626 60.9219C63.1461 60.9219 63.1626 60.6641 63.1461 60.1948C63.1174 59.5371 63.0289 58.8834 62.8817 58.2418C62.6582 57.2895 62.3553 56.3576 61.9763 55.4559C61.5599 54.4315 61.0278 53.3343 60.5024 52.1512C60.0136 51.1056 59.606 50.024 59.2829 48.9159V48.8532L59.3391 48.8234C60.0413 48.4588 60.6594 47.9511 61.1534 47.333L61.1864 47.29L61.236 47.3165C61.7521 47.6007 62.3322 47.7486 62.9214 47.7461H62.9511V47.7725C63.1469 48.1196 63.3784 48.4452 63.6418 48.7441C63.8236 48.9556 63.9326 49.0746 63.926 49.0746C63.9194 49.0746 63.893 49.0547 63.8368 49.0085C63.7806 48.9622 63.7013 48.8862 63.6055 48.7871C63.3219 48.4974 63.0744 48.1745 62.8685 47.8254L62.9115 47.8518C62.3017 47.8686 61.6981 47.7262 61.16 47.4388H61.2426C60.7461 48.0816 60.1172 48.6101 59.3986 48.9886L59.4382 48.8961C59.7688 49.9924 60.1775 51.0637 60.661 52.1017C61.1864 53.2682 61.7152 54.3687 62.125 55.4063C62.5016 56.3178 62.7958 57.2612 63.004 58.2252C63.142 58.8772 63.2129 59.5416 63.2155 60.208C63.2169 60.389 63.2092 60.5699 63.1924 60.75C63.1908 60.8084 63.1808 60.8663 63.1626 60.9219Z" fill="#FF9A6C"/>
<path d="M36.8441 61.7546L50.314 53.6681C50.314 53.6681 60.7634 60.5517 67.581 58.0269C72.1845 56.325 72.1845 50.0957 72.1845 50.0957L85.4198 50.142L97.1349 86.011L100.132 128.935H41.5103L39.1475 78.5523L36.8441 61.7546Z" fill="#32542E"/>
<g opacity="0.3">
<path d="M40.9684 118.41C45.0629 121.88 50.4132 123.582 55.7503 124.134C61.0874 124.686 66.4674 124.164 71.8078 123.645C81.0279 122.746 90.4364 122.984 99.6564 122.098C99.3954 119.785 99.164 114.042 98.903 111.738L40.9684 115.896V118.41Z" fill="black"/>
</g>
<path d="M36.1666 101.068C36.1666 101.068 34.8976 100.456 34.2697 101.091C33.8347 101.565 33.4697 102.099 33.1858 102.677C33.1858 102.677 31.1468 102.066 30.3008 103.758C30.3008 103.758 28.7773 104.719 29.6795 106.61C29.6795 106.61 28.0503 108.883 29.349 110.85C29.4942 111.085 29.6735 111.298 29.8811 111.481C29.8811 111.481 30.4924 113.85 31.3087 114.247C32.125 114.643 35.0397 115.532 35.1388 114.197C35.238 112.862 34.7158 112.984 34.7158 112.984C34.7158 112.984 38.1626 114.852 39.6894 116.226C41.2162 117.601 45.2281 119.637 47.7033 119.63C50.1785 119.624 49.121 114.303 49.121 114.303L36.1666 101.068Z" fill="#FFBF9D"/>
<path d="M91.4144 75.8428C91.2525 76.6524 91.1203 81.0212 91.1203 81.0212L93.9789 99.1011C88.3378 100.271 60.6015 105.896 60.6015 105.896L58.0139 119.531C58.0139 119.531 101.636 118.724 106.5 114.19C111.365 109.656 108.896 91.3153 108.896 89.5341C108.896 87.7529 107.697 75.9651 107.697 75.9651L91.4144 75.8428Z" fill="#FFBF9D"/>
<path d="M30.7667 106.892C30.9193 106.937 31.0675 106.995 31.2096 107.067L32.3927 107.605L34.1375 108.422L34.6398 108.66L34.9009 108.782C35.0113 108.825 35.1028 108.906 35.1587 109.01C35.1734 109.043 35.1811 109.079 35.1811 109.116C35.1811 109.152 35.1734 109.188 35.1587 109.221C35.1304 109.282 35.0843 109.333 35.0265 109.367C34.9257 109.426 34.8125 109.46 34.696 109.466C34.4859 109.495 34.2733 109.503 34.0615 109.489C33.2056 109.433 32.4455 109.159 31.7482 109.046C31.4218 108.973 31.0833 108.973 30.7568 109.046C30.6185 109.083 30.4889 109.147 30.3754 109.235C30.262 109.322 30.167 109.431 30.0959 109.555C29.8948 109.931 29.8053 110.356 29.8381 110.781C29.8496 110.94 29.8496 111.099 29.8381 111.257C29.7965 111.103 29.7721 110.944 29.7654 110.785C29.7092 110.342 29.7863 109.894 29.9868 109.496C30.0613 109.356 30.1627 109.232 30.2852 109.132C30.4078 109.031 30.5489 108.956 30.7007 108.911C31.0476 108.831 31.4079 108.831 31.7548 108.911C32.4786 109.02 33.242 109.287 34.0681 109.34C34.2688 109.354 34.4703 109.347 34.6696 109.321C34.858 109.321 35.0496 109.205 35.0001 109.099C34.9505 108.993 34.7258 108.917 34.5638 108.831L34.0648 108.587L32.3266 107.714L31.1666 107.13C31.026 107.063 30.8921 106.984 30.7667 106.892Z" fill="#FF9A6C"/>
<path d="M36.2327 105.895C35.9502 105.759 35.6755 105.606 35.4098 105.439C34.0898 104.703 32.6554 104.194 31.1666 103.932C30.8552 103.894 30.5463 103.837 30.2413 103.764C30.5572 103.741 30.8747 103.758 31.1864 103.813C31.9445 103.912 32.69 104.09 33.4105 104.345C34.1304 104.601 34.8206 104.933 35.4693 105.337C35.7472 105.489 36.0038 105.677 36.2327 105.895Z" fill="#FF9A6C"/>
<path d="M35.8956 103.548C35.4358 103.415 34.9872 103.246 34.5539 103.042C34.2431 102.919 33.9225 102.821 33.5956 102.751C33.456 102.737 33.3185 102.707 33.1858 102.662C33.1858 102.639 33.3477 102.606 33.6154 102.629C33.9559 102.666 34.2896 102.751 34.6068 102.88C35.0684 103.034 35.5032 103.26 35.8956 103.548Z" fill="#FF9A6C"/>
<path d="M35.0033 113.125C34.8041 113.154 34.6011 113.145 34.4052 113.099C33.9303 113.019 33.4658 112.886 33.0205 112.702C32.5757 112.525 32.1419 112.321 31.7218 112.091C31.5379 112.006 31.3675 111.895 31.2162 111.761C31.2426 111.708 32.0555 112.111 33.0833 112.531C33.5213 112.706 33.9706 112.852 34.4283 112.967C34.6243 113.002 34.8168 113.055 35.0033 113.125Z" fill="#FF9A6C"/>
<path d="M32.7331 112.416C32.7761 112.416 32.6967 112.747 32.4026 113.034C32.1085 113.322 31.7747 113.365 31.7648 113.325C31.7549 113.285 32.0259 113.156 32.287 112.908C32.548 112.661 32.6868 112.396 32.7331 112.416Z" fill="#FF9A6C"/>
<path d="M85.0595 50.1344C85.0595 50.1344 95.3635 49.7147 100.618 56.952C105.711 63.9711 109.709 78.5547 109.709 78.5547L90.0364 81.1753L87.1216 62.2064L85.0595 50.1344Z" fill="#32542E"/>
<path d="M101.633 107.383C101.6 107.383 101.464 106.739 101.058 105.757C100.949 105.489 100.826 105.226 100.691 104.971C100.555 104.69 100.38 104.405 100.202 104.105C99.794 103.463 99.3295 102.859 98.8137 102.3C98.2883 101.75 97.7155 101.247 97.1019 100.797C96.811 100.598 96.5401 100.403 96.2658 100.255C96.02 100.102 95.7663 99.9614 95.5057 99.8351C94.5506 99.3658 93.9095 99.1906 93.9227 99.1543C94.0758 99.1789 94.2263 99.2176 94.3722 99.27C94.5483 99.3184 94.7215 99.3769 94.891 99.4451C95.0893 99.5244 95.3173 99.6037 95.552 99.726C95.8191 99.8461 96.0794 99.9807 96.3319 100.129C96.6128 100.278 96.8904 100.46 97.1845 100.668C98.4549 101.555 99.5263 102.698 100.331 104.022C100.506 104.329 100.681 104.62 100.81 104.908C100.942 105.169 101.06 105.437 101.163 105.711C101.269 105.959 101.335 106.193 101.401 106.398C101.467 106.603 101.51 106.778 101.543 106.924C101.59 107.073 101.62 107.227 101.633 107.383Z" fill="#FF9A6C"/>
<path d="M87.1217 62.1973C87.1217 62.1973 87.1647 62.2832 87.2341 62.4451C87.3035 62.607 87.4059 62.8681 87.5315 63.1721C87.7727 63.8066 88.0933 64.7353 88.4238 65.9051C89.2445 68.962 89.8944 72.0621 90.3702 75.1913C90.9618 78.8495 91.3815 82.1774 91.6921 84.5865C91.8375 85.7762 91.9565 86.7477 92.0226 87.4384C92.0589 87.7689 92.0887 88.0233 92.1085 88.215C92.1239 88.3045 92.1305 88.3952 92.1283 88.486C92.1025 88.3986 92.0848 88.309 92.0754 88.2183L91.9565 87.4483C91.8606 86.7577 91.7218 85.796 91.5566 84.5997C91.2261 82.1972 90.7866 78.8727 90.1951 75.2177C89.6035 71.5627 88.9459 68.2779 88.3015 65.9382C87.9908 64.7683 87.6868 63.8331 87.4654 63.1953L87.1977 62.4583C87.1649 62.3737 87.1395 62.2863 87.1217 62.1973Z" fill="#231C15"/>
<path d="M52.1316 65.2758L50.1256 86.5546L47.0522 81.1349L31.2162 83.0186C31.3781 83.8283 37.0159 103.63 39.4448 109.126C41.8738 114.621 48.6682 124.403 56.2756 120.89C63.883 117.377 63.3906 89.7106 63.3906 86.5546C63.3906 83.3987 61.8672 64.5752 61.8672 64.5752" fill="#FFBF9D"/>
<path d="M61.8738 64.5752C61.8738 64.5752 61.8903 64.7074 61.9135 64.9651C61.9366 65.2229 61.9697 65.6096 62.0126 66.1119C62.0952 67.1231 62.2175 68.6102 62.3761 70.5203C62.5348 72.4304 62.7066 74.78 62.9115 77.4998C63.0084 78.8613 63.1098 80.3143 63.2155 81.8587C63.3114 83.402 63.4336 85.0345 63.4568 86.7529C63.4865 90.1898 63.4568 93.9538 63.2122 97.9888C63.0105 102.287 62.4913 106.563 61.659 110.785C61.2162 113.077 60.4913 115.306 59.501 117.42C58.985 118.521 58.2509 119.506 57.3431 120.315C57.104 120.511 56.8473 120.685 56.5764 120.834C56.3019 120.976 56.0194 121.102 55.7304 121.211C55.4429 121.326 55.1422 121.402 54.8447 121.492C54.542 121.566 54.2353 121.622 53.926 121.66C53.3027 121.738 52.6722 121.738 52.049 121.66C51.4225 121.575 50.8066 121.424 50.2116 121.211C49.0194 120.759 47.9046 120.124 46.9069 119.33C44.8909 117.685 43.1544 115.724 41.7648 113.524C40.9728 112.319 40.265 111.06 39.6465 109.757C39.0417 108.458 38.5493 107.113 38.0833 105.791C37.1514 103.147 36.312 100.504 35.5057 97.9128C34.6993 95.3219 33.9392 92.7873 33.2122 90.312C32.4852 87.8368 31.7747 85.4112 31.1468 83.0417L31.127 82.9591H31.2129L47.049 81.0854H47.0919L47.1151 81.1217L50.1719 86.5249L50.0595 86.5513C50.694 79.942 51.203 74.6313 51.5566 70.9598C51.735 69.129 51.887 67.708 51.9697 66.7431C52.0192 66.2639 52.0556 65.8971 52.082 65.6459C52.1084 65.3948 52.125 65.2758 52.125 65.2758C52.125 65.2758 52.125 65.4014 52.0985 65.6492C52.0721 65.8971 52.0457 66.2639 52.0027 66.7431C51.9168 67.7113 51.7879 69.1323 51.6227 70.9664C51.2922 74.6379 50.7899 79.9585 50.1785 86.5612V86.7496L50.0827 86.5844L47.0027 81.168L47.0688 81.201L31.236 83.0946L31.3021 83.0021C31.9267 85.3583 32.6438 87.7873 33.3708 90.2724C34.0979 92.7575 34.8646 95.2955 35.6841 97.8732C36.5037 100.451 37.3365 103.095 38.2618 105.742C38.7278 107.063 39.2201 108.385 39.8183 109.687C40.429 110.983 41.1279 112.235 41.9102 113.435C43.2874 115.619 45.0081 117.566 47.006 119.202C47.9903 119.986 49.0907 120.613 50.2677 121.059C50.8514 121.267 51.4549 121.414 52.0688 121.498C52.6789 121.574 53.2961 121.574 53.9062 121.498C54.2075 121.461 54.5065 121.407 54.8018 121.336C55.0926 121.247 55.39 121.171 55.6709 121.062C55.953 120.955 56.2288 120.833 56.4971 120.695C56.7576 120.549 57.0052 120.381 57.2373 120.193C58.1268 119.398 58.8462 118.431 59.3523 117.351C60.3387 115.251 61.0613 113.036 61.5037 110.758C62.336 106.542 62.8563 102.271 63.0602 97.9789C63.2981 93.9505 63.3477 90.1865 63.3246 86.743C63.3081 85.0279 63.1858 83.3954 63.0966 81.8521C63.0073 80.3088 62.895 78.8547 62.8057 77.4932C62.6075 74.7734 62.4389 72.4304 62.2968 70.5137C62.1547 68.597 62.0457 67.1132 61.9663 66.102C61.93 65.5996 61.9003 65.2163 61.8837 64.9552C61.8672 64.6942 61.8738 64.5752 61.8738 64.5752Z" fill="#FF9A6C"/>
<path d="M50.0793 86.001C50.0821 86.0861 50.0765 86.1713 50.0628 86.2554C50.0397 86.4174 50.0298 86.6652 49.9703 86.9726C49.8259 87.8516 49.6047 88.7163 49.3094 89.5568C48.868 90.8015 48.3311 92.0102 47.7033 93.1721C47.0093 94.494 46.1699 95.8919 45.3008 97.3691C44.474 98.7501 43.7281 100.178 43.0668 101.645C42.5294 102.842 42.1174 104.091 41.8374 105.373C41.6529 106.242 41.5577 107.128 41.5532 108.017C41.5532 108.331 41.5698 108.572 41.5698 108.737C41.5763 108.822 41.5763 108.907 41.5698 108.992C41.549 108.909 41.5379 108.825 41.5367 108.74C41.5367 108.575 41.4838 108.331 41.4871 108.017C41.4675 107.13 41.545 106.243 41.7185 105.373C41.9825 104.078 42.3859 102.814 42.9214 101.606C43.5759 100.129 44.3208 98.6944 45.152 97.3096C46.0212 95.8291 46.8639 94.4312 47.5645 93.1226C48.1913 91.9622 48.7314 90.7571 49.1805 89.5172C49.4846 88.6858 49.7222 87.8316 49.891 86.9626C49.9604 86.6553 49.9835 86.4141 50.0133 86.2488C50.028 86.1644 50.0502 86.0815 50.0793 86.001Z" fill="#FF9A6C"/>
<path d="M36.8441 61.7539C36.4112 61.8398 28.9822 65.2734 29.0318 76.7175C29.0715 85.2601 31.3616 93.4557 31.3616 93.4557L49.2598 85.0288L36.8441 61.7539Z" fill="#32542E"/>
<path d="M61.8738 64.5749C61.8738 64.5749 63.9822 62.3971 63.9822 59.5517C63.9229 57.6098 63.5536 55.6898 62.8884 53.8644C62.8884 53.8644 62.5348 50.8902 62.3101 49.717L63.2717 47.9027C63.2717 47.9027 65.8956 49.0528 66.3319 47.3575L64.7886 45.2425C64.4426 44.7696 63.9481 44.4264 63.3841 44.2676L61.0708 43.6066C60.667 43.4929 60.2433 43.4682 59.829 43.5344C59.4148 43.6006 59.0198 43.7561 58.6716 43.99L55.9419 45.8373L57.6372 42.3376L60.4826 41.7362C60.4826 41.7362 64.5275 43.4844 65.2942 41.1876L61.9036 39.2048L55.4495 39.3172C55.4495 39.3172 53.9723 41.1215 53.6452 41.6668C53.318 42.2121 52.2506 44.0957 52.2506 44.0957L50.6346 39.9186C50.6346 39.9186 50.6841 37.2517 50.6346 35.031C50.5652 32.5789 49.1243 31.7594 47.6604 32.5789C47.5149 32.6582 46.8573 39.2246 47.1845 40.758C47.5116 42.2914 50.3372 53.6694 50.3372 53.6694C50.3372 53.6694 51.3286 56.2603 51.7086 57.0237C52.2608 58.1546 52.5372 59.4004 52.5149 60.6588C52.581 61.8683 52.1217 65.6158 52.1217 65.6158" fill="#FFBF9D"/>
<path d="M52.0985 65.6363C52.0985 65.6363 52.0985 65.5636 52.0985 65.4248C52.0985 65.286 52.1349 65.0679 52.1646 64.7969C52.2208 64.2451 52.3067 63.4288 52.3827 62.368C52.4352 61.7802 52.4529 61.1899 52.4356 60.6C52.4335 59.8964 52.3493 59.1955 52.1845 58.5114C52.0946 58.1333 51.9741 57.763 51.8243 57.4044C51.6524 57.0408 51.464 56.6575 51.2988 56.2576C50.9683 55.4546 50.6379 54.6053 50.2777 53.6932C49.8117 51.8062 49.2863 49.7276 48.7476 47.4771C48.47 46.3491 48.1836 45.1837 47.8884 43.9807C47.7397 43.376 47.5909 42.7646 47.4356 42.1433C47.3596 41.8294 47.2836 41.5188 47.2076 41.2015C47.1679 41.0429 47.125 40.8876 47.0919 40.7256C47.0589 40.5637 47.049 40.3952 47.0358 40.2266C46.9932 38.8683 47.034 37.5086 47.158 36.1553C47.2109 35.4613 47.2704 34.7607 47.3464 34.0502C47.3861 33.6966 47.4257 33.343 47.4819 32.9828C47.4819 32.8935 47.5083 32.8043 47.5282 32.7118C47.527 32.6887 47.527 32.6655 47.5282 32.6424V32.606V32.5829L47.5546 32.5432C47.5646 32.5275 47.5798 32.5158 47.5976 32.5102H47.6306L47.6934 32.4805C47.859 32.394 48.0343 32.3274 48.2155 32.2822C48.5884 32.1817 48.9838 32.2049 49.3424 32.3483C49.6972 32.5065 49.9932 32.7725 50.1884 33.1083C50.552 33.7852 50.7234 34.5486 50.6841 35.3159C50.6841 36.8316 50.6841 38.3738 50.6841 39.9424V39.9094C51.1964 41.2312 51.7449 42.649 52.3001 44.0898H52.1448L53.5592 41.6344C54.1078 40.8215 54.7324 40.0713 55.3537 39.298L55.3768 39.2683H55.4594L56.6689 39.2451L61.9135 39.1592H61.9399H61.9597L65.3504 41.142L65.4098 41.1784L65.3735 41.2114C65.3003 41.4414 65.1787 41.653 65.0168 41.832C64.8549 42.011 64.6565 42.1532 64.435 42.2491C63.9985 42.4175 63.5298 42.4853 63.0635 42.4474C62.1634 42.3775 61.2806 42.1621 60.4495 41.8096H60.4991L57.6537 42.411L57.7099 42.3681L56.0113 45.8677L55.8956 45.7653L58.6848 43.9014C59.1573 43.6017 59.7049 43.4413 60.2644 43.4388C60.5379 43.4402 60.81 43.4769 61.0741 43.5478L61.8342 43.7626L63.3312 44.1856C63.8379 44.3142 64.2969 44.5862 64.6531 44.9688C65.281 45.7686 65.8262 46.5617 66.3913 47.3218L66.4112 47.3482V47.3813C66.3325 47.6965 66.1346 47.9689 65.8593 48.1413C65.5878 48.2946 65.2784 48.3679 64.967 48.3528C64.3783 48.3323 63.7987 48.2012 63.2585 47.9662L63.3378 47.9398C63.0073 48.6007 62.6769 49.1757 62.3761 49.7507V49.7111C62.6339 51.1949 62.7892 52.5828 62.9445 53.865C63.4948 55.3819 63.8458 56.9637 63.9888 58.5709C64.0568 59.2211 64.0423 59.8774 63.9459 60.524C63.8542 61.0604 63.7024 61.5847 63.4931 62.0871C63.206 62.7737 62.8328 63.421 62.3827 64.0137C62.2274 64.2153 62.1052 64.3607 62.0192 64.4566C61.9767 64.5053 61.9315 64.5517 61.8837 64.5954L62.006 64.4466C62.0919 64.3508 62.2076 64.1988 62.3596 63.9972C62.7965 63.3994 63.1604 62.7515 63.4436 62.0673C63.645 61.5658 63.7913 61.0439 63.8798 60.5108C63.9683 59.87 63.9783 59.2207 63.9095 58.5775C63.7558 56.9812 63.3993 55.4109 62.8487 53.9047C62.6868 52.6225 62.5182 51.2345 62.2638 49.7606V49.7408V49.721L63.2221 47.9067L63.2486 47.8571L63.3015 47.8803C63.8257 48.1014 64.3853 48.2268 64.9538 48.2504C65.2408 48.2622 65.5255 48.1948 65.7767 48.0554C66.0222 47.8987 66.1983 47.6539 66.2691 47.3713V47.4308C65.704 46.6741 65.1422 45.8644 64.5341 45.0911C64.1968 44.7286 63.7618 44.4715 63.2816 44.3509L61.7846 43.9312C61.2912 43.7575 60.7764 43.6519 60.2545 43.6172C59.7231 43.6202 59.2032 43.7725 58.7542 44.0568L55.9749 45.9239L55.7337 46.0858L55.8593 45.8248L57.5546 42.3218V42.2854H57.5943L60.4363 41.6807H60.4627H60.4892C61.309 42.0135 62.1772 42.2121 63.0602 42.2689C63.5005 42.3061 63.9434 42.2428 64.3556 42.0839C64.5553 41.9974 64.734 41.8692 64.88 41.7079C65.0259 41.5466 65.1356 41.3559 65.2017 41.1486L65.238 41.2511L61.8474 39.2683H61.8904L56.6458 39.3575L55.4363 39.3806L55.5024 39.3476C54.8877 40.1143 54.2532 40.8776 53.7212 41.6609C53.242 42.4969 52.7694 43.3132 52.31 44.1129L52.2208 44.2683L52.158 44.0997L50.5453 39.9226V39.9061C50.5453 38.3397 50.5453 36.7975 50.5453 35.2795C50.5856 34.5402 50.4221 33.8041 50.0728 33.1513C49.8966 32.843 49.627 32.5988 49.3028 32.454C48.9767 32.3239 48.6172 32.303 48.2783 32.3945C48.1073 32.4359 47.9419 32.4981 47.7859 32.5796L47.7264 32.6093H47.6967C47.7231 32.6688 47.6438 32.53 47.667 32.5697C47.6901 32.6093 47.7033 32.6159 47.7033 32.6093V32.6358C47.7018 32.6567 47.7018 32.6777 47.7033 32.6986C47.6835 32.7845 47.6703 32.8737 47.657 32.9596C47.6042 33.3132 47.5645 33.6701 47.5249 34.0237C47.4455 34.7276 47.3827 35.4282 47.3299 36.1222C47.2072 37.4679 47.1642 38.8197 47.201 40.1704C47.2095 40.3312 47.2283 40.4913 47.2572 40.6496C47.2869 40.8083 47.3299 40.9801 47.3662 41.1255C47.4455 41.456 47.5215 41.7534 47.5976 42.064C47.7452 42.6897 47.8939 43.3022 48.0437 43.9014C48.3345 45.1087 48.6176 46.2753 48.893 47.4011C49.4383 49.6483 49.9439 51.7302 50.3999 53.6205C50.7304 54.526 51.0609 55.3852 51.3913 56.1849C51.5566 56.5881 51.7383 56.9615 51.9135 57.335C52.0727 57.6995 52.202 58.0764 52.3001 58.4619C52.4629 59.1517 52.5438 59.8582 52.5414 60.5669C52.5547 61.1604 52.5326 61.7541 52.4753 62.3449C52.3861 63.4024 52.2935 64.2186 52.2274 64.7705C52.1922 65.0415 52.1657 65.2497 52.1481 65.3951C52.1118 65.5669 52.0985 65.6363 52.0985 65.6363Z" fill="#FF9A6C"/>
<path d="M62.667 44.3608C62.4174 44.4188 62.1764 44.5087 61.9498 44.6285C61.4306 44.9746 60.9379 45.359 60.4759 45.7785C59.9075 46.2478 59.3887 46.6642 59.0087 46.9583C58.8124 47.1325 58.5974 47.2843 58.3676 47.411C58.5336 47.2086 58.7221 47.0257 58.9294 46.8658C59.2896 46.5353 59.7985 46.1156 60.3669 45.643C60.8358 45.217 61.3475 44.8405 61.8937 44.5194C62.1242 44.3759 62.3985 44.3196 62.667 44.3608Z" fill="#FF9A6C"/>
<path d="M44.1838 70.2911C44.23 70.2746 45.4263 73.5726 46.8573 77.6572C48.2882 81.7418 49.4151 85.063 49.3688 85.0795C49.3226 85.0961 48.1296 81.798 46.6953 77.7134C45.2611 73.6288 44.1408 70.2911 44.1838 70.2911Z" fill="#231C15"/>
</svg>
