<svg width="171" height="143" viewBox="0 0 171 143" fill="none" xmlns="http://www.w3.org/2000/svg">
<path d="M72.71 106.915C72.71 106.915 72.9807 113.733 71.5996 117.303C72.4301 118.748 101.14 123.603 113.813 112.921L112.373 104.506L72.71 106.915Z" fill="#FF8B7B"/>
<path d="M124.193 142.246L113.818 112.086C113.818 112.086 102.053 120.712 72.2833 114.628C72.2833 114.628 66.4926 123.878 65.373 132.321C64.9495 135.611 64.8251 138.933 65.0014 142.246H124.193Z" fill="black"/>
<g opacity="0.2">
<path d="M70.9618 142.094C68.1399 129.402 76.2798 115.55 76.3624 115.412L76.7524 115.655C76.6698 115.793 68.6308 129.49 71.4069 141.989L70.9618 142.094Z" fill="white"/>
</g>
<path d="M90.9813 1.83902C90.9813 1.83902 103.636 -2.40073 108.729 9.89636C113.075 20.3856 104.526 27.2316 106.054 37.3537C107.582 47.4759 108.977 51.633 100.856 57.9009C95.3862 62.1177 86.691 45.512 86.691 45.512L90.9813 1.83902Z" fill="black"/>
<path d="M106.206 52.405L105.88 52.0563C105.921 52.0241 109.679 48.3488 107.513 40.4933C106.197 35.7121 106.215 28.4211 106.215 28.3477H106.674C106.674 28.4211 106.674 35.6479 107.954 40.3694C110.216 48.514 106.371 52.249 106.206 52.405Z" fill="black"/>
<path d="M155.509 52.1388C153.22 57.9954 150.616 63.724 147.708 69.2996C146.984 70.7098 146.219 72.1124 145.414 73.5073C144.616 74.8838 143.785 76.3016 142.868 77.7149C141.899 79.2299 140.825 80.6757 139.656 82.0418C139.321 82.4272 138.954 82.8218 138.518 83.2394C138.002 83.7442 137.445 84.2047 136.852 84.6159C136.405 84.9163 135.932 85.1773 135.439 85.396C134.634 85.7636 133.773 85.9916 132.892 86.0705C132.736 86.0705 132.585 86.0705 132.433 86.098H131.819C131.598 86.098 131.36 86.098 131.162 86.0659L130.566 86.0016C130.369 85.9787 130.199 85.942 130.015 85.9145C128.808 85.6965 127.627 85.3536 126.491 84.8912C125.566 84.526 124.661 84.1125 123.78 83.6523C122.2 82.8403 120.669 81.9395 119.191 80.9543C116.45 79.1289 113.805 77.1624 111.267 75.0627C108.762 73.03 106.38 70.9102 104.049 68.7536C102.898 67.6661 101.755 66.5741 100.622 65.4545L98.9469 63.7659L97.2629 61.981L106.715 51.4964L110.592 55.2176L113.832 58.3103C115.998 60.3659 118.177 62.3741 120.37 64.3349C122.573 66.2666 124.771 68.18 126.978 69.8411C128.079 70.6578 129.157 71.4608 130.19 72.094C130.649 72.3693 131.071 72.6263 131.456 72.8236C132.076 72.2041 132.723 71.447 133.356 70.7129C135.191 68.5747 136.967 66.1611 138.756 63.7568C142.303 58.9068 145.8 53.8411 149.31 48.8672L155.509 52.1388Z" fill="#FF8B7B"/>
<path d="M149.571 52.772C149.571 52.772 147.3 51.7992 148.718 49.7298C150.136 47.6604 149.897 45.1414 151.154 45.3478C152.412 45.5543 152.37 48.6332 152.292 50.5007C152.214 52.3682 149.571 52.772 149.571 52.772Z" fill="#FF8B7B"/>
<path d="M149.943 51.1883C149.943 51.1883 150.631 55.272 154.568 55.4922C158.505 55.7125 160.492 50.5 160.492 50.5L149.943 51.1883Z" fill="#FF8B7B"/>
<path d="M95.3954 3.3488C94.8264 -2.51067 78.7071 -0.377037 76.3303 7.38206C74.4949 13.4251 74.8391 13.0029 71.283 17.0178C67.7269 21.0327 71.6776 27.4658 68.8098 30.3244C65.942 33.183 64.8821 34.7201 64.5425 37.7669C64.1204 41.5248 66.3779 45.5673 64.3544 48.5681C62.3309 51.569 61.1195 52.2389 61.9684 55.1618L87.9024 57.7084C87.9024 57.7084 79.5422 45.5673 82.0292 40.9008C84.5161 36.2343 87.5353 31.3614 85.6449 27.3557C83.7544 23.3499 85.0163 21.1107 90.7243 14.6869C96.4324 8.26304 95.3954 3.3488 95.3954 3.3488Z" fill="black"/>
<path d="M84.5207 112.03C77.8169 112.177 72.5127 111.218 72.2879 108.433C71.9667 104.326 70.4525 99.2241 68.4611 93.8418C67.9716 92.5173 67.4608 91.1805 66.9285 89.8315C66.1026 87.73 65.2216 85.6055 64.3544 83.5178C64.0286 82.7331 63.7074 81.9623 63.3954 81.196C58.9079 70.2709 55.595 61.0067 59.3621 54.8811C60.3274 53.4819 61.5385 52.2692 62.9366 51.3021C69.2457 46.5852 80.3452 42.4785 80.3452 42.4785L91.2199 42.5336C91.2199 42.5336 95.634 44.369 99.4378 46.1676C103.957 48.3334 107.055 50.9672 108.312 54.1607C111.028 61.0297 108.835 72.8725 110.257 90.8547C110.638 95.5957 111.374 100.301 112.46 104.932C113.162 107.951 96.5884 111.774 84.5207 112.03Z" fill="#8C88FF"/>
<g opacity="0.2">
<path d="M111.795 102.12C111.666 102.189 99.2864 109.136 76.1559 107.943C74.215 99.0412 65.8869 79.9532 65.8043 79.7559L65.474 79.9027C65.5611 80.0908 73.8158 99.0137 75.7843 107.92L74.0131 107.81L73.9856 108.168C76.6056 108.356 79.0879 108.438 81.4464 108.438C101.269 108.438 111.854 102.496 111.973 102.427L111.795 102.12Z" fill="black"/>
</g>
<path d="M92.3991 59.9743C91.5325 59.969 90.6752 59.7944 89.8755 59.4604C83.9104 57.0331 79.8084 46.9568 79.634 46.5301L80.0928 46.3511C80.1341 46.4567 84.2913 56.6706 90.0728 59.0199C90.8278 59.3449 91.6426 59.5079 92.4646 59.4985C93.2866 59.489 94.0974 59.3072 94.8448 58.9648C95.373 58.7562 95.8431 58.4233 96.2153 57.9944C96.5875 57.5655 96.8509 57.0532 96.983 56.5008C98.1668 51.66 91.1235 42.7721 91.0547 42.685L91.0822 42.0059C91.6007 42.5702 98.6853 51.5453 97.4464 56.6155C97.2983 57.2392 97.0021 57.818 96.5827 58.3029C96.1634 58.7877 95.6333 59.1643 95.0375 59.4007C94.2086 59.7767 93.3093 59.9722 92.3991 59.9743Z" fill="white"/>
<path d="M109.129 57.0664C109.129 57.0664 112.992 67.8218 114.708 73.2591C117.273 81.3807 108.583 88.1991 108.583 88.1991L109.129 57.0664Z" fill="#8C88FF"/>
<path d="M63.3954 81.22L63.1201 80.5409C62.9824 80.2151 62.8494 79.8848 62.7209 79.5636C61.6793 76.9941 60.7249 74.5163 59.9357 72.1807C59.9127 72.1027 59.8852 72.0293 59.8577 71.9513C57.5635 65.0686 56.7238 59.2092 59.3621 54.9052C60.3287 53.507 61.5396 52.2946 62.9365 51.3262C65.6667 53.1157 71.7648 58.0896 72.1135 66.9591C72.4393 75.4156 66.5201 79.5911 63.3954 81.22Z" fill="#FF8B7B"/>
<g opacity="0.2">
<path d="M69.6311 66.248L63.1201 80.5182C62.9824 80.1924 62.8494 79.862 62.7209 79.5408C61.6793 76.9713 60.7249 74.4935 59.9357 72.158C59.9128 72.08 59.8852 72.0066 59.8577 71.9286L69.6311 66.248Z" fill="black"/>
</g>
<path d="M52.6217 96.1871C51.1488 95.6916 49.708 95.1593 48.3636 94.5904C47.735 94.3197 47.1109 94.0443 46.5282 93.7644L46.5787 93.691C47.3817 92.5531 48.3361 91.3647 49.2859 90.1533C50.2357 88.942 51.2543 87.7306 52.2821 86.5238L55.4115 82.8898L58.6234 79.2557L65.084 71.9738C67.2314 69.5465 69.4292 67.0917 71.5078 64.6644L60.2936 54.3633C57.9122 56.8135 55.7051 59.2913 53.5073 61.8287C52.4152 63.1043 51.3232 64.3753 50.254 65.6693L47.0742 69.5924C46.0235 70.9093 45.0002 72.2537 43.9724 73.6073C42.9446 74.9609 41.926 76.3237 40.944 77.7369C38.8534 80.6201 36.9307 83.6213 35.1855 86.7257C34.7267 87.57 34.2678 88.451 33.809 89.4788C33.5841 89.9927 33.3501 90.5479 33.1299 91.1995C33.0152 91.5299 32.9005 91.8832 32.7949 92.3007C32.6622 92.7903 32.5641 93.2886 32.5013 93.792C32.3955 94.6154 32.4078 95.4498 32.538 96.2697C32.588 96.5792 32.6554 96.8856 32.7399 97.1874C32.845 97.5485 32.9769 97.9013 33.1345 98.2428C33.2171 98.4171 33.3226 98.6282 33.4006 98.7659L33.5199 98.9586L33.7677 99.3394C34.3163 100.137 34.9708 100.856 35.7132 101.478C36.7258 102.312 37.8387 103.016 39.0261 103.575C40.8302 104.427 42.7086 105.112 44.6378 105.621C46.4181 106.103 48.1571 106.479 49.8824 106.809C51.6076 107.14 53.3145 107.406 55.0169 107.635C56.7192 107.865 58.4123 108.067 60.1055 108.218C61.7986 108.37 63.4872 108.521 65.1803 108.613C66.5569 108.7 67.9334 108.755 69.3099 108.792L70.2735 108.815L70.87 101.257L68.3831 100.647C63.0467 99.2981 57.6552 97.8803 52.6217 96.1871ZM44.2844 92.4017C44.1651 92.287 44.0596 92.1814 44.0596 92.1447C44.0596 92.108 44.1651 92.1447 44.3762 92.4292C44.4037 92.4613 44.4267 92.498 44.4542 92.5347L44.2844 92.4017Z" fill="#FF8B7B"/>
<path d="M71.1866 101.68C71.1866 101.68 79.556 103.01 80.3636 104.35C81.1711 105.69 78.7117 105.695 78.7117 105.695C78.7117 105.695 81.4097 105.837 81.4969 106.86C81.6024 108.081 79.0283 108.071 79.0283 108.071C79.0283 108.071 81.2308 108.269 81.2354 109.182C81.24 110.095 78.34 110.301 78.34 110.301C78.34 110.301 79.8588 110.696 79.4596 111.329C79.0604 111.962 72.8981 112.421 71.0214 111.504C69.1448 110.586 68.7272 103.584 69.0117 102.047C69.2962 100.51 67.4654 99.2019 69.5072 96.793L71.1866 101.68Z" fill="#FF8B7B"/>
<path opacity="0.2" d="M78.7071 105.81L74.0131 105.351C73.998 105.35 73.9833 105.345 73.9699 105.339C73.9564 105.332 73.9444 105.322 73.9346 105.311C73.9248 105.299 73.9173 105.286 73.9127 105.271C73.9081 105.257 73.9063 105.242 73.9076 105.227C73.9087 105.212 73.9129 105.197 73.9198 105.184C73.9267 105.171 73.9362 105.159 73.9478 105.15C73.9594 105.14 73.9728 105.133 73.9872 105.129C74.0016 105.125 74.0166 105.124 74.0315 105.126L78.7301 105.585C78.7452 105.586 78.7598 105.591 78.7731 105.599C78.7863 105.606 78.798 105.616 78.8074 105.628C78.8168 105.64 78.8237 105.654 78.8278 105.668C78.8318 105.683 78.8329 105.698 78.831 105.713C78.8293 105.728 78.8247 105.742 78.8176 105.754C78.8104 105.767 78.8008 105.778 78.7892 105.787C78.7777 105.796 78.7645 105.803 78.7504 105.807C78.7363 105.811 78.7216 105.812 78.7071 105.81Z" fill="black"/>
<path opacity="0.2" d="M78.909 108.186L74.3618 108.071C74.3314 108.071 74.3022 108.059 74.2807 108.038C74.2592 108.016 74.2471 107.987 74.2471 107.957C74.2471 107.892 74.293 107.851 74.3664 107.842L78.9136 107.957C78.9444 107.958 78.9736 107.971 78.995 107.993C79.0164 108.015 79.0283 108.045 79.0283 108.076C79.0277 108.091 79.0242 108.106 79.0179 108.119C79.0115 108.133 79.0026 108.145 78.9915 108.156C78.9804 108.166 78.9674 108.174 78.9533 108.179C78.9391 108.184 78.9241 108.187 78.909 108.186Z" fill="black"/>
<path opacity="0.2" d="M78.1794 110.411H74.7794C74.7497 110.411 74.7212 110.4 74.6998 110.379C74.6785 110.359 74.6659 110.331 74.6647 110.301C74.6647 110.27 74.6766 110.24 74.698 110.218C74.7194 110.196 74.7485 110.183 74.7794 110.182H78.1611C78.1919 110.183 78.2211 110.196 78.2425 110.218C78.2639 110.24 78.2758 110.27 78.2758 110.301C78.2751 110.328 78.265 110.353 78.2475 110.373C78.2299 110.393 78.2058 110.407 78.1794 110.411Z" fill="black"/>
<path d="M86.4983 48.0137C86.6773 48.0596 86.8608 48.1055 87.0398 48.1376C89.9672 48.6974 92.2523 45.8113 91.3024 42.9848C90.94 41.8052 90.94 40.544 91.3024 39.3645C91.6515 38.1478 92.1445 36.9772 92.7708 35.8772L91.4309 33.9593L84.2408 25.1035C83.9104 30.5041 82.4054 39.158 77.9087 41.6679C80.1376 43.3582 82.2571 45.1881 84.2546 47.1465C84.9736 47.5053 85.7249 47.7957 86.4983 48.0137Z" fill="#FF8B7B"/>
<g opacity="0.2">
<path d="M91.2979 39.3645C91.647 38.1478 92.1399 36.9772 92.7662 35.8772L91.4309 33.9593L86.9847 32.959C86.9847 32.959 88.2236 37.6805 91.2979 39.3645Z" fill="black"/>
</g>
<path d="M82.7863 15.5216C82.2311 24.3911 82.1714 26.6716 85.9982 31.728C91.72 39.3311 102.168 39.4963 105.311 30.9618C108.142 23.2807 108.573 10.0659 100.553 5.52331C92.6515 1.04497 83.3644 6.65208 82.8092 15.5216" fill="#FF8B7B"/>
<path d="M86.8746 5.57361C86.8746 5.57361 91.7475 2.49016 91.7934 10.7035C91.7934 13.2822 103.21 13.4566 106.862 13.7273C110.514 13.998 105.343 6.01869 102.095 3.63269C98.8459 1.24669 88.4576 3.43997 86.8746 5.57361Z" fill="black"/>
<path d="M102.769 28.3645C102.769 28.3645 98.3687 27.713 95.8359 26.0703C95.8359 26.0703 96.57 29.8787 99.1625 30.5257C101.755 31.1727 102.769 28.3645 102.769 28.3645Z" fill="white"/>
<path d="M95.7533 18.9723C95.6661 19.6881 95.9735 20.3167 96.4415 20.3764C96.9096 20.436 97.3592 19.9176 97.451 19.1788C97.5428 18.4401 97.2308 17.8344 96.7627 17.8023C96.2947 17.7701 95.845 18.2611 95.7533 18.9953" fill="black"/>
<path d="M103.228 20.0838C103.141 20.7996 103.448 21.4282 103.916 21.4832C104.384 21.5383 104.834 21.0244 104.926 20.2902C105.017 19.5561 104.705 18.9458 104.237 18.8908C103.769 18.8357 103.32 19.3496 103.228 20.0838Z" fill="black"/>
<path d="M104.003 18.9036L105.784 18.6191C105.784 18.6191 104.737 19.8534 104.003 18.9036Z" fill="black"/>
<path d="M102.044 20.1934C102.044 20.1934 103.049 22.2444 104.187 24.0568C104.275 24.194 104.331 24.3493 104.351 24.5111C104.371 24.673 104.354 24.8373 104.302 24.9917C104.249 25.1461 104.162 25.2866 104.048 25.4029C103.934 25.5191 103.794 25.6079 103.641 25.6628C102.887 25.9095 102.109 26.0726 101.319 26.1492L102.044 20.1934Z" fill="#FF5652"/>
<path d="M93.8445 15.7965C93.9003 15.8079 93.9579 15.808 94.0138 15.797C94.0697 15.786 94.1229 15.764 94.1702 15.7323C94.5994 15.417 95.0969 15.2074 95.6223 15.1205C96.1477 15.0336 96.6862 15.0719 97.194 15.2321C97.2988 15.2733 97.4155 15.2719 97.5193 15.2281C97.623 15.1844 97.7055 15.1019 97.7492 14.9981C97.7702 14.9466 97.7807 14.8915 97.7802 14.8359C97.7798 14.7803 97.7684 14.7254 97.7466 14.6742C97.7249 14.623 97.6932 14.5767 97.6535 14.5378C97.6138 14.4989 97.5668 14.4682 97.5152 14.4475C96.8771 14.2307 96.1962 14.1709 95.53 14.2731C94.8639 14.3754 94.2322 14.6366 93.6885 15.0348C93.6032 15.0997 93.5458 15.1946 93.5279 15.3003C93.51 15.4059 93.5329 15.5144 93.5921 15.6038C93.6539 15.6931 93.7474 15.7554 93.8536 15.7782" fill="black"/>
<path d="M108.004 17.4666C108.087 17.4726 108.17 17.454 108.242 17.4132C108.315 17.3725 108.373 17.3113 108.411 17.2374C108.449 17.1634 108.464 17.08 108.454 16.9976C108.445 16.9151 108.411 16.8373 108.358 16.7738C107.939 16.2458 107.399 15.826 106.785 15.5498C106.17 15.2735 105.498 15.1488 104.825 15.1862C104.77 15.1928 104.716 15.2102 104.668 15.2374C104.619 15.2647 104.577 15.3011 104.543 15.3448C104.508 15.3885 104.483 15.4385 104.468 15.492C104.453 15.5454 104.449 15.6013 104.455 15.6565C104.462 15.7116 104.479 15.7649 104.507 15.8133C104.534 15.8617 104.57 15.9043 104.614 15.9386C104.658 15.9729 104.708 15.9982 104.761 16.0132C104.815 16.0282 104.87 16.0325 104.926 16.0258C105.458 16.0055 105.988 16.1118 106.471 16.3359C106.954 16.56 107.378 16.8957 107.706 17.3152C107.783 17.4014 107.89 17.4555 108.004 17.4666Z" fill="black"/>
<path d="M96.5517 17.7943L98.332 17.5098C98.332 17.5098 97.2858 18.7441 96.5517 17.7943Z" fill="black"/>
<path d="M83.9058 28.5254L64.8178 41.9696C65.763 45.8927 61.9133 46.347 60.3945 47.8337C57.7975 50.3757 57.6828 53.1012 58.8069 55.9139C64.7719 53.5784 81.217 62.9664 90.8987 56.6068C90.8987 56.6068 77.9179 43.6169 83.9058 28.5254Z" fill="black"/>
<path d="M75.5365 15.4812L81.8365 21.9877C82.3917 21.3315 88.5127 20.3863 89.178 14.9306C90.2425 6.39607 95.3816 3.34933 95.3816 3.34933C94.7622 -0.229672 78.5832 -0.0920169 78.1336 8.43335C77.9041 12.9805 77.1103 14.0496 75.5365 15.4812Z" fill="black"/>
<path d="M78.909 21.2346C79.1442 22.0086 79.5412 22.7238 80.0735 23.3329C80.6059 23.9419 81.2615 24.431 81.997 24.7677C83.8829 25.5523 85.1218 23.5288 84.8419 21.2805C84.5849 19.2616 83.3002 16.4167 81.2858 16.6003C79.2715 16.7838 78.2483 19.1973 78.909 21.2346Z" fill="#FF8B7B"/>
<path d="M82.1989 25.6991C81.9368 25.818 81.6453 25.8565 81.3613 25.8096C81.0774 25.7628 80.8137 25.6328 80.6036 25.436C80.3935 25.2393 80.2466 24.9846 80.1813 24.7043C80.1161 24.4239 80.1354 24.1306 80.237 23.8612C80.3385 23.5919 80.5177 23.3588 80.7518 23.1914C80.9859 23.0239 81.2644 22.9297 81.5521 22.9206C81.8398 22.9116 82.1237 22.988 82.3679 23.1404C82.6121 23.2927 82.8056 23.5141 82.9239 23.7765C83.003 23.9503 83.0469 24.1379 83.0532 24.3287C83.0595 24.5196 83.0281 24.7097 82.9608 24.8884C82.8934 25.067 82.7914 25.2306 82.6607 25.3697C82.53 25.5088 82.373 25.6207 82.1989 25.6991Z" fill="white"/>
<path d="M152.191 47.1236C152.191 47.1236 152.71 45.4993 153.394 45.3341C153.633 45.2729 153.884 45.2718 154.124 45.331C154.365 45.3903 154.586 45.508 154.77 45.6737C155.303 45.3443 155.911 45.1549 156.537 45.123C156.842 45.1334 157.14 45.2236 157.4 45.3846C157.66 45.5456 157.873 45.7718 158.019 46.0407C158.474 45.7685 158.989 45.6111 159.519 45.5819C160.575 45.5819 160.942 47.0227 160.942 47.0227C160.942 47.0227 162.144 46.6785 162.318 48.5047C162.493 50.331 161.69 53.1575 160.51 53.263C159.799 53.3318 156.84 53.3823 154.61 53.4144C152.926 53.4373 152.402 52.5564 152.357 50.8724C152.324 49.9776 152.265 49.2848 152.191 47.1236Z" fill="#FF8B7B"/>
<g opacity="0.2">
<path d="M152.357 49.4441C152.293 48.7087 152.273 47.9702 152.297 47.2324H152.058C152.029 47.9977 152.049 48.764 152.118 49.5267C152.192 49.486 152.273 49.4581 152.357 49.4441Z" fill="black"/>
</g>
<g opacity="0.2">
<path d="M160.341 47.8797H160.097C160.148 49.1415 160.047 52.5186 159.001 52.9683C158.727 53.1095 158.419 53.1719 158.112 53.1484C157.805 53.1249 157.511 53.0164 157.262 52.8352C158.253 51.5917 158.019 48.0357 158.005 47.8659H157.762C157.854 49.1231 157.835 52.4911 156.72 52.9499C155.463 53.4684 154.729 52.8352 154.619 52.7251C155.628 51.5046 155.408 47.6548 155.399 47.4805H155.156C155.234 48.7607 155.215 52.202 154.197 52.771C154.011 52.8799 153.798 52.9338 153.583 52.9265C153.367 52.9192 153.159 52.8509 152.981 52.7297L152.834 52.9224C153.049 53.0728 153.303 53.1583 153.566 53.1689C153.829 53.1795 154.089 53.1146 154.316 52.982C154.362 52.954 154.405 52.9218 154.444 52.8857C154.811 53.2137 155.288 53.3908 155.78 53.3812C156.136 53.3765 156.489 53.3017 156.817 53.161C156.919 53.1162 157.013 53.0559 157.096 52.982C157.416 53.2283 157.809 53.3592 158.211 53.3537C158.518 53.3505 158.821 53.2849 159.102 53.161C160.51 52.592 160.345 48.0724 160.341 47.8797Z" fill="black"/>
</g>
<path d="M50.4642 26.4595C46.8961 27.3837 46.3706 28.3484 45.8451 34.6356C45.8451 34.6607 45.8373 34.6847 45.8235 34.7024C45.8098 34.7201 45.791 34.7301 45.7715 34.7301C45.752 34.7301 45.7333 34.7201 45.7195 34.7024C45.7057 34.6847 45.698 34.6607 45.698 34.6356C45.1725 28.3281 44.6207 27.3837 41.0736 26.4595C41.0541 26.4595 41.0353 26.4495 41.0215 26.4318C41.0077 26.4141 41 26.3901 41 26.365C41 26.34 41.0077 26.316 41.0215 26.2982C41.0353 26.2805 41.0541 26.2706 41.0736 26.2706C44.6207 25.3464 45.1882 24.4019 45.698 18.0944C45.698 18.0694 45.7057 18.0454 45.7195 18.0277C45.7333 18.0099 45.752 18 45.7715 18C45.791 18 45.8098 18.0099 45.8235 18.0277C45.8373 18.0454 45.8451 18.0694 45.8451 18.0944C46.3706 24.4019 46.8961 25.3464 50.4695 26.2706C50.489 26.2715 50.5074 26.2823 50.5207 26.3006C50.534 26.319 50.5411 26.3434 50.5404 26.3684C50.5397 26.3935 50.5313 26.4171 50.517 26.4342C50.5027 26.4513 50.4837 26.4604 50.4642 26.4595Z" fill="#407BFF"/>
<path opacity="0.4" d="M50.4642 26.4595C46.8961 27.3837 46.3706 28.3484 45.8451 34.6356C45.8451 34.6607 45.8373 34.6847 45.8235 34.7024C45.8098 34.7201 45.791 34.7301 45.7715 34.7301C45.752 34.7301 45.7333 34.7201 45.7195 34.7024C45.7057 34.6847 45.698 34.6607 45.698 34.6356C45.1725 28.3281 44.6207 27.3837 41.0736 26.4595C41.0541 26.4595 41.0353 26.4495 41.0215 26.4318C41.0077 26.4141 41 26.3901 41 26.365C41 26.34 41.0077 26.316 41.0215 26.2982C41.0353 26.2805 41.0541 26.2706 41.0736 26.2706C44.6207 25.3464 45.1882 24.4019 45.698 18.0944C45.698 18.0694 45.7057 18.0454 45.7195 18.0277C45.7333 18.0099 45.752 18 45.7715 18C45.791 18 45.8098 18.0099 45.8235 18.0277C45.8373 18.0454 45.8451 18.0694 45.8451 18.0944C46.3706 24.4019 46.8961 25.3464 50.4695 26.2706C50.489 26.2715 50.5074 26.2823 50.5207 26.3006C50.534 26.319 50.5411 26.3434 50.5404 26.3684C50.5397 26.3935 50.5313 26.4171 50.517 26.4342C50.5027 26.4513 50.4837 26.4604 50.4642 26.4595Z" fill="white"/>
<path d="M151.523 93.4068C147.97 94.331 147.408 95.2754 146.898 101.576C146.894 101.598 146.884 101.617 146.87 101.63C146.857 101.644 146.84 101.651 146.822 101.651C146.805 101.651 146.788 101.644 146.774 101.63C146.76 101.617 146.75 101.598 146.746 101.576C146.221 95.2754 145.695 94.331 142.122 93.4068C142.105 93.401 142.09 93.3883 142.079 93.3706C142.069 93.3529 142.063 93.3313 142.063 93.3089C142.063 93.2866 142.069 93.2649 142.079 93.2472C142.09 93.2295 142.105 93.2168 142.122 93.2111C145.69 92.2869 146.215 91.3425 146.741 85.0147C146.745 84.9931 146.755 84.9741 146.769 84.9605C146.783 84.9468 146.8 84.9395 146.817 84.9395C146.834 84.9395 146.851 84.9468 146.865 84.9605C146.879 84.9741 146.889 84.9931 146.893 85.0147C147.419 91.3155 147.944 92.2599 151.518 93.1841C151.541 93.1832 151.563 93.1941 151.58 93.2143C151.596 93.2346 151.606 93.2625 151.607 93.2921C151.608 93.3216 151.599 93.3502 151.583 93.3718C151.568 93.3933 151.546 93.4059 151.523 93.4068Z" fill="#407BFF"/>
<path opacity="0.4" d="M151.523 93.4068C147.97 94.331 147.408 95.2754 146.898 101.576C146.894 101.598 146.884 101.617 146.87 101.63C146.857 101.644 146.84 101.651 146.822 101.651C146.805 101.651 146.788 101.644 146.774 101.63C146.76 101.617 146.75 101.598 146.746 101.576C146.221 95.2754 145.695 94.331 142.122 93.4068C142.105 93.401 142.09 93.3883 142.079 93.3706C142.069 93.3529 142.063 93.3313 142.063 93.3089C142.063 93.2866 142.069 93.2649 142.079 93.2472C142.09 93.2295 142.105 93.2168 142.122 93.2111C145.69 92.2869 146.215 91.3425 146.741 85.0147C146.745 84.9931 146.755 84.9741 146.769 84.9605C146.783 84.9468 146.8 84.9395 146.817 84.9395C146.834 84.9395 146.851 84.9468 146.865 84.9605C146.879 84.9741 146.889 84.9931 146.893 85.0147C147.419 91.3155 147.944 92.2599 151.518 93.1841C151.541 93.1832 151.563 93.1941 151.58 93.2143C151.596 93.2346 151.606 93.2625 151.607 93.2921C151.608 93.3216 151.599 93.3502 151.583 93.3718C151.568 93.3933 151.546 93.4059 151.523 93.4068Z" fill="white"/>
</svg>
