<?xml version="1.0" standalone="no"?>
<!DOCTYPE svg PUBLIC "-//W3C//DTD SVG 20010904//EN"
 "http://www.w3.org/TR/2001/REC-SVG-20010904/DTD/svg10.dtd">
<svg version="1.0" xmlns="http://www.w3.org/2000/svg"
 width="1024.000000pt" height="1024.000000pt" viewBox="0 0 1024.000000 1024.000000"
 preserveAspectRatio="xMidYMid meet">

<g transform="translate(0.000000,1024.000000) scale(0.100000,-0.100000)"
fill="#ffffff" stroke="none">
<path d="M8630 8589 c-568 -75 -1163 -424 -1520 -893 l-75 -98 -170 1 c-217 2
-340 -16 -393 -55 -77 -58 -185 -160 -264 -251 -83 -95 -218 -272 -218 -285 0
-13 47 -9 174 14 205 37 466 30 466 -12 0 -5 -25 -46 -55 -90 -30 -44 -55 -87
-55 -95 0 -24 72 -98 194 -201 143 -120 222 -181 259 -200 27 -14 29 -14 80
31 107 94 121 56 113 -287 -3 -137 -2 -248 2 -248 35 0 220 150 348 282 168
174 189 228 201 526 l6 153 47 24 c177 90 498 406 668 657 131 194 242 419
312 631 44 130 83 318 78 369 l-3 33 -65 1 c-36 1 -94 -2 -130 -7z m-502 -535
c20 -8 50 -27 65 -42 135 -128 9 -357 -194 -355 -109 1 -179 67 -187 174 -4
52 -1 64 27 107 40 62 66 86 121 111 54 25 117 27 168 5z"/>
<path d="M4625 7993 c-289 -24 -459 -52 -655 -108 -367 -106 -787 -324 -1060
-550 -119 -98 -366 -345 -447 -445 -137 -170 -273 -381 -368 -570 -52 -104
-135 -289 -135 -301 0 -10 132 -12 165 -3 14 3 43 52 97 162 198 405 432 714
734 966 462 385 891 574 1484 652 152 20 510 23 655 5 283 -35 643 -128 881
-226 46 -19 97 -35 113 -35 27 0 141 66 156 91 11 17 -12 32 -139 85 -463 196
-1076 311 -1481 277z"/>
<path d="M6367 6565 c-149 -203 -414 -483 -535 -563 -29 -19 -51 -37 -49 -38
16 -17 792 293 970 387 l29 15 -87 82 c-77 73 -247 213 -256 211 -2 0 -35 -42
-72 -94z"/>
<path d="M6552 5795 c-88 -20 -149 -51 -199 -102 -50 -52 -98 -143 -113 -218
-16 -76 -8 -962 9 -1024 32 -118 121 -230 215 -271 151 -64 354 -47 473 40 88
65 145 188 147 320 l1 85 -121 3 -122 3 -11 -62 c-23 -130 -65 -174 -169 -174
-79 0 -118 22 -148 82 -18 35 -19 68 -19 488 0 409 2 455 18 502 23 66 61 99
124 108 108 14 163 -33 183 -158 20 -131 5 -117 129 -117 60 0 116 3 125 6 12
5 16 21 16 73 -1 196 -93 349 -243 401 -81 28 -211 34 -295 15z"/>
<path d="M3550 5786 c-25 -7 -63 -21 -85 -31 -60 -29 -157 -130 -190 -200 -28
-58 -29 -68 -36 -255 -4 -107 -5 -330 -3 -495 6 -386 15 -424 123 -538 56 -59
121 -94 210 -113 84 -17 139 -17 225 1 98 21 152 50 222 119 115 115 128 196
122 786 -4 379 -5 398 -27 459 -49 141 -144 230 -286 267 -62 17 -215 17 -275
0z m213 -230 c42 -17 83 -66 97 -114 6 -23 10 -203 10 -472 0 -402 -2 -438
-19 -475 -34 -74 -85 -105 -172 -105 -86 0 -144 38 -168 109 -15 46 -15 880 0
936 14 52 54 104 93 121 40 17 118 18 159 0z"/>
<path d="M2307 5783 l-127 -4 2 -802 3 -802 125 0 125 0 5 319 5 318 44 2 c30
2 50 -3 60 -14 9 -8 67 -154 130 -323 l114 -307 140 0 c107 0 138 3 134 13 -3
6 -24 59 -47 117 -55 137 -210 543 -210 551 0 3 26 23 57 45 63 43 120 123
150 207 28 80 25 320 -5 401 -48 129 -118 208 -217 245 -61 23 -211 42 -305
39 -30 -1 -112 -4 -183 -5z m323 -234 c113 -24 155 -104 148 -283 -6 -171 -49
-213 -233 -223 l-105 -6 0 249 c0 181 3 253 12 262 15 15 110 16 178 1z"/>
<path d="M5668 5783 l-328 -3 0 -805 0 -805 329 0 c180 0 349 3 375 6 l46 7 0
96 c0 62 -4 101 -12 109 -9 9 -77 12 -245 12 l-233 0 0 230 c0 216 1 230 19
240 11 6 90 10 184 10 l165 0 6 31 c9 44 7 162 -2 176 -6 9 -59 13 -187 15
l-180 3 -3 221 -2 221 242 9 243 9 0 110 0 110 -45 0 c-25 1 -192 -1 -372 -2z"/>
<path d="M7290 5782 l-45 -7 -3 -107 -3 -107 143 -3 143 -3 6 -190 c4 -104 7
-415 8 -690 l0 -500 128 -3 128 -3 2 685 c0 377 4 690 8 695 4 7 57 11 141 11
l134 0 0 110 0 110 -252 0 c-139 0 -307 2 -373 4 -66 2 -140 1 -165 -2z"/>
<path d="M1118 5020 c-1 -418 -2 -781 -3 -807 l0 -48 138 -3 137 -3 0 316 0
315 33 0 c178 1 307 25 377 70 84 54 125 112 162 230 19 64 23 96 23 210 -1
121 -4 143 -28 214 -31 89 -67 146 -126 199 -68 61 -106 67 -428 67 l-283 0
-2 -760z m522 511 c46 -21 69 -64 79 -147 10 -84 -2 -221 -23 -266 -29 -60
-64 -73 -201 -73 l-120 0 0 115 c0 63 2 179 3 258 l2 143 113 -6 c71 -5 125
-13 147 -24z"/>
<path d="M4200 5765 c0 -8 4 -24 10 -37 33 -80 163 -413 249 -639 l101 -265 0
-318 0 -317 -112 -108 c-688 -658 -1372 -1116 -1868 -1248 -95 -25 -121 -28
-275 -28 -155 0 -175 2 -228 24 -71 28 -169 116 -202 181 -97 192 -80 572 41
939 25 73 43 135 41 137 -1 2 -28 -43 -59 -99 -176 -318 -252 -689 -196 -962
37 -182 192 -336 393 -390 92 -25 301 -31 413 -11 261 45 633 219 977 454 376
257 660 495 991 829 258 259 262 263 303 263 l41 0 0 319 0 319 184 482 c122
321 180 483 172 486 -7 3 -68 3 -135 2 l-124 -3 -106 -303 c-58 -167 -111
-304 -116 -305 -9 -2 -52 111 -179 476 l-48 137 -134 0 c-111 0 -134 -3 -134
-15z"/>
<path d="M8370 5723 c-7 -32 -50 -222 -96 -423 -82 -352 -244 -1098 -244
-1120 0 -7 44 -10 137 -8 l138 3 34 188 35 187 162 0 163 0 10 -52 c21 -107
61 -318 61 -323 0 -3 63 -5 140 -5 77 0 140 3 140 7 0 17 -131 603 -279 1248
-32 143 -63 280 -68 305 l-9 45 -156 3 -156 3 -12 -58z m234 -640 c31 -160 56
-294 56 -297 0 -3 -54 -6 -119 -6 -86 0 -120 3 -123 13 -5 12 6 76 71 412 36
183 38 192 51 179 5 -5 34 -140 64 -301z"/>
<path d="M7688 3973 c-43 -5 -46 -8 -83 -98 -54 -133 -175 -362 -254 -481
-381 -572 -917 -984 -1576 -1211 -456 -157 -1012 -196 -1475 -103 -434 87
-822 246 -1137 467 -65 45 -127 83 -138 83 -27 0 -175 -52 -175 -62 0 -11 138
-120 240 -188 426 -286 924 -460 1460 -509 167 -16 493 -14 645 4 744 87 1406
421 1941 978 245 255 406 491 567 828 97 202 123 267 111 278 -12 11 -79 18
-126 14z"/>
</g>
</svg>
